<?xml version="1.0" encoding="utf-8"?>
<!-- Generator: Adobe Illustrator 16.0.0, SVG Export Plug-In . SVG Version: 6.00 Build 0)  -->
<!DOCTYPE svg PUBLIC "-//W3C//DTD SVG 1.1//EN" "http://www.w3.org/Graphics/SVG/1.1/DTD/svg11.dtd">
<svg version="1.1" id="Capa_1" xmlns="http://www.w3.org/2000/svg" xmlns:xlink="http://www.w3.org/1999/xlink" x="0px" y="0px"
	 width="68px" height="68px" viewBox="1066 -9 68 68" enable-background="new 1066 -9 68 68" xml:space="preserve">
<rect x="1066" y="-9" fill="#000F28" width="68" height="68"/>
<path fill-rule="evenodd" clip-rule="evenodd" fill="#FFFFFF" d="M1109.225,42.936c-1.972-0.15-3.762-0.797-5.5-1.507
	c-1.984-0.804-3.959-1.687-5.807-2.761c-1.53-0.892-2.997-1.976-4.262-3.21c-2.144-2.089-4.172-4.313-6.123-6.586
	c-1.685-1.964-2.877-4.255-3.675-6.729c-0.536-1.656-1.096-3.308-1.55-4.986c-0.489-1.805-0.099-3.56,0.649-5.216
	c0.668-1.479,1.346-3.004,2.815-3.899c1.26-0.77,2.693-0.975,4.138-0.977c0.28,0,0.651,0.357,0.82,0.645
	c1.002,1.695,1.95,3.423,2.932,5.131c0.357,0.622,0.794,1.199,1.132,1.828c0.525,0.974,0.464,1.429-0.353,2.201
	c-0.857,0.806-1.736,1.6-2.677,2.307c-1.331,1.003-1.523,1.796-0.617,3.154c0.992,1.481,1.832,3.071,2.914,4.476
	c1.781,2.308,3.939,4.236,6.452,5.744c0.8,0.482,1.583,0.984,2.394,1.448c1.065,0.609,1.966,0.332,2.77-0.713
	c0.73-0.953,1.495-1.886,2.31-2.767c0.819-0.886,1.297-0.963,2.339-0.366c2.289,1.305,4.541,2.671,6.828,3.976
	c0.574,0.324,0.865,0.754,0.716,1.366c-0.297,1.225-0.467,2.531-1.037,3.623c-0.862,1.637-2.602,2.319-4.229,2.969
	C1111.534,42.515,1110.355,42.662,1109.225,42.936z"/>
</svg>
