<?xml version="1.0" encoding="utf-8"?>
<!-- Generator: Adobe Illustrator 16.0.0, SVG Export Plug-In . SVG Version: 6.00 Build 0)  -->
<!DOCTYPE svg PUBLIC "-//W3C//DTD SVG 1.1//EN" "http://www.w3.org/Graphics/SVG/1.1/DTD/svg11.dtd">
<svg version="1.1" id="Capa_1" xmlns="http://www.w3.org/2000/svg" xmlns:xlink="http://www.w3.org/1999/xlink" x="0px" y="0px"
	 width="600px" height="415.5px" viewBox="-270 -270 600 415.5" enable-background="new -270 -270 600 415.5" xml:space="preserve">
<g>
	<g>
		
			<rect x="268.273" y="-176.954" transform="matrix(0.9138 0.4061 -0.4061 0.9138 -38.9047 -122.4536)" fill="#C52F38" width="1.577" height="48.127"/>
		<g>
			<circle fill="#FFFFFF" cx="259.354" cy="-131.055" r="2.965"/>
			<path fill="#C52F38" d="M262.424-129.69c0.753-1.692-0.013-3.682-1.705-4.434c-1.691-0.752-3.681,0.013-4.434,1.705
				c-0.752,1.692,0.013,3.682,1.705,4.434S261.672-127.999,262.424-129.69C263.177-131.383,261.672-127.999,262.424-129.69z
				 M257.006-132.1c0.576-1.295,2.098-1.88,3.393-1.304c1.296,0.576,1.881,2.097,1.305,3.393c-0.575,1.295-2.098,1.88-3.393,1.304
				C257.016-129.282,256.43-130.804,257.006-132.1C257.582-133.395,256.43-130.804,257.006-132.1z"/>
		</g>
		<g>
			<circle fill="#FFFFFF" cx="278.769" cy="-174.726" r="2.965"/>
			<path fill="#C52F38" d="M281.838-173.361c-0.753,1.692-2.742,2.458-4.434,1.705c-1.692-0.752-2.458-2.742-1.705-4.434
				c0.752-1.692,2.741-2.458,4.434-1.705S282.59-175.054,281.838-173.361C281.085-171.669,282.59-175.054,281.838-173.361z
				 M276.42-175.77c-0.576,1.295,0.009,2.817,1.305,3.393c1.295,0.576,2.816-0.009,3.393-1.305c0.576-1.295-0.01-2.817-1.305-3.393
				C278.518-177.65,276.995-177.065,276.42-175.77C275.844-174.475,276.995-177.065,276.42-175.77z"/>
		</g>
	</g>
	<path fill="#FFFFFF" d="M255.23-137.514l6.637,12.551c0,0-3.746,2.037-3.943,1.971c-0.196-0.065-7.228-8.411-7.228-8.608
		C250.696-131.797,255.23-137.514,255.23-137.514z"/>
	<path fill="#222220" d="M111.679,122.288c-8.762,0-17.692-1.214-26.545-3.608c-1.224-0.296-12.086-2.948-13.687-4.283
		c-2.061-1.718-13.672-12.714-15.507-20.053l-1.071-2.123l-10.124-2.563l-8.466,1.589l-4.929-2.778l-18.475,0.256
		c-0.629,2.537-5.792,19.192-32.514,19.192c-26.32,0-30.093-12.567-30.56-14.854l-82.347-0.783
		c-1.301,2.617-13.916,26.056-47.682,26.678c-31.356,0.563-36.526-3.2-46.466-10.441c-1.439-1.049-2.927-2.133-4.625-3.298
		c-0.25-0.26-18.186-20.249-20.277-41.684c-2.22-22.747-0.385-41.353,5.166-52.39l5.692-11.319
		c0.317-1.632,5.043-25.63,9.502-32.997c4.145-6.849,6.647-9.116,7.117-9.509c0.677-1.417,8.16-17.029,10.664-19.918
		c2.667-3.077,40.072-21.612,41.729-22.376c2.501-1.154,9.331-5.961,9.4-6.01l0.099-0.051l4.333-1.485v-1.688
		c-2.052-0.013-10.839-0.349-16.16-4.96c-6.339-5.494,0.304-18.084,2.43-21.156c0.25-0.362,0.492-0.746,0.742-1.144
		c2.158-3.432,4.844-7.702,17.972-7.702l0.539,0.002c-0.011,0,0.444-0.015,1.149-0.015c4.888,0,7.667,0.561,8.263,1.667
		c0.882,1.638,0.753,12.726,0.711,15.301h0.047c1.475-2.154,16.438-23.745,37.648-44.832c0.101-0.097,9.708-9.28,16.116-12.941
		c6.547-3.741,26.612-11.76,32.04-13.052l5.438-1.295c0.715-0.542,6.721-4.954,14.043-6.071c2.181-0.333,5.201-0.501,8.976-0.501
		c8.177,0,17.119,0.787,19.071,1.438l2.694,0.898c1.719-0.049,33.751-0.941,63.642-0.941c11.887,0,21.986,0.141,30.018,0.417
		c32.234,1.111,49.71,2.59,51.516,2.748c0.951-0.725,6.838-5.036,11.592-4.557c0.63,0.063,1.815,0.105,3.456,0.164
		c10.686,0.381,43.203,1.54,65.053,15.11c0.149,0.094,3.609,2.278,4.556,3.362c0.775,0.885,1.036,1.696,1.115,2.023l5.029,4.513
		c0.057,0.029,11.221,7.019,16.324,12.646c4.277,4.715,20.16,35.022,26.14,46.432c1.078,2.057,1.83,3.492,2.091,3.968
		c3.03,0.935,16.134,5.095,16.676,7.298c0.869,3.537,5.678,25.125,6.056,35.599c0.392,10.803,0.004,17.063,0,17.125l2.758,23.716
		l0.781,3.508l0.01,7.171l1.964,2.357l0.007,0.13c0.023,0.417,2.34,41.937-0.002,63.017c-2.793,25.14-8.101,41.188-15.775,47.7
		l-0.11,0.094h-45.395l-0.117-0.126c-0.14-0.151-14.035-15.26-14.43-29.828l-0.999-8.351l-46.056,8.563
		c-0.389,0.703-1.355,2.275-2.229,2.275c-0.649,0-3.866,0.283-4.821,0.368c-0.88,3-8.436,27.826-19.163,34.011
		C148.111,115.049,133.229,122.287,111.679,122.288z M44.771,88.851l10.642,2.694l1.264,2.527
		c1.81,7.198,13.563,18.291,15.276,19.719c1.235,1.03,10.075,3.326,13.377,4.125c8.796,2.379,17.657,3.584,26.35,3.583
		c21.359,0,36.094-7.165,41.437-10.245c10.907-6.287,18.797-33.529,18.875-33.804l0.074-0.26l0.269-0.024
		c0.179-0.017,4.364-0.396,5.161-0.396c0.288,0,1.062-0.965,1.623-2.024l0.089-0.168l0.188-0.035l47.068-8.751l1.102,9.223
		c0.369,13.605,12.775,27.745,14.107,29.223h44.758c7.457-6.438,12.636-22.281,15.393-47.093
		c2.269-20.427,0.147-60.167,0.005-62.755l-1.979-2.375v-7.371l-0.778-3.462l-2.767-23.827c0.002-0.132,0.387-6.357-0.002-17.116
		c-0.377-10.408-5.168-31.915-6.034-35.439c-0.296-1.202-8.517-4.391-16.292-6.779l-0.147-0.045l-0.078-0.133
		c-0.162-0.279-0.923-1.729-2.182-4.131c-5.967-11.385-21.816-41.627-26.025-46.269c-5.03-5.545-16.102-12.478-16.213-12.547
		l-5.286-4.736l-0.021-0.142c-0.001-0.006-0.137-0.829-0.959-1.767c-0.871-0.997-4.345-3.19-4.38-3.212
		c-21.67-13.458-54.028-14.611-64.662-14.99c-1.656-0.059-2.853-0.102-3.507-0.167c-4.792-0.469-11.09,4.441-11.15,4.489
		l-0.124,0.097l-0.156-0.014c-0.173-0.016-17.731-1.59-51.626-2.758c-8.022-0.277-18.112-0.417-29.99-0.417
		c-30.56,0-63.361,0.934-63.689,0.943l-0.07,0.002l-2.826-0.942c-1.886-0.629-10.941-1.397-18.822-1.397
		c-3.683,0-6.745,0.17-8.856,0.492c-7.555,1.153-13.685,5.918-13.746,5.966l-0.152,0.074l-5.52,1.314
		c-5.391,1.283-25.324,9.251-31.831,12.969c-6.325,3.614-15.861,12.729-15.957,12.821c-22.184,22.054-37.512,44.656-37.664,44.882
		l-0.117,0.174h-1.269l0.008-0.402c0.104-5.505,0.029-14.126-0.61-15.313c-0.409-0.761-3.38-1.252-7.568-1.252
		c-0.691,0-1.137,0.014-1.14,0.014l-0.548-0.002c-12.692,0-15.25,4.066-17.304,7.333c-0.256,0.408-0.504,0.802-0.761,1.173
		c-1.917,2.769-8.399,15.052-2.562,20.111c5.236,4.538,14.063,4.768,15.778,4.768l0.653-0.012l0,3.052l-4.813,1.649
		c-0.657,0.462-6.994,4.902-9.478,6.049c-2.823,1.303-39.006,19.343-41.463,22.177c-2.499,2.883-10.506,19.652-10.586,19.821
		l-0.115,0.143c-0.025,0.02-2.579,2.048-7,9.355c-4.446,7.345-9.364,32.538-9.413,32.792l-0.035,0.102l-5.717,11.368
		c-5.484,10.906-7.291,29.358-5.084,51.959c2.066,21.178,19.828,40.972,20.007,41.17c1.638,1.111,3.13,2.198,4.574,3.25
		c9.801,7.141,14.926,10.872,45.987,10.29c35.067-0.646,46.975-26.189,47.091-26.447l0.105-0.234l0.258,0.002l83.278,0.793
		l0.036,0.352c0.015,0.145,1.796,14.494,29.835,14.494c28.091,0,31.776-18.674,31.81-18.862l0.058-0.32l19.323-0.268l4.864,2.741
		L44.771,88.851z"/>
	<path fill="#222220" d="M101.256-98.144c-21.291,0-55.516-0.888-101.722-2.638c-0.22-0.001-23.633-0.108-50.524-0.108
		c-51.343,0-80.122,0.375-83.225,1.084c-2.087,0.477-4.012,0.719-5.721,0.719c-3.472,0-5.539-1-6.792-1.751l-0.364-0.218
		l0.244-0.347c0.355-0.505,35.794-50.708,59.043-66.533l0.122-0.055c0.295-0.077,31.755-8.093,100.445-7.307
		c69.682,0.791,124.388,4.293,133.036,8.516l0.294,0.144l-0.087,0.316c-1.515,5.494-14.824,53.716-15.625,54.917
		c-0.238,0.358-0.829,1.709-1.512,3.274c-1.945,4.453-3.642,8.194-4.719,8.867C122.959-98.521,115.257-98.144,101.256-98.144z
		 M-50.991-101.678c26.893,0,50.308,0.107,50.542,0.109c46.21,1.75,80.424,2.637,101.705,2.637c19.368,0,22.1-0.766,22.475-1
		c0.957-0.598,3.121-5.553,4.414-8.514c0.755-1.73,1.301-2.979,1.578-3.396c0.712-1.277,11.294-39.359,15.433-54.366
		c-9.356-4.053-64.687-7.532-132.403-8.301c-67.057-0.761-98.539,6.856-100.172,7.265c-22.106,15.09-55.324,61.424-58.536,65.944
		c1.261,0.704,3.078,1.425,6.018,1.425c1.65,0,3.516-0.235,5.545-0.699C-130.4-101.487-86.834-101.678-50.991-101.678z"/>
	<path fill="#222220" d="M-184.598-25.364c-0.313,0-0.699-0.037-1.218-0.117c-3.244-0.5-28.653-4.966-33.647-7.801
		c-4.783-2.715-4.363-6.407-4.275-6.936l-0.052-0.728l0.06-0.104c0.103-0.179,10.277-17.912,11.326-20.456l0.146-0.353l0.358,0.134
		c0.008,0.003,1.126,0.395,5.828,1.03c4.838,0.654,16.77,4.2,17.276,4.35l0.208,0.062l0.059,0.21
		c0.204,0.731,5.01,17.987,5.14,23.752c0.034,1.505,0.148,2.683,0.239,3.63c0.149,1.547,0.232,2.399-0.236,2.914
		C-183.722-25.407-184.238-25.364-184.598-25.364z M-222.987-40.761l0.042,0.59l-0.011,0.054c-0.029,0.145-0.652,3.577,3.882,6.15
		c4.589,2.604,28.582,6.968,33.378,7.707c1.057,0.162,1.554,0.144,1.726-0.046c0.233-0.257,0.15-1.117,0.035-2.308
		c-0.093-0.959-0.208-2.153-0.243-3.688c-0.121-5.331-4.495-21.325-5.053-23.348c-1.645-0.485-12.515-3.663-16.947-4.263
		c-3.467-0.468-5.02-0.807-5.64-0.968C-213.375-57.532-222.094-42.317-222.987-40.761z"/>
	<path fill="#222220" d="M-174.598,42.905c-7.156,0-47.004-2.087-50.802-2.944c-3.752-0.848-3.996-4.651-4.482-12.231
		c-0.083-1.31-0.175-2.737-0.293-4.288c-0.781-10.292-0.008-22.148,0-22.267l0.028-0.419l51.013,6.659l0.068,0.254
		c0.768,2.857,7.503,27.944,7.503,29.016c0,1.326-0.134,5.691-1.867,6.162C-173.54,42.877-173.757,42.905-174.598,42.905z
		 M-229.415,1.647c-0.128,2.195-0.668,12.591,0.025,21.735c0.118,1.554,0.21,2.984,0.294,4.297
		c0.475,7.412,0.691,10.795,3.869,11.512c3.773,0.852,43.489,2.925,50.628,2.925c0.781,0,0.942-0.025,0.966-0.031
		c0.831-0.226,1.281-2.95,1.281-5.399c-0.043-0.886-4.428-17.464-7.409-28.557L-229.415,1.647z"/>
	<path fill="#222220" d="M69.981,91.155c-1.509,0-2.852-0.114-3.883-0.332c-1.895-0.399-2.306-0.661-2.984-1.168
		c-0.591-0.442-1.401-1.048-4.182-2.191c-1.644-0.676-7.114-1.019-16.261-1.019c-10.923,0-24.866,0.497-33.196,0.795
		c-3.905,0.14-6.727,0.24-7.758,0.24c-0.46,0-0.929,0.003-1.406,0.007c-4.586,0.04-10.08,0.112-16.315-3.006
		c-5.258-2.629-18.746-17.544-25.227-24.712c-1.826-2.019-3.145-3.478-3.437-3.728c-1.162-0.996-2.474-2.281-2.864-2.667
		c-4.55-0.035-99.874-0.787-102.74-0.787c-2.75,0-4.632,1.837-4.65,1.855c-6.599,4.281-19.898,31.359-20.032,31.632l-0.108,0.222
		l-34.686-0.025c-0.079-0.029-7.992-3.005-15.995-6.713c-8.526-3.951-11.176-10.92-14.811-29.854
		c-3.715-19.353-0.042-50.474-0.004-50.786l1.311-6.169c0.202-0.833,4.918-20.2,7.581-25.165c2.663-4.964,7.525-10.231,7.574-10.284
		l0.489-0.527l0.619,2.369l-0.024,0.097c-1.108,4.529,4.732,7.18,4.792,7.206c5.625,2.158,14.365,3.819,20.748,5.033
		c2.928,0.557,5.241,0.997,6.395,1.329c2.327,0.67,4.87,0.97,6.358,0.97c0.493,0,0.759-0.034,0.895-0.061
		c-0.015-0.624-0.136-2.365-0.225-3.522c0.384-2.382-1.356-10.399-1.374-10.48l-1.549-6.735l16.45,3.76l0.501-0.559
		c4.785-7.134,17.257-7.692,20.965-7.692c0.574,0,0.898,0.014,0.898,0.014c5.6-0.352,13.576-0.531,23.665-0.531
		c27.775,0,64.942,1.321,84.625,2.108c19.045,0.762,25.188,4.01,26.989,6.6c0.502,0.723,0.627,1.351,0.637,1.772
		c4.198-0.385,30.39-3.215,30.667-3.246l0.825-0.089l-0.452,0.696C14.51-37.569,7.697-26.601,7.697-25.345
		c0,0.138,0,0.558,0.976,0.845c1.288,0.378,3.047,0.208,3.064,0.208c43.302-3.28,76.842-8.456,80.073-9.574
		c3.203-1.108,5.128-6.281,5.147-6.333l0.199-0.543l8.58,7.612c0.878,0.666,3.396,2.511,4.214,2.817
		c0.21,0.079,0.44,0.117,0.732,0.165c1.055,0.174,2.648,0.437,6.44,2.896c4.886,3.169,9.651,11.351,9.853,11.698l0.151,0.262
		l-2.054,2.055c-10.744,15.19-20.788,60.889-24.569,78.093c-0.43,1.953-0.771,3.511-1.019,4.578
		c-2.407,10.432-3.501,12.652-11.825,17.21C80.224,90.716,72.819,91.155,69.981,91.155z M42.672,85.656
		c9.38,0,14.797,0.354,16.562,1.079c2.872,1.181,3.764,1.848,4.354,2.288c0.576,0.431,0.865,0.647,2.674,1.028
		c0.979,0.206,2.266,0.315,3.721,0.315c2.777,0,10.022-0.431,17.3-4.416c8.09-4.43,9.061-6.404,11.437-16.696
		c0.245-1.065,0.587-2.62,1.016-4.57c3.791-17.246,13.859-63.058,24.738-78.429l1.667-1.675c-0.861-1.433-5.192-8.414-9.445-11.172
		c-3.653-2.37-5.149-2.616-6.14-2.779c-0.32-0.053-0.598-0.099-0.88-0.205c-1.093-0.41-4.302-2.843-4.438-2.947l-7.752-6.875
		c-0.607,1.425-2.479,5.26-5.417,6.276c-3.359,1.163-36.176,6.274-80.266,9.614l0,0c0.001,0-1.897,0.19-3.351-0.237
		c-1.274-0.375-1.542-1.078-1.542-1.602c0-1.747,8.504-15.043,10.784-18.576c-4.846,0.523-28.546,3.079-30.339,3.199l-0.583,0.039
		l0.182-0.555c0.006-0.022,0.193-0.707-0.511-1.686c-1.428-1.982-6.748-5.426-26.335-6.209c-19.677-0.787-56.833-2.107-84.594-2.107
		c-10.073,0-18.033,0.178-23.657,0.53c0,0,0,0-0.001,0c-0.049,0-0.361-0.013-0.905-0.013c-3.609,0-15.743,0.533-20.345,7.387
		l-0.845,0.948l-15.677-3.583l1.268,5.514c0.074,0.34,1.791,8.252,1.387,10.687c0.03,0.247,0.258,3.254,0.229,3.728
		c-0.031,0.508-0.667,0.61-1.681,0.61c-1.544,0-4.176-0.31-6.577-1.001c-1.119-0.322-3.416-0.759-6.324-1.312
		c-6.412-1.219-15.193-2.889-20.901-5.079c-0.083-0.036-6.441-2.914-5.28-8.023l-0.202-0.774c-1.291,1.457-4.85,5.624-6.972,9.581
		c-2.616,4.876-7.459,24.767-7.507,24.967l-1.302,6.123c-0.032,0.276-3.69,31.277,0.001,50.508
		c3.832,19.963,6.652,25.711,14.368,29.287c7.585,3.514,15.091,6.368,15.874,6.664h33.983c1.378-2.798,13.667-27.485,20.139-31.675
		c0.021-0.033,2.058-2.034,5.143-2.034c2.925,0,101.907,0.781,102.906,0.789l0.162,0.002l0.114,0.113
		c0.016,0.016,1.583,1.58,2.935,2.74c0.33,0.282,1.526,1.605,3.508,3.797c6.45,7.133,19.87,21.974,24.995,24.536
		c6.074,3.037,11.46,2.958,15.957,2.922c0.479-0.003,0.95-0.007,1.412-0.007c1.017,0,3.833-0.101,7.729-0.239
		C17.783,86.154,31.734,85.656,42.672,85.656z"/>
	<path fill="#222220" d="M11.981-23.517c-3.822,0-4.674-0.556-4.989-1.04c-0.128-0.196-0.24-0.52-0.05-0.949
		c1.316-2.974,12.184-19.839,12.646-20.556c0.534-0.849,5.315-8.328,7.954-8.328c0.525,0,2.371-0.246,5.163-0.619
		c9.534-1.271,31.859-4.248,54.912-4.248l1.169,0.003c0.012-0.002,1.02-0.075,2.467-0.075c4.036,0,9.045,0.537,9.992,3.093
		c1.351,3.646-3.702,16.634-3.918,17.185c-0.104,0.232-2.403,5.269-5.301,5.941c-2.742,0.635-41.404,6.312-67.342,8.55
		C24.629-24.55,17.106-23.517,11.981-23.517z M87.617-58.466c-23.001,0-45.29,2.972-54.808,4.241
		c-2.925,0.39-4.69,0.625-5.268,0.625c-1.66,0-5.352,4.885-7.289,7.963c-0.115,0.179-11.298,17.534-12.59,20.452
		c-0.056,0.127-0.027,0.172-0.01,0.199c0.104,0.16,0.724,0.681,4.328,0.681c5.07,0,12.54-1.026,12.615-1.036
		c25.928-2.238,64.518-7.902,67.252-8.536c2.521-0.584,4.729-5.429,4.752-5.478c0.044-0.114,5.152-13.238,3.904-16.605
		c-0.606-1.639-3.979-2.578-9.252-2.578c-1.416,0-2.43,0.073-2.44,0.073L87.617-58.466z"/>
	<path fill="#222220" d="M-49.744,38.351c-22.61,0-96.479-0.77-101.859-1.008c-6.088-0.271-7.9-5.053-9.356-8.894l-0.063-0.166
		c-1.455-3.836-5.393-33.293-7.383-53.326c-1.199-12.071,0.647-16.922,2.408-18.866c0.978-1.08,1.916-1.25,2.224-1.275
		c5.097-2.384,13.815-3.177,20.827-3.814c2.358-0.214,9.427-0.337,19.395-0.337c19.581,0,49.559,0.47,72.391,1.52
		c31.474,1.446,33.259,3.265,34.985,5.023c0.152,0.154,0.303,0.309,0.478,0.461c1.699,1.487,0.607,5.203-0.448,8.797
		c-0.403,1.37-0.783,2.665-1.001,3.796c-0.819,4.235-19.074,63.054-19.87,64.874c-0.809,1.848-3.274,2.48-4.748,2.858
		c-0.356,0.092-0.658,0.168-0.864,0.245C-42.757,38.286-42.93,38.351-49.744,38.351z M-163.685-44.401
		c-0.028,0-0.827,0.018-1.74,1.033c-1.647,1.832-3.365,6.484-2.197,18.247c1.986,19.987,5.9,49.339,7.336,53.125l0.063,0.166
		c1.446,3.814,3.085,8.138,8.654,8.387c4.773,0.211,77.4,1.006,101.824,1.006c5.613,0,6.721-0.047,6.881-0.074
		c0.181-0.072,0.511-0.157,0.901-0.258c1.333-0.343,3.566-0.915,4.221-2.411c0.793-1.814,19.001-60.483,19.818-64.707
		c0.226-1.168,0.611-2.48,1.019-3.869c0.94-3.2,2.005-6.827,0.686-7.981c-0.19-0.167-0.355-0.334-0.521-0.503
		c-1.543-1.573-3.293-3.356-34.458-4.788c-22.819-1.049-52.783-1.519-72.355-1.519c-9.945,0-16.988,0.122-19.324,0.334
		c-6.982,0.635-15.671,1.425-20.631,3.775l-0.084,0.04L-163.685-44.401z"/>
	<path fill="#222220" d="M-48.289,9.481h-98.667l2.076-23.409l0.362,0.001l96.23,0.278V9.481z M-146.095,8.693h97.018v-21.555
		l-95.082-0.275L-146.095,8.693z"/>
	<path fill="#222220" d="M-21.356-15.2l-0.301-0.014c-33.056-1.586-66.989-2.391-100.856-2.391c-27.384,0-44.516,0.555-44.685,0.56
		l-0.357,0.012l-0.047-0.354c-0.071-0.529-1.723-13.011-1.187-18.771c0.471-5.053,1.305-5.787,3.534-7.748
		c0.389-0.342,0.823-0.724,1.308-1.177c2.958-2.764,11.229-3.108,31.211-3.939c2.313-0.096,4.783-0.199,7.416-0.313
		c3.144-0.136,7.073-0.205,11.679-0.205c29.717,0,79.69,2.793,88.228,3.647c10.015,1.001,10.501,3.093,10.539,7.011
		c0.036,3.575-6.127,22.588-6.389,23.396L-21.356-15.2z M-122.513-18.394c33.776,0,67.62,0.8,100.593,2.377
		c0.786-2.44,6.29-19.641,6.258-22.858c-0.033-3.39-0.051-5.257-9.829-6.235c-8.529-0.854-58.455-3.643-88.149-3.643
		c-4.595,0-8.512,0.069-11.645,0.205c-2.634,0.114-5.104,0.216-7.417,0.313c-19.199,0.799-27.961,1.164-30.706,3.728
		c-0.491,0.459-0.931,0.846-1.325,1.193c-2.115,1.861-2.828,2.488-3.27,7.229c-0.479,5.141,0.868,16.132,1.137,18.241
		C-164.267-17.923-147.735-18.394-122.513-18.394z"/>
	<path fill="#222220" d="M-43.619,38.35h-0.004c-4.289,0-103.582-0.917-104.584-0.926c0.029,0-0.635,0.089-1.642,0.089
		c-2.749,0-7.616-0.652-9.332-5.019c-2.271-5.784-4.932-22.02-5.044-22.708l-0.077-0.471l0.477,0.013
		c0.384,0.011,38.781,1.073,66.22,1.073h68.426l-7.87,24.788C-37.13,35.318-39.121,38.349-43.619,38.35z M-148.257,36.639
		c1.059,0.006,100.348,0.922,104.634,0.922l0.004,0.395v-0.395c3.806,0,5.643-2.421,5.88-2.758l7.483-23.613h-67.349
		c-25.787,0-61.242-0.938-65.764-1.06c0.464,2.765,2.894,16.913,4.922,22.076c1.544,3.932,6.049,4.519,8.597,4.519
		C-148.9,36.724-148.263,36.64-148.257,36.639z"/>
	<path fill="#222220" d="M-181.2,75.464l-0.234-0.01l-30.884-1.182c-0.554-0.125-11.765-2.92-13.902-11.138
		c-2.07-7.959-3.649-11.939-3.665-11.979l-0.237-0.594l56.457,4.817v7.436l-0.055,0.094L-181.2,75.464z M-228.929,51.456
		c0.51,1.387,1.841,5.212,3.471,11.479c2.018,7.759,13.135,10.533,13.248,10.561l30.572,1.161l7.184-12.059v-6.494L-228.929,51.456z
		"/>
	<path fill="#222220" d="M-211.439,74.329C-211.439,74.329-211.439,74.329-211.439,74.329c-0.555,0-1.119-0.09-1.677-0.268
		c-2.523-0.805-6.288-2.742-8.757-4.507c-2.448-1.748-4.708-7.772-5.254-9.77c-0.604-2.209-2.744-8.586-2.766-8.649l-0.191-0.57
		l25.084,2.141l0.104,0.114c0.078,0.086,1.912,2.148,2.447,6.818c0.553,4.842-4.755,12.568-4.81,12.64
		C-207.982,73.225-209.511,74.329-211.439,74.329z M-228.955,51.453c0.542,1.626,2.086,6.288,2.589,8.125
		c0.666,2.435,2.871,7.85,4.951,9.335c2.412,1.724,6.082,3.613,8.538,4.396c0.481,0.153,0.964,0.231,1.437,0.231h0
		c1.641,0,2.94-0.938,3.555-1.741c0.052-0.068,5.174-7.507,4.653-12.071c-0.438-3.825-1.788-5.792-2.154-6.264L-228.955,51.453z"/>
	<path fill="#222220" d="M-213.844,67.882c-4.289,0-9.278-3.835-10.416-14.597l-0.05-0.475l16.155,1.381l0.052,0.299
		c0.072,0.408,1.708,10.021-2.419,12.498C-211.497,67.573-212.645,67.882-213.844,67.882z M-223.423,53.678
		c1.173,9.88,5.694,13.415,9.579,13.415c1.056,0,2.064-0.27,2.916-0.78c3.295-1.979,2.336-9.761,2.096-11.388L-223.423,53.678z"/>
	<path fill="#222220" d="M-14.92,45.816c-0.001,0-0.001,0-0.002,0c-3.224,0-3.4-0.048-3.505-0.077
		c-1.685-0.459-1.793-2.916-1.333-5.063c0.389-1.815,10.483-32.481,11.16-34.54c0.011-0.379,0.298-1.412,2.916-2.159
		c2.771-0.792,80.876-4.838,84.199-5.01l0.185-0.01l0.125,0.135c0.141,0.152,3.462,3.737,4.138,5.086
		c0.669,1.338-5.642,28.005-7.592,36.146c-0.115,0.553-0.769,3.388-2.099,3.831C72.079,44.555,0.822,45.816-14.92,45.816z
		 M78.37-0.235C50.197,1.222-3.325,4.123-5.469,4.736c-2.296,0.656-2.343,1.43-2.343,1.438l0.011,0.088l-0.03,0.058
		c-0.108,0.327-10.774,32.725-11.16,34.523c-0.396,1.846-0.312,3.841,0.77,4.136c0.073,0.013,0.57,0.05,3.297,0.05
		c16.429,0,86.31-1.292,87.968-1.626c0.642-0.216,1.3-2.03,1.555-3.248c3.253-13.582,7.97-34.272,7.643-35.655
		C81.698,3.418,78.986,0.437,78.37-0.235z"/>
	<path fill="#222220" d="M5.975,79.117c-9.164,0-9.696-0.168-9.896-0.231c-2.198-0.692-15.795-11.488-17.01-15.031
		c-0.299-0.874-0.602-1.612-0.869-2.263c-0.758-1.85-1.306-3.187,0.304-3.849l0.141-0.03l94.084-2.16
		c0.044-0.209,0.14-0.354,0.39-0.354h0.168l0.117,0.122c0.136,0.142,0.136,0.142,0.07,1.72c-0.106,2.526-5.367,14.187-9.714,17.544
		c-3.796,2.933-6.821,3.289-9.252,3.575c-0.407,0.048-0.801,0.094-1.183,0.15C51.29,78.611,21.641,79.117,5.975,79.117z
		 M-21.262,58.5c-0.741,0.331-0.629,0.794,0.19,2.792c0.271,0.661,0.579,1.411,0.886,2.307c1.154,3.365,14.871,14.021,16.501,14.535
		c0.194,0.059,1.525,0.195,9.659,0.195c15.644,0,45.221-0.501,47.235-0.799c0.389-0.058,0.79-0.105,1.205-0.154
		c2.456-0.289,5.239-0.616,8.862-3.416c4.308-3.327,9.322-14.896,9.409-16.953c0.011-0.271,0.02-0.489,0.025-0.665L-21.262,58.5z"/>
	<path fill="#222220" d="M53.366,72.104c-3.805,0-6.899-3.095-6.899-6.898c0-3.805,3.095-6.9,6.899-6.9s6.9,3.096,6.9,6.9
		C60.267,69.009,57.171,72.104,53.366,72.104z M53.366,59.094c-3.369,0-6.11,2.741-6.11,6.111c0,3.369,2.741,6.109,6.11,6.109
		c3.37,0,6.111-2.74,6.111-6.109C59.478,61.835,56.736,59.094,53.366,59.094z"/>
	<path fill="#222220" d="M51.644,74.112c-0.001,0-0.001,0-0.002,0c-0.525,0-1.074-0.012-1.645-0.037
		C36.355,73.478,32.519,58.157,32.48,58.002l-0.112-0.471l28.825-0.91l0.114,0.224c0.102,0.199,2.496,4.916,2.994,7.799
		c0.172,0.997,0.367,3.561-1.531,5.813C60.728,72.883,56.983,74.112,51.644,74.112z M33.379,58.288
		c0.758,2.54,4.939,14.486,16.653,15c0.558,0.024,1.095,0.036,1.61,0.036c0,0,0,0,0.001,0c5.097,0,8.638-1.136,10.523-3.375
		c1.686-2,1.511-4.283,1.357-5.171c-0.418-2.422-2.325-6.376-2.809-7.353L33.379,58.288z"/>
	<path fill="#222220" d="M51.17,78.457L51.17,78.457c-0.242,0-0.377-0.004-0.377-0.004c-0.306-0.028-6.915-0.651-8.924-1.555
		c-2.251-1.012-8.324-4.956-12.164-9.485c-3.998-4.716-3.752-10.181-3.739-10.411l0.02-0.364l47.605-1.104l-1.522,5.977
		c-1.376,5.396-5.352,9.915-9.06,13.622C59.923,78.217,53.168,78.457,51.17,78.457z M50.843,77.666c0.022,0,0.141,0.002,0.327,0.002
		l0,0c1.368,0,8.336-0.149,11.282-3.094c3.632-3.632,7.523-8.047,8.853-13.26l1.265-4.969l-45.818,1.063
		c0.021,1.28,0.339,5.7,3.556,9.494c4.06,4.789,10.22,8.526,11.887,9.276c1.876,0.844,8.485,1.471,8.646,1.486
		C50.839,77.666,50.84,77.666,50.843,77.666z"/>
	<path fill="#222220" d="M171.891,77.989l0.091-0.503c2.952-16.303,2.05-29.521-0.792-49.682
		c-2.71-19.233-18.396-35.627-18.555-35.791l-0.081-0.084l-0.022-0.115c-0.01-0.047-0.933-4.744-2.606-8.863
		c-1.63-4.011-5.826-7.263-10.206-7.908c-0.114-0.017-0.233-0.025-0.354-0.025c-4.329,0-12.345,9.773-12.425,9.872l-0.341,0.418
		l-0.295-0.451c-7.334-11.23-10.629-12.416-11.869-12.862c-0.207-0.075-0.374-0.137-0.507-0.209
		c-0.478-0.258-1.424-0.573-2.426-0.906c-0.985-0.327-2.102-0.698-2.973-1.084c-1.775-0.788-11.072-9.21-11.467-9.568l-0.196-0.178
		l0.09-0.249c4.341-12.003,3.544-15.771,3.536-15.807l-0.089-0.379l0.378-0.096c20.869-5.136,57.754-10.727,58.124-10.783
		l65.091-8.335l0.021,0.426c0.014,0.272,1.323,27.284,2.103,35.07c0.773,7.745-3.157,53.198-3.411,56.108l2.492,7.52
		c0.002,0.028,0.13,2.892,0.001,13.296c-0.132,10.444-5.717,30.651-5.773,30.854l-0.065,0.237l-39.69,7.379l-1.988,2.251
		L171.891,77.989z M153.282-8.449c1.234,1.311,16.044,17.38,18.688,36.144c2.823,20.036,3.739,33.252,0.876,49.43l4.458-0.343
		l1.955-2.215l0.134-0.024l39.34-7.314c0.627-2.3,5.556-20.684,5.679-30.416c0.12-9.61,0.02-12.765,0.003-13.196l-2.506-7.516
		l0.007-0.082c0.042-0.482,4.193-48.285,3.418-56.043c-0.727-7.265-1.912-31.185-2.084-34.684l-64.236,8.226
		c-0.358,0.054-36.804,5.579-57.697,10.683c0.117,1.229,0.105,5.504-3.528,15.622c2.805,2.537,9.716,8.657,11.062,9.254
		c0.836,0.371,1.933,0.735,2.9,1.057c1.081,0.359,2.014,0.669,2.553,0.96c0.104,0.057,0.236,0.102,0.399,0.16
		c1.412,0.509,4.695,1.689,11.969,12.727c1.689-2.002,9.028-10.327,13.163-9.717c4.642,0.684,9.092,4.134,10.821,8.391
		C152.212-13.514,153.129-9.2,153.282-8.449z"/>
	<path fill="#222220" d="M100.322-55.565l0.171-0.631c0.008-0.034,0.101-0.484-0.285-0.973c-0.494-0.625-1.794-1.37-5.188-1.37
		l-0.253,0.001c-6.902,0.072-17.552,0-17.551,0l-0.57-0.004l0.205-0.532c0.075-0.195,1.996-4.816,15.426-9.161
		c5.198-1.682,11.426-3.504,17.447-5.267c8.159-2.388,17.407-5.095,18.057-5.852c1.129-1.317-0.136-6.289-1.527-11.268
		c-1.684-6.022-2.676-8.816-2.686-8.844l-0.06-0.166l4.275-7.92l0.327,0.132c0.651,0.263,15.971,6.468,18.551,8.576l0.154,0.125
		l-0.01,0.199c-0.004,0.08-0.359,8.068,1.867,10.48c1.937,2.098,5.894,2.973,6.98,3.179l1.919-3.837l5.296-1.426
		c0.395-0.034,32.025-2.19,36.086-3.157c4.046-0.963,7.757-2.903,7.794-2.923l0.092-0.048l7.044,0.207l10.336,21.216l-0.552,0.064
		c-0.643,0.075-64.531,7.541-89.764,12.413c-25.233,4.872-32.867,6.62-32.941,6.637L100.322-55.565z M95.021-59.328
		c3.005,0,4.966,0.572,5.829,1.699c0.286,0.374,0.396,0.743,0.432,1.036c2.039-0.452,10.725-2.333,32.474-6.532
		c24.007-4.635,82.924-11.611,89.271-12.356l-9.641-19.788l-6.362-0.188c-0.61,0.311-4.104,2.044-7.885,2.944
		c-4.124,0.982-34.834,3.075-36.14,3.164l-4.878,1.321l-2.021,4.042l-0.283-0.044c-0.215-0.033-5.29-0.839-7.722-3.473
		c-2.263-2.452-2.129-9.518-2.083-10.848c-2.675-1.973-15.635-7.294-17.868-8.204l-3.773,6.991c0.236,0.687,1.183,3.5,2.645,8.73
		c1.899,6.795,2.632,10.516,1.366,11.993c-0.765,0.891-7.173,2.799-18.434,6.095c-6.017,1.761-12.238,3.582-17.427,5.26
		c-10.339,3.345-13.671,6.852-14.607,8.163c2.464,0.016,11,0.058,16.848-0.004L95.021-59.328z"/>
	<path fill="#222220" d="M31.63-72.277l-0.233-0.753l69.626-23.414h15.831L31.63-72.277z M101.151-95.656L47.188-77.509
		l63.993-18.147H101.151z"/>
	<path fill="#222220" d="M292.139-90.516l-0.711-0.304c-1.121-0.479-10.974-4.696-11.578-5.099
		c-0.528-0.281-6.842-1.519-10.694-2.231l-0.508-0.094l0.224-0.465c0.384-0.797,0.873-2.121,0.761-2.568
		c-0.198-0.795-2.206-6.364-5.687-13.324c-3.552-7.105-13.367-24.974-18.105-31.687c-3.919-5.552-15.626-11.06-19.152-12.63
		c1.143,2.234,4.17,8.338,8.993,19.341c6.246,14.25,13.938,40.665,14.015,40.93l0.146,0.504h-9.099l-0.003-1.651
		c0.074-1.34-1.717-8.148-4.196-17.571c-0.735-2.794-1.54-5.855-2.395-9.14c-3.654-14.056-15.434-33.841-16.359-35.383
		c-2.021-0.938-21.567-4.832-29.23-6.31l-0.906,0.465c2.394,4.948,15.339,40.995,15.905,42.573l0.646,1.8l-1.306-1.397
		c-0.94-1.007-6.736-2.011-10.403-2.44l-0.349-0.041v-2.267c-5.287-18.499-11.866-38.335-13.656-38.697
		c-0.072-0.01-0.152-0.014-0.239-0.014c-3.129,0-13.489,5.453-14.261,5.862c-12.722,11.851-17.142,63.333-17.186,63.852l-0.05,0.605
		l-5.212-2.865l0.031-0.264c0.009-0.077,0.903-7.772,1.487-16.142c0.603-8.638,7.96-38.058,12.279-45.125
		c2.993-4.898,8.564-14.015,25.688-14.015c3.23,0,6.794,0.325,10.593,0.965c24.112,4.063,49.45,17.61,52.585,20.328
		c3.031,2.63,8.001,11.321,8.211,11.69l21.941,40.64c14.534,4.491,16.529,7.051,16.607,7.159l0.066,0.145L292.139-90.516z
		 M269.794-98.834c2.859,0.533,9.919,1.875,10.493,2.258c0.409,0.269,6.398,2.866,10.74,4.727l-0.741-3.263
		c-0.359-0.361-3.163-2.819-16.313-6.87l-0.154-0.048l-0.076-0.142l-22.014-40.774c-0.047-0.082-5.108-8.936-8.038-11.477
		c-3.103-2.69-28.232-16.107-52.199-20.146c-3.756-0.633-7.275-0.954-10.462-0.954c-16.681,0-22.103,8.872-25.016,13.638
		c-4.276,6.998-11.566,36.188-12.164,44.768c-0.525,7.517-1.299,14.491-1.461,15.916l3.684,2.025
		c0.548-6.141,5.053-52.364,17.421-63.795l0.082-0.058c0.458-0.244,11.247-5.979,14.677-5.979c0.124,0,0.239,0.007,0.345,0.021
		c3.059,0.408,12.469,32.821,14.324,39.314l0.016,0.108v1.622c1.58,0.196,7.029,0.928,9.505,2.003
		c-2.269-6.304-14.086-39.055-15.661-41.77l-0.209-0.359l1.871-0.959l0.133,0.026c1.134,0.219,27.784,5.366,29.692,6.47l0.14,0.137
		c0.127,0.208,12.691,21.017,16.506,35.688c0.854,3.284,1.658,6.344,2.394,9.138c2.683,10.197,4.302,16.352,4.222,17.793
		l0.002,0.842h7.26c-1.098-3.732-8.083-27.216-13.832-40.329c-6.226-14.205-9.449-20.217-9.48-20.276l-0.527-0.979l1.025,0.428
		c0.642,0.267,15.767,6.626,20.509,13.344c4.759,6.743,14.605,24.667,18.166,31.79c3.562,7.122,5.535,12.641,5.747,13.485
		C270.566-100.792,270.1-99.543,269.794-98.834z"/>
	<path fill="#222220" d="M156.106-84l-0.271-0.027c-0.072-0.007-7.337-0.811-9.284-7.038c-1.901-6.075,1.141-22.171,1.271-22.854
		l2.535-15.335l5.438,23.544h4.122c0.717-2.445,5.565-18.544,9.399-20.27c3.112-1.401,10.423-2.498,16.646-2.498
		c2.507,0,4.743,0.167,6.648,0.497c2.14,0.371,3.785,0.608,5.106,0.799c3.297,0.476,4.53,0.654,5.75,1.873
		c1.488,1.489,6.813,9.307,7.016,17.42c0.197,7.939-3.102,12.109-3.242,12.283l-0.137,0.107c-0.22,0.106-5.428,2.592-7.995,2.991
		c-0.825,0.128-3.926,0.331-8.218,0.612c-8.933,0.585-22.431,1.469-26.68,2.457l-6.094,1.417L156.106-84z M150.485-125.194
		l-1.888,11.414c-0.033,0.175-3.137,16.593-1.295,22.48c1.587,5.074,7.071,6.245,8.347,6.451l1.928-3.854l6.455-1.5
		c4.311-1.002,17.848-1.89,26.806-2.476c4.111-0.27,7.358-0.482,8.148-0.605c2.28-0.354,6.998-2.555,7.69-2.882
		c0.414-0.562,3.192-4.603,3.016-11.7c-0.196-7.874-5.345-15.442-6.784-16.882c-1.034-1.034-2.11-1.189-5.305-1.65
		c-1.327-0.191-2.979-0.43-5.129-0.802c-1.86-0.322-4.052-0.486-6.514-0.486c-6.84,0-13.67,1.235-16.321,2.428
		c-3.098,1.394-7.582,14.948-9.049,20.054l-0.082,0.285h-5.342L150.485-125.194z"/>
	<path fill="#222220" d="M155.855-84.025c-0.366,0-8.981-0.108-9.775-9.495c-0.779-9.214,3.76-32.781,3.954-33.78l0.354-1.823
		l5.589,24.201h-1.659c-0.057,0.067-0.13,0.185-0.142,0.354c-0.019,0.274,0.114,0.751,0.855,1.465
		c1.725,1.66,11.217,7.69,13.757,8.863c0.394,0.182,1.733,0.486,6.287,0.486c7.372,0,17.862-0.758,22.667-1.438
		c7.28-1.031,9.524-1.727,9.547-1.734l1.292-0.409l-1.832,2.11c-0.238,0.095-5.855,2.331-6.748,2.524
		c-0.291,0.063-2.909,0.274-8.331,0.707c-9.376,0.748-25.069,2-27.46,2.556l-6.094,1.417l-1.996,3.991L155.855-84.025z
		 M150.462-125.295c-1.075,5.868-4.241,24.086-3.597,31.709c0.675,7.975,7.426,8.701,8.77,8.766l1.942-3.884l6.455-1.5
		c2.447-0.57,17.568-1.776,27.575-2.575c4.258-0.34,7.935-0.633,8.228-0.692c0.644-0.139,4.479-1.635,6.285-2.351
		c-1.385,0.307-3.936,0.798-8.267,1.411c-4.831,0.685-15.374,1.447-22.778,1.447c-3.588,0-5.814-0.188-6.617-0.559
		c-2.648-1.222-12.163-7.267-13.974-9.01c-0.783-0.755-1.151-1.467-1.093-2.118c0.058-0.643,0.505-0.958,0.556-0.992l0.1-0.066
		h0.938L150.462-125.295z"/>
	<path fill="#222220" d="M207.622-100.519h-26.81c-0.598,0-1.084-0.486-1.084-1.084s0.486-1.084,1.084-1.084h26.81
		c0.598,0,1.085,0.486,1.085,1.084S208.22-100.519,207.622-100.519z M180.813-101.898c-0.163,0-0.295,0.133-0.295,0.296
		s0.132,0.296,0.295,0.296h26.81c0.163,0,0.296-0.133,0.296-0.296s-0.133-0.296-0.296-0.296H180.813z"/>
	<path fill="#222220" d="M218.511,68.071l0.155-0.6c0.054-0.206,5.331-20.601,5.555-27.281c0.215-6.436,0.194-15.725,0.191-16.583
		l-2.504-7.51l0.008-0.084c0.042-0.413,4.143-41.474,3.509-52.243c-0.619-10.513-2.099-37.161-2.191-38.823l-10.199-20.937
		l28.062-2.94l28.131-0.002l12.337,2.933l0.084,0.152c0.195,0.353,4.79,8.709,5.449,14.224c0.654,5.475-0.728,26.876-0.786,27.784
		l-0.042,0.641l-0.553-0.328c-0.018-0.01-1.771-1.032-4.094-1.032c-2.515,0-4.725,1.157-6.569,3.438
		c-4.743,5.866-12.134,18.42-13.057,28.962c-0.876,10.027-3.217,28.886-3.406,30.408l2.373,6.326l-2.37,10.927l2.893,10.519
		l-0.023,0.099c-0.188,0.786-4.646,19.302-7.158,22.869c-2.563,3.645-27.081,7.493-28.123,7.655L218.511,68.071z M222.709,16.008
		l2.492,7.534c0,0.099,0.032,9.942-0.192,16.674c-0.208,6.197-4.529,23.355-5.425,26.854l6.464-1.201
		c7.021-1.092,25.642-4.532,27.611-7.331c2.335-3.316,6.651-21.014,7.012-22.501l-2.891-10.51l2.362-10.89l-2.359-6.291l0.012-0.096
		c0.025-0.2,2.508-20.089,3.416-30.475c0.938-10.718,8.425-23.448,13.229-29.39c2.002-2.476,4.419-3.731,7.183-3.731
		c1.757,0,3.192,0.521,3.939,0.86c0.223-3.575,1.338-22.143,0.752-27.043c-0.593-4.965-4.641-12.613-5.273-13.784l-11.905-2.841
		l-27.998,0.011l-26.901,2.821l9.781,20.146c0.016,0.28,1.56,28.102,2.195,38.9C226.835-25.68,222.919,13.905,222.709,16.008z"/>
	<path fill="#222220" d="M261.109,37.632l-3.329-12.105l2.362-10.889l-2.358-6.289l3.869-33.704
		c0.063-0.231,4.954-16.583,11.096-24.04c3.283-3.986,6.334-5.924,9.328-5.924c1.596,0,2.925,0.557,4.015,1.102l0.108,0.079
		c0.034,0.036,3.465,3.607,5.948,7.007c2.601,3.557,6.744,13.819,6.564,18.463c-0.176,4.542,1.714,12.331,1.732,12.409l0.191,8.187
		l-1.899,5.913l-0.073-2.278c-0.001-0.044-0.18-4.43-3.741-9.646l-0.097-0.141l0.3-1.346c-0.009-0.009,0.032-9.126-3.139-12.325
		c-0.88-0.886-1.878-1.219-3.112-1.004c-6.591,1.141-14.401,13.89-17.561,25.083c-3.116,11.035-9.785,39.647-9.853,39.936
		L261.109,37.632z M258.593,25.504l2.454,8.927c1.426-6.08,6.803-28.878,9.508-38.461c3.225-11.423,11.302-24.455,18.186-25.646
		c1.46-0.253,2.753,0.163,3.808,1.227c3.401,3.432,3.36,12.581,3.357,12.969l-0.236,1.094c2.275,3.378,3.184,6.369,3.546,8.165
		l0.631-1.965l-0.178-7.969c-0.067-0.238-1.923-7.889-1.742-12.542c0.174-4.503-3.875-14.494-6.414-17.968
		c-2.295-3.142-5.415-6.438-5.833-6.876c-1.043-0.518-2.201-0.988-3.602-0.988c-2.743,0-5.596,1.844-8.719,5.636
		c-6.042,7.334-10.888,23.533-10.936,23.695L258.589,8.25l2.374,6.328L258.593,25.504z"/>
	<path fill="#222220" d="M286.102,93.197c-8.468,0-15.102-25.111-15.102-57.168c0-32.058,6.634-57.169,15.102-57.169
		s15.101,25.111,15.101,57.169C301.202,68.086,294.569,93.197,286.102,93.197z M286.102-20.352
		c-7.893,0-14.313,25.292-14.313,56.381c0,31.088,6.42,56.379,14.313,56.379c7.892,0,14.312-25.291,14.312-56.379
		C300.413,4.941,293.993-20.352,286.102-20.352z"/>
	<path fill="#222220" d="M286.102,87.971c-7.709,0-13.748-22.815-13.748-51.941s6.039-51.941,13.748-51.941
		c7.708,0,13.746,22.815,13.746,51.941S293.81,87.971,286.102,87.971z M286.102-15.124c-7.024,0-12.959,23.425-12.959,51.153
		c0,27.728,5.935,51.152,12.959,51.152c7.023,0,12.957-23.425,12.957-51.152C299.059,8.301,293.125-15.124,286.102-15.124z"/>
	<path fill="#222220" d="M283.018,76.066c-5.979,0-10.664-17.587-10.664-40.037c0-22.451,4.685-40.038,10.664-40.038
		s10.663,17.587,10.663,40.038C293.681,58.479,288.997,76.066,283.018,76.066z M283.018-3.221c-5.353,0-9.875,17.975-9.875,39.25
		c0,21.274,4.522,39.248,9.875,39.248s9.874-17.974,9.874-39.248C292.892,14.754,288.37-3.221,283.018-3.221z"/>
	<path fill="#222220" d="M279.854,63.852c-4.694,0-7.5-14.146-7.5-27.822c0-13.676,2.806-27.822,7.5-27.822
		s7.499,14.146,7.499,27.822C287.353,49.705,284.548,63.852,279.854,63.852z M279.854,8.995c-3.241,0-6.711,10.863-6.711,27.034
		s3.47,27.033,6.711,27.033c3.24,0,6.71-10.862,6.71-27.033S283.094,8.995,279.854,8.995z"/>
	<path fill="#222220" d="M203.827-124.062l-0.296-0.223l-0.073,0.092l-0.194,0c-0.29-0.001-0.37-0.181-0.546-0.702
		c-0.645-0.444-3.293-1.931-10.197-2.303l-0.373-0.02v-2.291c-0.399-1.41-8.467-29.776-13.35-38.446l-0.201-0.357l0.365-0.187
		c0.076-0.04,1.904-0.963,4.223-0.963c1.551,0,2.95,0.414,4.157,1.229l0.103,0.069l0.045,0.116
		c0.573,1.494,14.047,36.641,15.285,40.708c0.286,0.938,0.482,1.559,0.614,1.961c0.051,0.042,0.074,0.065,0.074,0.065l0.078,0.078
		l0.029,0.112c0.066,0.272,0.104,0.439,0.092,0.565L203.827-124.062z M192.937-127.963c5.243,0.319,8.044,1.274,9.406,1.946
		l-0.066-0.201l0.022,0.018c-0.082-0.264-0.174-0.564-0.278-0.907c-1.195-3.925-14.342-38.241-15.223-40.538
		c-1.051-0.682-2.267-1.027-3.613-1.027c-1.539,0-2.87,0.457-3.49,0.711c5.046,9.352,13.145,38,13.228,38.292l0.015,0.107V-127.963z
		"/>
	<path fill="#222220" d="M249.849-98.144h-9.039l-0.061-0.322c-0.037-0.198-3.722-19.858-6.757-28.63
		c-2.635-7.612-6.865-18.458-16.264-34.897l-0.305-0.532l0.611-0.056c0,0,0.181-0.017,0.501-0.017c1.252,0,4.491,0.25,7.526,2.559
		l0.11,0.13c0.096,0.181,9.571,18.28,14.796,34.026c5.214,15.72,8.69,27.116,8.725,27.229L249.849-98.144z M241.464-98.932h7.319
		c-0.731-2.38-3.974-12.864-8.563-26.702c-5.03-15.157-14.021-32.518-14.705-33.83c-2.671-2.001-5.492-2.315-6.773-2.344
		c9.2,16.172,13.38,26.898,15.996,34.454C237.577-119.148,240.97-101.532,241.464-98.932z"/>
	<path fill="#222220" d="M-157.897-94.204c-4.693,0-11.45-2.157-12.954-2.842c-1.615-0.737-6.521-2.973-5.837-9.414
		c0.635-5.99,4.771-18.223,11.878-20.738c3.118-1.104,8.042-1.762,13.172-1.762c3.619,0,7.787,0.362,8.634,1.378
		c1.373,1.647,0.816,14.338,0.749,15.779l-0.037,0.148c-1.862,3.99-9.173,12.646-11.411,14.464c-2.103,1.708-3.547,2.89-3.548,2.891
		l-0.104,0.085l-0.134,0.004C-157.623-94.206-157.759-94.204-157.897-94.204z M-151.638-128.171c-5.045,0-9.871,0.642-12.909,1.717
		c-6.693,2.369-10.759,14.441-11.356,20.078c-0.624,5.876,3.893,7.935,5.376,8.612c1.447,0.659,8.373,2.84,12.883,2.77
		c0.368-0.301,1.673-1.367,3.445-2.807c2.125-1.726,9.321-10.258,11.16-14.116c0.248-5.335,0.312-14.101-0.57-15.159
		C-144.052-127.607-147.016-128.171-151.638-128.171z"/>
	<path fill="#222220" d="M100.712-55.658l-1.488-1.985l0.565-0.15c0,0,6.702-1.774,11.237-2.958
		c3.275-0.854,43.301-8.663,111.986-15.96c26.308-2.795,44.987-4.212,55.521-4.212c7.938,0,8.452,0.833,8.621,1.107
		c0.101,0.161,0.114,0.348,0.039,0.499l-0.12,0.241l-0.269-0.024c-0.901-0.083-2.136-0.125-3.668-0.125
		c-15.53,0-58.188,4.261-59.453,4.461c-0.399,0.052-39.242,5.159-62.062,7.975c-22.797,2.814-60.288,10.995-60.664,11.078
		L100.712-55.658z M100.556-57.18l0.483,0.644c3.308-0.719,38.629-8.338,60.488-11.036c22.815-2.815,61.654-7.922,62.044-7.973
		c1.254-0.198,43.739-4.442,59.42-4.469c-1.104-0.072-2.555-0.121-4.457-0.121c-10.506,0-29.158,1.416-55.438,4.208
		c-68.639,7.292-108.604,15.087-111.871,15.939C107.483-59.011,102.264-57.632,100.556-57.18z"/>
	<path fill="#222220" d="M263.399-54.654c-1.719,0-3.38-4.32-4.134-8.587c-0.794-4.497-0.664-9.214,1.121-9.53
		c1.742-0.314,3.535,4.151,4.316,8.571c0.794,4.497,0.664,9.214-1.121,9.53C263.521-54.659,263.461-54.654,263.399-54.654z
		 M260.569-71.999c-0.837,0.145-1.418,3.571-0.526,8.621c0.901,5.109,2.557,7.935,3.356,7.935l0.046-0.004
		c0.791-0.14,1.373-3.566,0.48-8.617C263.024-69.172,261.368-71.999,260.569-71.999z"/>
	<path fill="#222220" d="M216.6-49.208c-1.966,0-3.425-4.486-3.85-8.917c-0.229-2.393-0.159-4.675,0.197-6.426
		c0.393-1.926,1.086-2.99,2.006-3.078l0.118-0.005c1.967,0,3.426,4.486,3.85,8.917c0.229,2.392,0.159,4.674-0.197,6.425
		c-0.393,1.926-1.086,2.99-2.005,3.079L216.6-49.208z M215.071-66.846c-0.442,0.04-0.995,0.704-1.352,2.452
		c-0.341,1.677-0.407,3.876-0.185,6.193c0.464,4.834,1.987,8.204,3.064,8.204v0.394l0.043-0.396
		c0.399-0.038,0.952-0.702,1.309-2.451c0.341-1.676,0.407-3.875,0.185-6.192C217.673-63.477,216.149-66.846,215.071-66.846z"/>
	<path fill="#FFFFFF" d="M221.438-55.673l-7,1.179c-1.396,0.234-2.718-0.705-2.952-2.102c-0.234-1.395,0.706-2.717,2.101-2.951
		l7-1.178c1.396-0.235,2.717,0.706,2.952,2.101C223.772-57.23,222.832-55.908,221.438-55.673"/>
	<path fill="#222220" d="M214.01-54.064c-1.448,0-2.674-1.037-2.913-2.466c-0.131-0.778,0.049-1.562,0.507-2.205
		c0.458-0.644,1.139-1.07,1.917-1.201l7-1.178c1.638-0.276,3.138,0.834,3.406,2.424c0.131,0.778-0.049,1.562-0.507,2.205
		c-0.458,0.644-1.139,1.07-1.917,1.201l-7,1.179C214.337-54.078,214.172-54.064,214.01-54.064z M221.015-60.367
		c-0.12,0-0.241,0.01-0.363,0.03l-7,1.178c-0.57,0.096-1.069,0.409-1.405,0.88s-0.468,1.046-0.372,1.617
		c0.195,1.166,1.29,1.979,2.498,1.778l7-1.179c0.57-0.096,1.069-0.409,1.405-0.88s0.468-1.046,0.372-1.617
		C222.973-59.607,222.075-60.367,221.015-60.367z"/>
	<path fill="#FFFFFF" d="M268.175-61.784l-7,1.179c-1.396,0.234-2.718-0.705-2.952-2.101c-0.234-1.395,0.706-2.716,2.102-2.951
		l6.999-1.178c1.396-0.235,2.717,0.706,2.952,2.101C270.51-63.34,269.57-62.019,268.175-61.784"/>
	<path fill="#222220" d="M260.747-60.175c-1.448,0-2.674-1.037-2.913-2.466c-0.271-1.607,0.817-3.135,2.425-3.405l6.999-1.178
		c1.635-0.276,3.138,0.834,3.406,2.424c0.271,1.607-0.817,3.135-2.424,3.405l-7,1.179C261.074-60.188,260.909-60.175,260.747-60.175
		z M267.752-66.477c-0.12,0-0.241,0.01-0.363,0.03l-6.999,1.178c-1.179,0.198-1.977,1.319-1.778,2.497
		c0.195,1.166,1.291,1.983,2.498,1.778l7-1.179c1.178-0.198,1.976-1.318,1.777-2.497C269.71-65.717,268.813-66.477,267.752-66.477z"
		/>
	<path fill="#222220" d="M134.471,113.587c-0.328-0.045-0.677-0.006-1.017-0.02c-27.569-1.049-37.196-35.058-37.29-35.4
		l-0.047-0.169l0.095-0.147c1.411-2.213,3.459-11.437,6.294-24.202c1.254-5.645,2.675-12.042,4.301-19.027
		c6.614-28.413,15.718-45.273,15.808-45.435c0.879-1.582,6.781-1.763,7.956-1.783c16.929,2.413,35.602,19.384,39.299,51.866
		c2.821,24.79-3.489,51.38-15.348,64.662C148.802,110.339,142.056,113.587,134.471,113.587z M96.971,78.119
		c0.748,2.532,10.492,33.67,36.513,34.661c0.329,0.012,0.659,0.019,0.983,0.019c0.001,0,0.003,0,0.003,0
		c7.352,0,13.899-3.16,19.464-9.393c11.72-13.127,17.95-39.464,15.152-64.047c-3.649-32.065-21.999-48.806-38.564-51.172
		c-2.669,0.051-6.733,0.51-7.218,1.381c-0.09,0.161-9.139,16.923-15.729,45.232c-1.625,6.98-3.045,13.376-4.298,19.019
		C100.379,66.863,98.445,75.573,96.971,78.119z"/>
	<path fill="#222220" d="M131.022,107.178c-9.048,0-17.081-5.298-24.559-16.195c-0.062-0.083-6.777-9.396-7.955-19.923l-0.007-0.063
		l0.013-0.062c0,0,4.734-22.766,6.114-29.466c1.369-6.652,14.446-44.438,15.003-46.043l0.067-0.197l2.167-0.585
		c0.143-0.03,2.993-0.606,6.918-0.606c4.748,0,11.397,0.873,16.115,5.028c10.166,8.957,21.03,25.597,21.03,45.44
		c0,11.373-1.323,49.162-18.351,57.913C141.348,105.621,135.932,107.178,131.022,107.178z M99.299,71.034
		c1.175,10.296,7.742,19.402,7.809,19.493c7.326,10.676,15.146,15.861,23.915,15.861c4.781,0,10.079-1.528,16.195-4.671
		c16.631-8.548,17.923-45.951,17.923-57.212c0-25.276-17.296-41.793-20.763-44.848c-4.532-3.993-10.981-4.832-15.594-4.832
		c-3.84,0-6.708,0.579-6.736,0.585l-1.739,0.47c-1.046,3.023-13.599,39.389-14.908,45.747
		C104.063,48.126,99.57,69.729,99.299,71.034z"/>
	<path fill="#222220" d="M128.812,83.236c-12.288,0-22.285-14.37-22.285-32.033c0-17.664,9.997-32.034,22.285-32.034
		s22.286,14.37,22.286,32.034C151.098,68.866,141.1,83.236,128.812,83.236z M128.812,19.957c-11.854,0-21.496,14.017-21.496,31.246
		c0,17.229,9.643,31.244,21.496,31.244s21.497-14.016,21.497-31.244C150.309,33.974,140.665,19.957,128.812,19.957z"/>
	<path fill="#222220" d="M127.977,77.809c-10.219,0-18.532-11.936-18.532-26.605c0-14.672,8.313-26.608,18.532-26.608
		c10.218,0,18.531,11.937,18.531,26.608C146.508,65.873,138.194,77.809,127.977,77.809z M127.977,25.383
		c-9.784,0-17.743,11.583-17.743,25.82c0,14.235,7.959,25.816,17.743,25.816c9.783,0,17.742-11.581,17.742-25.816
		C145.719,36.966,137.76,25.383,127.977,25.383z"/>
	<path fill="#222220" d="M-91.532,93.581c-0.001,0-0.001,0-0.003,0c-19.894,0-33.79-0.439-41.302-1.307
		c-20.314-2.344-40.343-9.736-40.543-9.812l-0.451-0.168l12.172-19.658l0.224,0.004l124.74,2.339l3.064,2.873
		c15.81,14.911,23.134,17.527,23.206,17.552l0.359,0.123l-0.109,0.363c-0.034,0.114-0.87,2.825-3.554,5.166
		c-1.925,1.681-17.863,2.033-30.895,2.033c-3.164,0-5.247-0.023-5.247-0.023C-50.059,93.071-70.479,93.581-91.532,93.581z
		 M-172.652,81.889c3.085,1.106,21.38,7.465,39.906,9.603c7.482,0.863,21.347,1.301,41.211,1.301c21.045,0,41.456-0.509,41.66-0.515
		l0,0c0.022,0,2.1,0.024,5.252,0.024c17.702,0,29.058-0.688,30.376-1.839c1.974-1.722,2.888-3.682,3.194-4.457
		c-1.684-0.701-8.964-4.229-23.118-17.578l-2.843-2.665l-124.211-2.329L-172.652,81.889z"/>
	<path fill="#222220" d="M-177.608,2.725l-0.465-0.085c-0.426-0.078-42.673-7.775-49.258-7.775c-0.232,0-0.415,0.009-0.547,0.031
		c-1.184,0.195-2.345,0.294-3.452,0.294c-1.9,0-2.98-0.291-3.025-0.303l-0.42-0.116l0.157-0.407c0.014-0.037,1.46-3.646,5.897-3.646
		c0.438,0,0.896,0.035,1.363,0.105c5.193,0.779,48.965,6.505,49.407,6.563l0.343,0.045V2.725z M-227.331-5.924
		c6.357,0,44.047,6.815,48.935,7.704v-3.657c-4.144-0.542-44.124-5.777-49.079-6.52c-0.428-0.064-0.847-0.097-1.246-0.097
		c-3.045,0-4.458,1.854-4.95,2.716c0.467,0.079,1.266,0.178,2.341,0.178c1.064,0,2.182-0.096,3.324-0.284
		C-227.843-5.91-227.617-5.924-227.331-5.924z"/>
	<path fill="#222220" d="M-18.229,1.643l0.187-0.565c0.035-0.105,0.889-2.581,4.193-3.674c3.397-1.125,85.614-8.559,99.106-8.559
		c1.502,0,1.905,0.083,2.102,0.166c3.33,1.388,4.149,8.425,4.183,8.725l0.207,1.859l-0.94-1.619
		c-0.025-0.044-2.65-4.397-10.946-4.397c-0.834,0-1.711,0.044-2.604,0.131c-10.656,1.04-94.052,7.818-94.893,7.886L-18.229,1.643z
		 M85.258-10.368c-15.228,0-96.267,7.661-98.858,8.52c-1.995,0.661-2.981,1.881-3.41,2.601c8.074-0.657,84.058-6.84,94.192-7.83
		c0.919-0.089,1.82-0.135,2.681-0.135c6.059,0,9.238,2.187,10.666,3.608c-0.403-2.081-1.4-5.795-3.472-6.659
		C87.015-10.28,86.73-10.368,85.258-10.368z"/>
	<path fill="#FFFFFF" d="M-174.059,83.41l5.663,2.428l9.056-18.352l31.278,1.266c0,0-3.942,15.365,0,22.008l1.059,1.178h7.615
		c0,0-4.205-1.895-4.205-6.625c0-4.732,1.84-16.297,1.84-16.297l39.952,0.525c0,0,2.108,8.1,5.782,15.508l3.674,7.408h9.994
		c0,0-7.359-6.619-11.039-20.551v-3.154l32.854,0.264c0,0,17.162,16.033,20.935,19.188c3.773,3.154,9.03,4.254,9.03,4.254
		s5.615,1.561,3.465-5.684c0,0-9.032-2.221-12.495-5.338c-3.461-3.117-17.254-16.064-17.254-16.064s-79.379,1.148-124.588-2.336
		L-174.059,83.41z"/>
	<path fill="#222220" d="M-9.408,92.993c-0.699,0-1.245-0.149-1.268-0.156c-0.194-0.04-5.373-1.15-9.178-4.331
		c-3.578-2.991-19.345-17.703-20.838-19.098l-32.304-0.259v2.705c3.613,13.627,10.836,20.244,10.909,20.31l0.764,0.688h-11.267
		l-3.782-7.628c-3.26-6.573-5.315-13.772-5.732-15.292l-39.312-0.518c-0.301,1.938-1.783,11.701-1.783,15.898
		c0,4.41,3.812,6.192,3.974,6.266l1.658,0.753l-9.611,0.001l-1.176-1.309c-3.677-6.183-0.846-19.205-0.205-21.897l-30.54-1.235
		l-9.108,18.457l-6.427-2.756l12.983-20.968l0.239,0.018c26.982,2.08,66.059,2.517,94.089,2.517c17.729,0,30.337-0.18,30.462-0.182
		l0.16-0.002l0.116,0.109c0.138,0.129,13.83,12.979,17.248,16.059c3.349,3.015,12.236,5.226,12.326,5.248l0.219,0.054l0.064,0.217
		c0.712,2.398,0.67,4.153-0.124,5.218C-7.395,92.607-8.279,92.993-9.408,92.993z M-73.784,68.354l33.405,0.269l0.112,0.104
		c0.172,0.16,17.197,16.062,20.918,19.173c3.655,3.056,8.807,4.16,8.858,4.171c0.029,0.007,0.496,0.133,1.082,0.133
		c0.883,0,1.53-0.268,1.925-0.797c0.606-0.813,0.627-2.299,0.062-4.307c-1.446-0.371-9.21-2.462-12.443-5.372
		c-3.256-2.933-15.798-14.698-17.144-15.961c-1.517,0.021-13.657,0.179-30.314,0.179c-27.962,0-66.912-0.434-93.911-2.5
		l-12.249,19.782l4.899,2.1l9.003-18.246l32.021,1.296l-0.121,0.472c-0.039,0.152-3.856,15.284-0.043,21.709l0.894,0.984h6.07
		c-1.314-0.984-3.228-2.978-3.228-6.23c0-4.709,1.769-15.886,1.845-16.358l0.053-0.337l0.341,0.004l40.252,0.529l0.076,0.291
		c0.021,0.081,2.142,8.147,5.754,15.433l3.565,7.188h8.801c-1.93-2.044-7.462-8.661-10.472-20.056l-0.013-0.101V68.354z"/>
	<path fill="#222220" d="M-161.56-69.593l14.8-26.851h8.523L-161.56-69.593z M-146.293-95.656l-10.989,19.936l17.317-19.936
		H-146.293z"/>
	<path fill="#222220" d="M174.68,34.312l-1.521-8.259l0.389-0.071C239.186,14.1,254.939,8.29,255.091,8.232l0.354-0.134l3.275,7.672
		l-0.414,0.131c-30.038,9.558-82.716,18.26-83.245,18.346L174.68,34.312z M174.076,26.687l1.238,6.72
		c4.818-0.805,53.647-9.066,82.339-18.125l-2.641-6.187C252.362,10.001,234.205,15.792,174.076,26.687z"/>
	<path fill="#222220" d="M174.997,43.786v-3.387l0.359-0.032c25.104-2.253,79.626-15.626,80.174-15.761l0.488-0.12v3.151
		l-0.268,0.091c-16.08,5.489-79.655,15.879-80.296,15.983L174.997,43.786z M175.786,41.12v1.738
		c5.766-0.948,63.741-10.544,79.443-15.787v-1.581C249.743,26.828,199.815,38.889,175.786,41.12z"/>
	<path fill="#222220" d="M174.905,70.869l1.329-8.202l37.369-2.981l0.134,0.773L174.905,70.869z M176.914,63.403l-1.036,6.388
		l33.488-8.977L176.914,63.403z"/>
	<path fill="#222220" d="M163.907,7.57l-0.513-0.899c-0.072-0.127-7.256-12.692-10.668-14.587l-0.161-0.089l-0.034-0.181
		c-0.022-0.116-2.296-11.644-6.459-13.915c-4.289-2.338-6.326-3.402-7.905-2.668c-1.068,0.497-6.629,3.297-11.214,9.642
		l-0.365,0.505l-0.3-0.546c-0.06-0.108-5.989-10.82-11.191-12.576c-5.383-1.817-6.551-2.449-6.598-2.475
		c-0.15-0.115-9.09-7.467-11.434-9.55l-0.204-0.181l0.098-0.255c0.047-0.122,4.615-12.127,3.56-15.71l-1.027-1.371l0.005-0.139
		c-0.001,0-0.001,0.001-0.002,0.001c-0.038,0-0.883-1.21-9.604-1.21c-1.408,0-2.969,0.032-4.639,0.096h-8.488l0.067-0.452
		c0.027-0.187,0.828-4.623,13.446-8.564c4.6-1.437,10.742-3.323,16.703-5.153c9.702-2.979,19.736-6.061,20.306-6.349
		c0.479-0.307,1.272-1.601,0.73-4.242c-0.581-2.835-4.416-16.056-4.455-16.189l-0.045-0.155l4.271-7.911l0.329,0.137
		c0.646,0.269,15.829,6.593,18.53,8.561l0.18,0.131l-0.02,0.222c-0.007,0.086-0.695,8.673,3.108,11.499
		c3.825,2.841,5.834,2.211,5.841,2.21l0.346-0.106l0.14,0.334c0.587,1.451,5.729,14.225,5.729,15.821
		c0,0.209,0.121,1.753,0.289,3.891c1.139,14.487,4.605,58.575,1.864,71.414L163.907,7.57z M153.271-8.51
		c3.107,1.93,8.549,10.927,10.276,13.872c1.556-9.258,0.859-32.841-2.074-70.155c-0.202-2.574-0.292-3.721-0.292-3.952
		c0-1.074-3.273-9.578-5.551-15.227c-0.117,0.014-0.263,0.024-0.435,0.024l0,0c-0.93,0-2.913-0.315-5.752-2.424
		c-3.835-2.85-3.534-10.513-3.439-11.97c-2.826-1.883-15.637-7.278-17.862-8.209l-3.778,6.999c0.455,1.57,3.864,13.364,4.425,16.096
		c0.586,2.857-0.224,4.519-1.095,5.074c-0.384,0.244-6.536,2.146-20.482,6.429c-5.96,1.83-12.101,3.716-16.7,5.152
		c-9.683,3.024-12.132,6.293-12.724,7.475h7.449c1.665-0.064,3.235-0.097,4.653-0.097c5.692,0,9.201,0.518,10.146,1.497
		c0.125,0.128,0.188,0.249,0.219,0.344l0.995,1.364c1.13,3.512-2.766,14.193-3.458,16.039c2.596,2.276,10.994,9.184,11.146,9.31v0
		c0.017,0,1.281,0.647,6.41,2.379c4.858,1.64,10.028,10.153,11.329,12.409c4.626-6.157,10.086-8.904,11.157-9.402
		c1.866-0.869,4.043,0.198,8.614,2.691C150.693-20.478,152.956-10.054,153.271-8.51z"/>
	<g>
		
			<rect x="-225.355" y="-115.369" transform="matrix(0.9943 0.1063 -0.1063 0.9943 -13.2698 19.711)" fill="#C52F38" width="67.766" height="1.577"/>
		<g>
			<circle fill="#FFFFFF" cx="-157.948" cy="-110.995" r="2.965"/>
			<path fill="#C52F38" d="M-157.591-114.335c-1.841-0.197-3.5,1.142-3.697,2.983c-0.197,1.841,1.141,3.5,2.982,3.697
				c1.842,0.197,3.5-1.142,3.697-2.983S-155.75-114.138-157.591-114.335C-159.433-114.532-155.75-114.138-157.591-114.335z
				 M-158.222-108.439c-1.41-0.151-2.433-1.42-2.282-2.829c0.15-1.41,1.419-2.434,2.829-2.283s2.433,1.419,2.282,2.829
				C-155.543-109.313-156.812-108.289-158.222-108.439C-159.631-108.59-156.812-108.289-158.222-108.439z"/>
		</g>
		<g>
			<circle fill="#FFFFFF" cx="-224.996" cy="-118.166" r="2.965"/>
			<path fill="#C52F38" d="M-224.639-121.506c1.841,0.197,3.18,1.856,2.982,3.697c-0.197,1.841-1.855,3.18-3.697,2.983
				c-1.842-0.197-3.18-1.856-2.983-3.697S-226.48-121.703-224.639-121.506C-222.797-121.309-226.48-121.703-224.639-121.506z
				 M-225.27-115.61c1.41,0.151,2.679-0.873,2.829-2.283c0.151-1.409-0.873-2.678-2.282-2.829c-1.41-0.15-2.679,0.873-2.829,2.283
				C-227.703-117.029-226.679-115.761-225.27-115.61S-226.679-115.761-225.27-115.61z"/>
		</g>
	</g>
	<g>
		<path fill="#222220" d="M-256.408-132.796l1.409-0.123c0.066,0.564,0.222,1.028,0.466,1.39c0.244,0.362,0.623,0.655,1.136,0.878
			c0.513,0.224,1.091,0.335,1.733,0.335c0.57,0,1.073-0.084,1.509-0.254c0.436-0.169,0.761-0.402,0.974-0.697
			c0.213-0.295,0.319-0.618,0.319-0.967c0-0.354-0.103-0.663-0.308-0.928c-0.205-0.264-0.544-0.486-1.016-0.666
			c-0.303-0.118-0.973-0.302-2.01-0.551c-1.037-0.249-1.763-0.484-2.179-0.705c-0.539-0.282-0.94-0.632-1.205-1.051
			c-0.264-0.418-0.396-0.887-0.396-1.405c0-0.57,0.162-1.102,0.485-1.598c0.323-0.496,0.795-0.872,1.417-1.128
			c0.621-0.257,1.312-0.385,2.072-0.385c0.836,0,1.575,0.135,2.214,0.404s1.13,0.666,1.475,1.19
			c0.344,0.523,0.529,1.116,0.554,1.779l-1.432,0.107c-0.077-0.713-0.338-1.252-0.782-1.617c-0.444-0.365-1.1-0.547-1.967-0.547
			c-0.904,0-1.562,0.166-1.975,0.497c-0.414,0.331-0.62,0.73-0.62,1.197c0,0.406,0.146,0.739,0.439,1.001
			c0.288,0.262,1.038,0.53,2.252,0.805c1.214,0.274,2.047,0.515,2.499,0.72c0.657,0.303,1.142,0.687,1.455,1.151
			c0.313,0.464,0.47,1,0.47,1.605c0,0.601-0.172,1.167-0.516,1.698c-0.344,0.532-0.838,0.945-1.482,1.24
			c-0.645,0.295-1.37,0.443-2.175,0.443c-1.022,0-1.878-0.149-2.568-0.446c-0.69-0.298-1.232-0.746-1.625-1.344
			C-256.181-131.365-256.388-132.041-256.408-132.796z"/>
		<path fill="#222220" d="M-245.55-138.864v-1.594h1.386v1.594H-245.55z M-245.55-129.169v-8.178h1.386v8.178H-245.55z"/>
		<path fill="#222220" d="M-236.749-129.169v-1.032c-0.519,0.811-1.281,1.216-2.287,1.216c-0.652,0-1.251-0.18-1.798-0.539
			c-0.547-0.359-0.97-0.861-1.271-1.506c-0.301-0.644-0.451-1.385-0.451-2.221c0-0.816,0.136-1.557,0.408-2.222
			c0.272-0.665,0.68-1.174,1.224-1.529c0.544-0.354,1.152-0.531,1.825-0.531c0.493,0,0.932,0.104,1.317,0.312
			c0.385,0.208,0.698,0.479,0.939,0.813v-4.051h1.378v11.289H-236.749z M-241.13-133.25c0,1.047,0.22,1.83,0.662,2.349
			c0.441,0.519,0.962,0.777,1.563,0.777c0.606,0,1.121-0.248,1.544-0.743c0.424-0.496,0.635-1.251,0.635-2.268
			c0-1.119-0.215-1.94-0.646-2.464c-0.432-0.524-0.963-0.786-1.594-0.786c-0.616,0-1.131,0.251-1.544,0.754
			C-240.924-135.126-241.13-134.333-241.13-133.25z"/>
		<path fill="#222220" d="M-227.686-131.803l1.433,0.177c-0.226,0.837-0.645,1.486-1.255,1.948s-1.391,0.693-2.341,0.693
			c-1.196,0-2.145-0.368-2.846-1.105c-0.701-0.736-1.051-1.77-1.051-3.099c0-1.376,0.354-2.444,1.063-3.204s1.627-1.14,2.757-1.14
			c1.093,0,1.987,0.373,2.68,1.117c0.693,0.744,1.04,1.792,1.04,3.142c0,0.083-0.002,0.206-0.008,0.37h-6.099
			c0.051,0.898,0.306,1.586,0.762,2.064c0.457,0.478,1.027,0.716,1.709,0.716c0.508,0,0.942-0.133,1.302-0.4
			C-228.181-130.791-227.896-131.217-227.686-131.803z M-232.236-134.043h4.566c-0.062-0.688-0.236-1.204-0.524-1.548
			c-0.441-0.534-1.014-0.801-1.717-0.801c-0.637,0-1.172,0.213-1.606,0.639C-231.95-135.327-232.19-134.757-232.236-134.043z"/>
		<path fill="#222220" d="M-220-129.169v-11.289h2.249l2.672,7.993c0.246,0.745,0.426,1.301,0.539,1.671
			c0.128-0.411,0.329-1.014,0.601-1.81l2.703-7.854h2.01v11.289h-1.44v-9.449l-3.28,9.449h-1.348l-3.265-9.61v9.61H-220z"/>
		<path fill="#222220" d="M-206.986-138.864v-1.594h1.386v1.594H-206.986z M-206.986-129.169v-8.178h1.386v8.178H-206.986z"/>
		<path fill="#222220" d="M-203.506-129.169v-8.178h1.248v1.24c0.318-0.58,0.612-0.963,0.882-1.147
			c0.27-0.185,0.566-0.277,0.89-0.277c0.467,0,0.942,0.149,1.424,0.447l-0.478,1.286c-0.339-0.201-0.677-0.301-1.016-0.301
			c-0.303,0-0.575,0.091-0.816,0.273c-0.241,0.183-0.413,0.435-0.516,0.759c-0.154,0.493-0.231,1.032-0.231,1.617v4.281H-203.506z"
			/>
		<path fill="#222220" d="M-198.254-129.169v-8.178h1.248v1.24c0.318-0.58,0.612-0.963,0.882-1.147
			c0.27-0.185,0.566-0.277,0.89-0.277c0.467,0,0.942,0.149,1.424,0.447l-0.478,1.286c-0.339-0.201-0.677-0.301-1.016-0.301
			c-0.303,0-0.575,0.091-0.816,0.273c-0.241,0.183-0.413,0.435-0.516,0.759c-0.154,0.493-0.231,1.032-0.231,1.617v4.281H-198.254z"
			/>
		<path fill="#222220" d="M-192.979-138.864v-1.594h1.386v1.594H-192.979z M-192.979-129.169v-8.178h1.386v8.178H-192.979z"/>
		<path fill="#222220" d="M-190-133.258c0-1.515,0.421-2.636,1.263-3.365c0.703-0.605,1.561-0.909,2.572-0.909
			c1.125,0,2.043,0.369,2.757,1.105c0.713,0.737,1.07,1.754,1.07,3.053c0,1.053-0.158,1.88-0.474,2.483
			c-0.315,0.604-0.775,1.072-1.378,1.405c-0.603,0.334-1.262,0.5-1.975,0.5c-1.145,0-2.07-0.367-2.776-1.101
			C-189.646-130.819-190-131.877-190-133.258z M-188.575-133.258c0,1.047,0.229,1.832,0.686,2.353
			c0.457,0.521,1.032,0.781,1.725,0.781c0.688,0,1.26-0.262,1.717-0.785c0.457-0.524,0.686-1.322,0.686-2.395
			c0-1.011-0.23-1.777-0.689-2.298s-1.031-0.782-1.713-0.782c-0.693,0-1.268,0.259-1.725,0.778
			C-188.346-135.088-188.575-134.305-188.575-133.258z"/>
		<path fill="#222220" d="M-180.728-129.169v-8.178h1.248v1.24c0.318-0.58,0.612-0.963,0.882-1.147
			c0.27-0.185,0.566-0.277,0.89-0.277c0.467,0,0.942,0.149,1.424,0.447l-0.478,1.286c-0.339-0.201-0.677-0.301-1.016-0.301
			c-0.303,0-0.575,0.091-0.816,0.273c-0.241,0.183-0.413,0.435-0.516,0.759c-0.154,0.493-0.231,1.032-0.231,1.617v4.281H-180.728z"
			/>
	</g>
	<g>
		
			<rect x="-140.637" y="-153.613" transform="matrix(0.9758 0.2189 -0.2189 0.9758 -35.8873 18.3116)" fill="#C52F38" width="80.086" height="1.577"/>
		<g>
			<circle fill="#FFFFFF" cx="-61.686" cy="-144.097" r="2.965"/>
			<path fill="#C52F38" d="M-60.951-147.375c-1.807-0.405-3.607,0.735-4.013,2.542s0.735,3.607,2.542,4.013s3.607-0.735,4.013-2.542
				S-59.144-146.969-60.951-147.375S-59.144-146.969-60.951-147.375z M-62.248-141.589c-1.384-0.311-2.256-1.688-1.946-3.071
				s1.688-2.256,3.071-1.945c1.383,0.31,2.256,1.687,1.945,3.071C-59.488-142.151-60.865-141.278-62.248-141.589
				C-63.632-141.899-60.865-141.278-62.248-141.589z"/>
		</g>
		<g>
			<circle fill="#FFFFFF" cx="-139.503" cy="-161.552" r="2.965"/>
			<path fill="#C52F38" d="M-138.768-164.829c1.807,0.405,2.948,2.206,2.542,4.013s-2.206,2.948-4.013,2.542
				s-2.948-2.206-2.542-4.013S-140.575-165.234-138.768-164.829S-140.575-165.234-138.768-164.829z M-140.065-159.043
				c1.383,0.311,2.761-0.562,3.071-1.945s-0.562-2.76-1.946-3.071c-1.383-0.311-2.76,0.563-3.07,1.945
				C-142.321-160.73-141.449-159.354-140.065-159.043C-138.682-158.733-141.449-159.354-140.065-159.043z"/>
		</g>
	</g>
	<g>
		<path fill="#222220" d="M-189.664-168.596l-2.996-11.289h1.533l1.717,7.4c0.185,0.775,0.344,1.546,0.478,2.311
			c0.288-1.207,0.457-1.902,0.508-2.087l2.148-7.624h1.802l1.617,5.714c0.406,1.417,0.698,2.749,0.878,3.997
			c0.144-0.714,0.331-1.532,0.562-2.457l1.771-7.254h1.501l-3.096,11.289h-1.44l-2.379-8.602c-0.2-0.719-0.318-1.16-0.354-1.324
			c-0.118,0.519-0.229,0.96-0.331,1.324l-2.395,8.602H-189.664z"/>
		<path fill="#222220" d="M-176.919-178.29v-1.595h1.386v1.595H-176.919z M-176.919-168.596v-8.178h1.386v8.178H-176.919z"/>
		<path fill="#222220" d="M-173.423-168.596v-8.178h1.248v1.163c0.601-0.898,1.468-1.348,2.603-1.348
			c0.493,0,0.946,0.088,1.359,0.266c0.413,0.177,0.723,0.409,0.928,0.696c0.206,0.288,0.349,0.629,0.431,1.024
			c0.051,0.257,0.077,0.706,0.077,1.348v5.028h-1.386v-4.975c0-0.564-0.054-0.986-0.162-1.267c-0.108-0.279-0.299-0.503-0.574-0.67
			c-0.274-0.167-0.597-0.25-0.966-0.25c-0.59,0-1.1,0.188-1.528,0.563c-0.429,0.374-0.643,1.085-0.643,2.133v4.466H-173.423z"/>
		<path fill="#222220" d="M-159.347-168.596v-1.031c-0.519,0.811-1.281,1.216-2.287,1.216c-0.652,0-1.251-0.18-1.798-0.538
			c-0.547-0.359-0.97-0.861-1.271-1.506c-0.301-0.645-0.451-1.385-0.451-2.222c0-0.816,0.136-1.557,0.408-2.222
			c0.272-0.665,0.68-1.174,1.224-1.528c0.544-0.354,1.152-0.531,1.825-0.531c0.493,0,0.932,0.104,1.317,0.312
			c0.385,0.208,0.698,0.479,0.939,0.813v-4.051h1.378v11.289H-159.347z M-163.728-172.677c0,1.047,0.22,1.83,0.662,2.349
			c0.441,0.519,0.962,0.777,1.563,0.777c0.606,0,1.121-0.247,1.544-0.742c0.424-0.496,0.635-1.252,0.635-2.269
			c0-1.119-0.215-1.94-0.646-2.464c-0.432-0.523-0.963-0.785-1.594-0.785c-0.616,0-1.131,0.251-1.544,0.754
			C-163.521-174.553-163.728-173.76-163.728-172.677z"/>
		<path fill="#222220" d="M-151.831-172.223l1.409-0.123c0.066,0.564,0.222,1.028,0.466,1.39c0.244,0.362,0.623,0.655,1.136,0.878
			c0.513,0.224,1.091,0.335,1.733,0.335c0.57,0,1.073-0.084,1.509-0.254c0.436-0.169,0.761-0.401,0.974-0.696
			c0.213-0.296,0.319-0.618,0.319-0.967c0-0.354-0.103-0.663-0.308-0.928c-0.205-0.265-0.544-0.486-1.016-0.666
			c-0.303-0.118-0.973-0.302-2.01-0.551c-1.037-0.249-1.763-0.484-2.179-0.705c-0.539-0.282-0.94-0.632-1.205-1.051
			c-0.264-0.418-0.396-0.887-0.396-1.405c0-0.57,0.162-1.103,0.485-1.598c0.323-0.496,0.795-0.872,1.417-1.128
			c0.621-0.257,1.312-0.386,2.072-0.386c0.836,0,1.575,0.135,2.214,0.404s1.13,0.666,1.475,1.19
			c0.344,0.523,0.529,1.116,0.554,1.778l-1.432,0.107c-0.077-0.713-0.338-1.252-0.782-1.616c-0.444-0.365-1.1-0.547-1.967-0.547
			c-0.904,0-1.562,0.165-1.975,0.496c-0.414,0.331-0.62,0.73-0.62,1.197c0,0.406,0.146,0.739,0.439,1.002
			c0.288,0.262,1.038,0.529,2.252,0.805c1.214,0.274,2.047,0.515,2.499,0.72c0.657,0.303,1.142,0.687,1.455,1.151
			c0.313,0.464,0.47,1,0.47,1.605c0,0.601-0.172,1.166-0.516,1.697c-0.344,0.532-0.838,0.945-1.482,1.24
			c-0.645,0.295-1.37,0.442-2.175,0.442c-1.022,0-1.878-0.148-2.568-0.446s-1.232-0.745-1.625-1.344
			C-151.604-170.791-151.811-171.468-151.831-172.223z"/>
		<path fill="#222220" d="M-140.981-168.596v-11.289h1.386v4.051c0.646-0.749,1.463-1.124,2.449-1.124
			c0.605,0,1.132,0.119,1.579,0.357c0.446,0.239,0.766,0.569,0.958,0.99s0.289,1.031,0.289,1.832v5.183h-1.386v-5.183
			c0-0.692-0.15-1.197-0.451-1.513s-0.725-0.474-1.274-0.474c-0.411,0-0.797,0.106-1.159,0.319s-0.62,0.502-0.774,0.866
			c-0.154,0.365-0.231,0.868-0.231,1.51v4.474H-140.981z"/>
		<path fill="#222220" d="M-132.203-178.29v-1.595h1.386v1.595H-132.203z M-132.203-168.596v-8.178h1.386v8.178H-132.203z"/>
		<path fill="#222220" d="M-123.108-171.229l1.433,0.178c-0.226,0.837-0.645,1.486-1.255,1.948s-1.391,0.692-2.341,0.692
			c-1.196,0-2.145-0.368-2.846-1.104c-0.701-0.736-1.051-1.77-1.051-3.1c0-1.376,0.354-2.443,1.063-3.203s1.627-1.14,2.757-1.14
			c1.093,0,1.987,0.372,2.68,1.116c0.693,0.744,1.04,1.792,1.04,3.142c0,0.083-0.002,0.206-0.008,0.37h-6.099
			c0.051,0.898,0.306,1.586,0.762,2.063c0.457,0.478,1.027,0.716,1.709,0.716c0.508,0,0.942-0.133,1.302-0.4
			C-123.604-170.218-123.319-170.644-123.108-171.229z M-127.659-173.47h4.566c-0.062-0.688-0.236-1.204-0.524-1.548
			c-0.441-0.534-1.014-0.801-1.717-0.801c-0.637,0-1.172,0.213-1.606,0.639C-127.373-174.753-127.613-174.184-127.659-173.47z"/>
		<path fill="#222220" d="M-119.966-168.596v-11.289h1.386v11.289H-119.966z"/>
		<path fill="#222220" d="M-111.126-168.596v-1.031c-0.519,0.811-1.281,1.216-2.287,1.216c-0.652,0-1.251-0.18-1.798-0.538
			c-0.547-0.359-0.97-0.861-1.271-1.506c-0.301-0.645-0.451-1.385-0.451-2.222c0-0.816,0.136-1.557,0.408-2.222
			c0.272-0.665,0.68-1.174,1.224-1.528c0.544-0.354,1.152-0.531,1.825-0.531c0.493,0,0.932,0.104,1.317,0.312
			c0.385,0.208,0.698,0.479,0.939,0.813v-4.051h1.378v11.289H-111.126z M-115.508-172.677c0,1.047,0.22,1.83,0.662,2.349
			c0.441,0.519,0.962,0.777,1.563,0.777c0.606,0,1.121-0.247,1.544-0.742c0.424-0.496,0.635-1.252,0.635-2.269
			c0-1.119-0.215-1.94-0.646-2.464c-0.432-0.523-0.963-0.785-1.594-0.785c-0.616,0-1.131,0.251-1.544,0.754
			C-115.301-174.553-115.508-173.76-115.508-172.677z"/>
	</g>
	<g>
		
			<rect x="-111.689" y="-191.068" transform="matrix(0.9204 0.391 -0.391 0.9204 -78.3309 4.1435)" fill="#C52F38" width="124.697" height="1.577"/>
		<g>
			<circle fill="#FFFFFF" cx="7.89" cy="-165.966" r="2.965"/>
			<path fill="#C52F38" d="M9.203-169.058c-1.704-0.724-3.681,0.073-4.405,1.778s0.074,3.681,1.778,4.405
				c1.705,0.725,3.681-0.073,4.405-1.778S10.908-168.333,9.203-169.058C7.499-169.782,10.908-168.333,9.203-169.058z M6.885-163.601
				c-1.305-0.554-1.915-2.066-1.36-3.371c0.554-1.305,2.066-1.915,3.371-1.361s1.915,2.066,1.361,3.371
				C9.701-163.656,8.189-163.046,6.885-163.601C5.58-164.155,8.189-163.046,6.885-163.601z"/>
		</g>
		<g>
			<circle fill="#FFFFFF" cx="-106.571" cy="-214.594" r="2.965"/>
			<path fill="#C52F38" d="M-105.257-217.685c1.705,0.724,2.502,2.7,1.778,4.405s-2.701,2.502-4.405,1.778
				c-1.705-0.724-2.502-2.7-1.778-4.405S-106.962-218.409-105.257-217.685C-103.553-216.961-106.962-218.409-105.257-217.685z
				 M-107.576-212.228c1.305,0.554,2.816-0.056,3.371-1.361c0.555-1.305-0.056-2.816-1.36-3.371
				c-1.305-0.555-2.816,0.056-3.371,1.36C-109.491-214.293-108.88-212.782-107.576-212.228S-108.88-212.782-107.576-212.228z"/>
		</g>
	</g>
	<g>
		<path fill="#222220" d="M-180.704-227.866v-11.289h5.005c1.006,0,1.771,0.102,2.295,0.304c0.523,0.203,0.942,0.561,1.255,1.074
			c0.313,0.514,0.47,1.081,0.47,1.702c0,0.801-0.259,1.476-0.778,2.025s-1.319,0.898-2.402,1.047
			c0.395,0.19,0.695,0.377,0.901,0.562c0.437,0.4,0.85,0.901,1.24,1.502l1.964,3.072h-1.879l-1.494-2.349
			c-0.437-0.678-0.796-1.196-1.078-1.556c-0.282-0.359-0.535-0.611-0.758-0.754s-0.451-0.244-0.682-0.3
			c-0.169-0.036-0.447-0.054-0.832-0.054h-1.732v5.013H-180.704z M-179.209-234.173h3.211c0.683,0,1.217-0.071,1.602-0.212
			c0.385-0.141,0.678-0.367,0.878-0.678c0.2-0.311,0.3-0.648,0.3-1.012c0-0.534-0.194-0.973-0.582-1.317s-1-0.516-1.836-0.516
			h-3.573V-234.173z"/>
		<path fill="#222220" d="M-163.917-230.5l1.433,0.177c-0.226,0.837-0.645,1.486-1.255,1.948s-1.391,0.693-2.341,0.693
			c-1.196,0-2.145-0.368-2.846-1.105c-0.701-0.736-1.051-1.77-1.051-3.099c0-1.376,0.354-2.444,1.063-3.204s1.627-1.14,2.757-1.14
			c1.093,0,1.987,0.373,2.68,1.117c0.693,0.744,1.04,1.792,1.04,3.142c0,0.083-0.002,0.206-0.008,0.37h-6.099
			c0.051,0.898,0.306,1.586,0.762,2.064c0.457,0.478,1.027,0.716,1.709,0.716c0.508,0,0.942-0.133,1.302-0.4
			C-164.412-229.488-164.127-229.915-163.917-230.5z M-168.467-232.741h4.566c-0.062-0.688-0.236-1.204-0.524-1.548
			c-0.441-0.534-1.014-0.801-1.717-0.801c-0.637,0-1.172,0.213-1.606,0.639C-168.181-234.024-168.421-233.454-168.467-232.741z"/>
		<path fill="#222220" d="M-155.408-228.875c-0.513,0.437-1.007,0.745-1.482,0.924c-0.475,0.179-0.984,0.269-1.528,0.269
			c-0.898,0-1.589-0.219-2.072-0.658c-0.482-0.439-0.724-1-0.724-1.683c0-0.4,0.091-0.766,0.273-1.097s0.421-0.597,0.716-0.797
			c0.295-0.2,0.627-0.352,0.997-0.455c0.272-0.072,0.683-0.141,1.232-0.208c1.119-0.133,1.943-0.292,2.472-0.477
			c0.005-0.19,0.008-0.311,0.008-0.362c0-0.564-0.131-0.962-0.393-1.193c-0.354-0.313-0.88-0.47-1.579-0.47
			c-0.652,0-1.133,0.114-1.444,0.343s-0.541,0.633-0.689,1.213l-1.355-0.185c0.123-0.58,0.326-1.048,0.608-1.405
			c0.282-0.357,0.69-0.631,1.224-0.824c0.534-0.193,1.152-0.289,1.856-0.289c0.698,0,1.266,0.082,1.702,0.247
			c0.437,0.164,0.757,0.371,0.963,0.62c0.205,0.249,0.349,0.563,0.431,0.943c0.046,0.236,0.069,0.662,0.069,1.278v1.848
			c0,1.289,0.029,2.104,0.088,2.445c0.059,0.342,0.176,0.669,0.351,0.982h-1.448C-155.274-228.154-155.367-228.49-155.408-228.875z
			 M-155.523-231.971c-0.503,0.206-1.258,0.38-2.264,0.524c-0.57,0.082-0.973,0.174-1.209,0.277
			c-0.236,0.103-0.418,0.253-0.547,0.451s-0.192,0.417-0.192,0.658c0,0.37,0.14,0.678,0.419,0.924s0.689,0.37,1.229,0.37
			c0.534,0,1.009-0.117,1.424-0.351c0.416-0.233,0.721-0.553,0.917-0.958c0.149-0.313,0.223-0.775,0.223-1.386V-231.971z"/>
		<path fill="#222220" d="M-151.989-227.866v-8.178h1.248v1.24c0.318-0.58,0.612-0.963,0.882-1.147
			c0.27-0.185,0.566-0.277,0.89-0.277c0.467,0,0.942,0.149,1.424,0.447l-0.478,1.286c-0.339-0.201-0.677-0.301-1.016-0.301
			c-0.303,0-0.575,0.091-0.816,0.273c-0.241,0.183-0.413,0.435-0.516,0.759c-0.154,0.493-0.231,1.032-0.231,1.617v4.281H-151.989z"
			/>
		<path fill="#222220" d="M-138.936-227.866l-4.374-11.289h1.617l2.934,8.201c0.236,0.657,0.434,1.273,0.593,1.848
			c0.174-0.616,0.377-1.232,0.608-1.848l3.049-8.201h1.524l-4.42,11.289H-138.936z"/>
		<path fill="#222220" d="M-132.098-237.561v-1.594h1.386v1.594H-132.098z M-132.098-227.866v-8.178h1.386v8.178H-132.098z"/>
		<path fill="#222220" d="M-123.004-230.5l1.433,0.177c-0.226,0.837-0.645,1.486-1.255,1.948s-1.391,0.693-2.341,0.693
			c-1.196,0-2.145-0.368-2.846-1.105c-0.701-0.736-1.051-1.77-1.051-3.099c0-1.376,0.354-2.444,1.063-3.204s1.627-1.14,2.757-1.14
			c1.093,0,1.987,0.373,2.68,1.117c0.693,0.744,1.04,1.792,1.04,3.142c0,0.083-0.002,0.206-0.008,0.37h-6.099
			c0.051,0.898,0.306,1.586,0.762,2.064c0.457,0.478,1.027,0.716,1.709,0.716c0.508,0,0.942-0.133,1.302-0.4
			C-123.499-229.488-123.214-229.915-123.004-230.5z M-127.555-232.741h4.566c-0.062-0.688-0.236-1.204-0.524-1.548
			c-0.441-0.534-1.014-0.801-1.717-0.801c-0.637,0-1.172,0.213-1.606,0.639C-127.269-234.024-127.509-233.454-127.555-232.741z"/>
		<path fill="#222220" d="M-118.322-227.866l-2.502-8.178h1.432l1.301,4.72l0.485,1.756c0.021-0.087,0.162-0.649,0.423-1.687
			l1.301-4.79h1.425l1.224,4.743l0.408,1.563l0.47-1.579l1.402-4.728h1.347l-2.556,8.178h-1.44l-1.301-4.897l-0.315-1.394
			l-1.656,6.292H-118.322z"/>
		<path fill="#222220" d="M-103.93-227.866v-11.289h2.249l2.672,7.993c0.246,0.745,0.426,1.301,0.539,1.671
			c0.128-0.411,0.329-1.014,0.601-1.81l2.703-7.854h2.01v11.289h-1.44v-9.449l-3.28,9.449h-1.348l-3.265-9.61v9.61H-103.93z"/>
		<path fill="#222220" d="M-90.916-237.561v-1.594h1.386v1.594H-90.916z M-90.916-227.866v-8.178h1.386v8.178H-90.916z"/>
		<path fill="#222220" d="M-87.436-227.866v-8.178h1.248v1.24c0.318-0.58,0.612-0.963,0.882-1.147
			c0.27-0.185,0.566-0.277,0.89-0.277c0.467,0,0.942,0.149,1.424,0.447l-0.478,1.286c-0.339-0.201-0.677-0.301-1.016-0.301
			c-0.303,0-0.575,0.091-0.816,0.273c-0.241,0.183-0.413,0.435-0.516,0.759c-0.154,0.493-0.231,1.032-0.231,1.617v4.281H-87.436z"/>
		<path fill="#222220" d="M-82.184-227.866v-8.178h1.248v1.24c0.318-0.58,0.612-0.963,0.882-1.147
			c0.27-0.185,0.566-0.277,0.89-0.277c0.467,0,0.942,0.149,1.424,0.447l-0.478,1.286c-0.339-0.201-0.677-0.301-1.016-0.301
			c-0.303,0-0.575,0.091-0.816,0.273c-0.241,0.183-0.413,0.435-0.516,0.759c-0.154,0.493-0.231,1.032-0.231,1.617v4.281H-82.184z"/>
		<path fill="#222220" d="M-76.909-237.561v-1.594h1.386v1.594H-76.909z M-76.909-227.866v-8.178h1.386v8.178H-76.909z"/>
		<path fill="#222220" d="M-73.929-231.955c0-1.515,0.421-2.636,1.263-3.365c0.703-0.605,1.561-0.909,2.572-0.909
			c1.125,0,2.043,0.369,2.757,1.105c0.713,0.737,1.07,1.754,1.07,3.053c0,1.053-0.158,1.88-0.474,2.483
			c-0.315,0.604-0.775,1.072-1.378,1.405c-0.603,0.334-1.262,0.5-1.975,0.5c-1.145,0-2.07-0.367-2.776-1.101
			C-73.576-229.517-73.929-230.574-73.929-231.955z M-72.504-231.955c0,1.047,0.229,1.832,0.686,2.353
			c0.457,0.521,1.032,0.781,1.725,0.781c0.688,0,1.26-0.262,1.717-0.785c0.457-0.524,0.686-1.322,0.686-2.395
			c0-1.011-0.23-1.777-0.689-2.298s-1.031-0.782-1.713-0.782c-0.693,0-1.268,0.259-1.725,0.778
			C-72.275-233.785-72.504-233.002-72.504-231.955z"/>
		<path fill="#222220" d="M-64.658-227.866v-8.178h1.248v1.24c0.318-0.58,0.612-0.963,0.882-1.147
			c0.27-0.185,0.566-0.277,0.89-0.277c0.467,0,0.942,0.149,1.424,0.447l-0.478,1.286c-0.339-0.201-0.677-0.301-1.016-0.301
			c-0.303,0-0.575,0.091-0.816,0.273c-0.241,0.183-0.413,0.435-0.516,0.759c-0.154,0.493-0.231,1.032-0.231,1.617v4.281H-64.658z"/>
	</g>
	<g>
		
			<rect x="8.399" y="-174.378" transform="matrix(0.9165 0.4 -0.4 0.9165 -61.6552 -51.7993)" fill="#C52F38" width="169.708" height="1.577"/>
		<g>
			<circle fill="#FFFFFF" cx="170.868" cy="-139.712" r="2.965"/>
			<path fill="#C52F38" d="M172.212-142.79c-1.698-0.741-3.682,0.037-4.423,1.734c-0.74,1.697,0.038,3.682,1.735,4.422
				s3.681-0.038,4.422-1.735S173.909-142.049,172.212-142.79C170.514-143.531,173.909-142.049,172.212-142.79z M169.84-137.356
				c-1.3-0.567-1.895-2.085-1.328-3.384c0.567-1.299,2.085-1.895,3.385-1.327c1.299,0.567,1.895,2.084,1.327,3.384
				S171.139-136.789,169.84-137.356C168.54-137.923,171.139-136.789,169.84-137.356z"/>
		</g>
		<g>
			<circle fill="#FFFFFF" cx="15.638" cy="-207.466" r="2.965"/>
			<path fill="#C52F38" d="M16.982-210.545c1.697,0.741,2.476,2.725,1.735,4.422c-0.741,1.697-2.725,2.476-4.422,1.735
				c-1.697-0.741-2.476-2.725-1.735-4.422S15.284-211.286,16.982-210.545C18.679-209.804,15.284-211.286,16.982-210.545z
				 M14.61-205.11c1.299,0.567,2.817-0.028,3.384-1.328c0.567-1.299-0.028-2.817-1.327-3.384c-1.299-0.567-2.817,0.028-3.384,1.328
				C12.715-207.195,13.311-205.678,14.61-205.11C15.909-204.543,13.311-205.678,14.61-205.11z"/>
		</g>
	</g>
	<g>
		<path fill="#222220" d="M-19.79-216.827v-11.289h7.616v1.333h-6.122v3.496h5.298v1.333h-5.298v5.128H-19.79z"/>
		<path fill="#222220" d="M-10.426-216.827v-8.178h1.248v1.24c0.318-0.58,0.612-0.963,0.882-1.147
			c0.27-0.185,0.566-0.277,0.89-0.277c0.467,0,0.942,0.149,1.424,0.447l-0.478,1.286c-0.339-0.201-0.677-0.301-1.016-0.301
			c-0.303,0-0.575,0.091-0.816,0.273c-0.241,0.183-0.413,0.435-0.516,0.759c-0.154,0.493-0.231,1.032-0.231,1.617v4.281H-10.426z"/>
		<path fill="#222220" d="M-5.675-220.916c0-1.515,0.421-2.636,1.263-3.365c0.703-0.605,1.561-0.909,2.572-0.909
			c1.125,0,2.043,0.369,2.757,1.105c0.713,0.737,1.07,1.754,1.07,3.053c0,1.053-0.158,1.88-0.474,2.483
			c-0.315,0.604-0.775,1.072-1.378,1.405c-0.603,0.334-1.262,0.5-1.975,0.5c-1.145,0-2.07-0.367-2.776-1.101
			C-5.322-218.478-5.675-219.535-5.675-220.916z M-4.25-220.916c0,1.047,0.229,1.832,0.686,2.353
			c0.457,0.521,1.032,0.781,1.725,0.781c0.688,0,1.26-0.262,1.717-0.785c0.457-0.524,0.686-1.322,0.686-2.395
			c0-1.011-0.23-1.777-0.689-2.298s-1.031-0.782-1.713-0.782c-0.693,0-1.268,0.259-1.725,0.778
			C-4.021-222.746-4.25-221.963-4.25-220.916z"/>
		<path fill="#222220" d="M3.612-216.827v-8.178h1.248v1.163c0.601-0.898,1.468-1.348,2.603-1.348c0.493,0,0.946,0.088,1.359,0.266
			c0.413,0.177,0.723,0.41,0.928,0.697c0.206,0.288,0.349,0.629,0.431,1.024c0.051,0.257,0.077,0.706,0.077,1.348v5.028H8.871
			v-4.975c0-0.564-0.054-0.987-0.162-1.267s-0.299-0.503-0.574-0.67c-0.274-0.167-0.597-0.25-0.966-0.25
			c-0.59,0-1.1,0.188-1.528,0.563c-0.429,0.375-0.643,1.085-0.643,2.133v4.466H3.612z"/>
		<path fill="#222220" d="M15.409-218.067l0.2,1.224c-0.39,0.083-0.739,0.124-1.047,0.124c-0.503,0-0.893-0.08-1.17-0.239
			s-0.472-0.368-0.585-0.627c-0.113-0.259-0.169-0.805-0.169-1.637v-4.705h-1.016v-1.078h1.016v-2.025l1.378-0.832v2.857h1.394
			v1.078h-1.394v4.782c0,0.396,0.024,0.649,0.073,0.762c0.049,0.113,0.128,0.203,0.239,0.27c0.11,0.067,0.268,0.1,0.474,0.1
			C14.955-218.013,15.158-218.031,15.409-218.067z"/>
		<path fill="#222220" d="M21.323-216.827v-11.289h3.889c0.878,0,1.548,0.054,2.01,0.162c0.647,0.149,1.199,0.419,1.656,0.809
			c0.595,0.503,1.041,1.146,1.336,1.929c0.294,0.783,0.443,1.677,0.443,2.684c0,0.857-0.101,1.617-0.3,2.279
			c-0.2,0.662-0.457,1.21-0.77,1.644c-0.313,0.434-0.656,0.775-1.028,1.024s-0.821,0.438-1.348,0.566
			c-0.526,0.128-1.13,0.192-1.813,0.192H21.323z M22.817-218.159h2.41c0.745,0,1.329-0.069,1.752-0.208
			c0.424-0.139,0.761-0.333,1.013-0.585c0.354-0.354,0.63-0.83,0.828-1.428c0.198-0.598,0.297-1.323,0.297-2.175
			c0-1.181-0.194-2.088-0.582-2.722c-0.388-0.634-0.859-1.059-1.413-1.274c-0.4-0.154-1.045-0.231-1.933-0.231h-2.372V-218.159z"/>
		<path fill="#222220" d="M32.019-220.916c0-1.515,0.421-2.636,1.264-3.365c0.703-0.605,1.56-0.909,2.571-0.909
			c1.125,0,2.043,0.369,2.758,1.105c0.713,0.737,1.07,1.754,1.07,3.053c0,1.053-0.158,1.88-0.475,2.483
			c-0.314,0.604-0.775,1.072-1.377,1.405c-0.604,0.334-1.262,0.5-1.977,0.5c-1.145,0-2.07-0.367-2.775-1.101
			C32.372-218.478,32.019-219.535,32.019-220.916z M33.443-220.916c0,1.047,0.229,1.832,0.686,2.353s1.031,0.781,1.725,0.781
			c0.688,0,1.262-0.262,1.717-0.785c0.457-0.524,0.686-1.322,0.686-2.395c0-1.011-0.229-1.777-0.688-2.298
			c-0.461-0.521-1.031-0.782-1.715-0.782c-0.693,0-1.268,0.259-1.725,0.778S33.443-221.963,33.443-220.916z"/>
		<path fill="#222220" d="M40.79-220.916c0-1.515,0.421-2.636,1.263-3.365c0.704-0.605,1.561-0.909,2.572-0.909
			c1.124,0,2.043,0.369,2.757,1.105c0.714,0.737,1.07,1.754,1.07,3.053c0,1.053-0.158,1.88-0.474,2.483
			c-0.315,0.604-0.775,1.072-1.378,1.405c-0.604,0.334-1.262,0.5-1.976,0.5c-1.145,0-2.07-0.367-2.776-1.101
			C41.144-218.478,40.79-219.535,40.79-220.916z M42.215-220.916c0,1.047,0.229,1.832,0.686,2.353s1.031,0.781,1.725,0.781
			c0.688,0,1.261-0.262,1.717-0.785c0.457-0.524,0.686-1.322,0.686-2.395c0-1.011-0.229-1.777-0.688-2.298
			c-0.46-0.521-1.031-0.782-1.714-0.782c-0.693,0-1.268,0.259-1.725,0.778S42.215-221.963,42.215-220.916z"/>
		<path fill="#222220" d="M50.062-216.827v-8.178h1.247v1.24c0.318-0.58,0.612-0.963,0.882-1.147c0.27-0.185,0.566-0.277,0.89-0.277
			c0.467,0,0.941,0.149,1.425,0.447l-0.478,1.286c-0.339-0.201-0.678-0.301-1.017-0.301c-0.303,0-0.575,0.091-0.816,0.273
			c-0.241,0.183-0.413,0.435-0.516,0.759c-0.154,0.493-0.231,1.032-0.231,1.617v4.281H50.062z"/>
	</g>
	<g>
		
			<rect x="95.363" y="-180.949" transform="matrix(0.7754 0.6315 -0.6315 0.7754 -77.2675 -143.097)" fill="#C52F38" width="134.298" height="1.577"/>
		<g>
			<circle fill="#FFFFFF" cx="214.447" cy="-137.861" r="2.964"/>
			<path fill="#C52F38" d="M216.568-140.465c-1.436-1.169-3.556-0.953-4.726,0.483c-1.169,1.437-0.952,3.557,0.483,4.726
				s3.556,0.953,4.726-0.483S218.005-139.296,216.568-140.465C215.133-141.635,218.005-139.296,216.568-140.465z M212.824-135.868
				c-1.1-0.895-1.266-2.517-0.37-3.616c0.896-1.099,2.518-1.265,3.616-0.37c1.1,0.895,1.266,2.517,0.37,3.616
				S213.924-134.973,212.824-135.868C211.725-136.763,213.924-134.973,212.824-135.868z"/>
		</g>
		<g>
			<circle fill="#FFFFFF" cx="110.576" cy="-222.459" r="2.964"/>
			<path fill="#C52F38" d="M112.697-225.064c1.436,1.169,1.652,3.29,0.483,4.726c-1.17,1.436-3.29,1.652-4.726,0.483
				c-1.437-1.169-1.653-3.29-0.483-4.726S111.262-226.233,112.697-225.064S111.262-226.233,112.697-225.064z M108.953-220.466
				c1.099,0.895,2.721,0.729,3.616-0.37c0.896-1.1,0.729-2.721-0.37-3.616c-1.1-0.896-2.721-0.729-3.616,0.37
				S107.854-221.361,108.953-220.466C110.052-219.571,107.854-221.361,108.953-220.466z"/>
		</g>
	</g>
	<g>
		<path fill="#222220" d="M74.912-232.86v-11.289h5.005c1.006,0,1.771,0.102,2.295,0.304c0.523,0.203,0.941,0.561,1.255,1.074
			c0.313,0.514,0.47,1.081,0.47,1.702c0,0.801-0.259,1.476-0.777,2.025s-1.319,0.898-2.403,1.047
			c0.396,0.19,0.696,0.377,0.901,0.562c0.437,0.4,0.85,0.901,1.24,1.502l1.963,3.072h-1.879l-1.493-2.349
			c-0.437-0.678-0.796-1.196-1.078-1.556c-0.283-0.359-0.535-0.611-0.759-0.754s-0.45-0.244-0.682-0.3
			c-0.169-0.036-0.446-0.054-0.832-0.054h-1.732v5.013H74.912z M76.405-239.167h3.211c0.684,0,1.217-0.071,1.603-0.212
			c0.385-0.141,0.677-0.367,0.878-0.678c0.2-0.311,0.3-0.648,0.3-1.012c0-0.534-0.193-0.973-0.581-1.317s-1-0.516-1.837-0.516
			h-3.573V-239.167z"/>
		<path fill="#222220" d="M91.698-235.494l1.433,0.177c-0.227,0.837-0.645,1.486-1.256,1.948c-0.61,0.462-1.391,0.693-2.341,0.693
			c-1.196,0-2.145-0.368-2.845-1.105c-0.701-0.736-1.052-1.77-1.052-3.099c0-1.376,0.354-2.444,1.063-3.204
			c0.708-0.76,1.627-1.14,2.757-1.14c1.093,0,1.986,0.373,2.68,1.117c0.692,0.744,1.039,1.792,1.039,3.142
			c0,0.083-0.003,0.206-0.008,0.37H87.07c0.052,0.898,0.306,1.586,0.763,2.064s1.026,0.716,1.709,0.716
			c0.509,0,0.942-0.133,1.302-0.4C91.203-234.482,91.488-234.909,91.698-235.494z M87.147-237.735h4.566
			c-0.062-0.688-0.236-1.204-0.523-1.548c-0.441-0.534-1.015-0.801-1.718-0.801c-0.637,0-1.172,0.213-1.605,0.639
			C87.434-239.018,87.193-238.448,87.147-237.735z"/>
		<path fill="#222220" d="M100.208-233.869c-0.514,0.437-1.008,0.745-1.482,0.924c-0.475,0.179-0.984,0.269-1.528,0.269
			c-0.898,0-1.589-0.219-2.071-0.658s-0.724-1-0.724-1.683c0-0.4,0.091-0.766,0.272-1.097c0.183-0.331,0.421-0.597,0.717-0.797
			c0.295-0.2,0.627-0.352,0.997-0.455c0.271-0.072,0.683-0.141,1.232-0.208c1.119-0.133,1.942-0.292,2.472-0.477
			c0.005-0.19,0.008-0.311,0.008-0.362c0-0.564-0.131-0.962-0.394-1.193c-0.354-0.313-0.88-0.47-1.578-0.47
			c-0.652,0-1.133,0.114-1.443,0.343c-0.312,0.229-0.541,0.633-0.689,1.213l-1.355-0.185c0.123-0.58,0.326-1.048,0.608-1.405
			s0.69-0.631,1.225-0.824c0.533-0.193,1.152-0.289,1.855-0.289c0.698,0,1.266,0.082,1.702,0.247
			c0.436,0.164,0.757,0.371,0.962,0.62c0.206,0.249,0.35,0.563,0.432,0.943c0.046,0.236,0.069,0.662,0.069,1.278v1.848
			c0,1.289,0.029,2.104,0.089,2.445c0.059,0.342,0.176,0.669,0.35,0.982h-1.447C100.342-233.148,100.249-233.484,100.208-233.869z
			 M100.093-236.965c-0.504,0.206-1.258,0.38-2.265,0.524c-0.569,0.082-0.973,0.174-1.209,0.277
			c-0.235,0.103-0.418,0.253-0.546,0.451c-0.129,0.198-0.193,0.417-0.193,0.658c0,0.37,0.141,0.678,0.42,0.924
			c0.28,0.247,0.689,0.37,1.229,0.37c0.534,0,1.009-0.117,1.425-0.351c0.416-0.233,0.721-0.553,0.916-0.958
			c0.148-0.313,0.224-0.775,0.224-1.386V-236.965z"/>
		<path fill="#222220" d="M103.627-232.86v-8.178h1.247v1.24c0.318-0.58,0.612-0.963,0.882-1.147c0.27-0.185,0.566-0.277,0.89-0.277
			c0.467,0,0.941,0.149,1.425,0.447l-0.478,1.286c-0.339-0.201-0.678-0.301-1.017-0.301c-0.303,0-0.575,0.091-0.816,0.273
			c-0.241,0.183-0.413,0.435-0.516,0.759c-0.154,0.493-0.231,1.032-0.231,1.617v4.281H103.627z"/>
		<path fill="#222220" d="M113.453-232.86v-11.289h3.889c0.878,0,1.548,0.054,2.01,0.162c0.646,0.149,1.198,0.419,1.655,0.809
			c0.596,0.503,1.041,1.146,1.336,1.929c0.296,0.783,0.443,1.677,0.443,2.684c0,0.857-0.101,1.617-0.301,2.279
			s-0.457,1.21-0.77,1.644c-0.313,0.434-0.656,0.775-1.028,1.024s-0.821,0.438-1.348,0.566s-1.131,0.192-1.813,0.192H113.453z
			 M114.947-234.192h2.41c0.744,0,1.328-0.069,1.752-0.208c0.423-0.139,0.761-0.333,1.013-0.585c0.354-0.354,0.63-0.83,0.827-1.428
			c0.198-0.598,0.297-1.323,0.297-2.175c0-1.181-0.194-2.088-0.582-2.722c-0.388-0.634-0.858-1.059-1.412-1.274
			c-0.401-0.154-1.045-0.231-1.934-0.231h-2.371V-234.192z"/>
		<path fill="#222220" d="M124.148-236.949c0-1.515,0.421-2.636,1.263-3.365c0.704-0.605,1.561-0.909,2.572-0.909
			c1.124,0,2.043,0.369,2.757,1.105c0.714,0.737,1.07,1.754,1.07,3.053c0,1.053-0.158,1.88-0.474,2.483
			c-0.315,0.604-0.775,1.072-1.378,1.405c-0.604,0.334-1.262,0.5-1.976,0.5c-1.145,0-2.07-0.367-2.776-1.101
			C124.502-234.511,124.148-235.568,124.148-236.949z M125.573-236.949c0,1.047,0.229,1.832,0.686,2.353s1.031,0.781,1.725,0.781
			c0.688,0,1.261-0.262,1.717-0.785c0.457-0.524,0.686-1.322,0.686-2.395c0-1.011-0.229-1.777-0.688-2.298
			c-0.46-0.521-1.031-0.782-1.714-0.782c-0.693,0-1.268,0.259-1.725,0.778S125.573-237.997,125.573-236.949z"/>
		<path fill="#222220" d="M132.919-236.949c0-1.515,0.421-2.636,1.263-3.365c0.704-0.605,1.561-0.909,2.572-0.909
			c1.124,0,2.043,0.369,2.757,1.105c0.714,0.737,1.07,1.754,1.07,3.053c0,1.053-0.158,1.88-0.474,2.483
			c-0.315,0.604-0.775,1.072-1.378,1.405c-0.604,0.334-1.262,0.5-1.976,0.5c-1.145,0-2.07-0.367-2.776-1.101
			C133.272-234.511,132.919-235.568,132.919-236.949z M134.344-236.949c0,1.047,0.229,1.832,0.686,2.353s1.031,0.781,1.725,0.781
			c0.688,0,1.261-0.262,1.717-0.785c0.457-0.524,0.686-1.322,0.686-2.395c0-1.011-0.229-1.777-0.688-2.298
			c-0.46-0.521-1.031-0.782-1.714-0.782c-0.693,0-1.268,0.259-1.725,0.778S134.344-237.997,134.344-236.949z"/>
		<path fill="#222220" d="M142.191-232.86v-8.178h1.247v1.24c0.318-0.58,0.612-0.963,0.882-1.147c0.27-0.185,0.566-0.277,0.89-0.277
			c0.467,0,0.941,0.149,1.425,0.447l-0.478,1.286c-0.339-0.201-0.678-0.301-1.017-0.301c-0.303,0-0.575,0.091-0.816,0.273
			c-0.241,0.183-0.413,0.435-0.516,0.759c-0.154,0.493-0.231,1.032-0.231,1.617v4.281H142.191z"/>
	</g>
	<g>
		
			<rect x="181.016" y="-168.332" transform="matrix(0.4751 0.8799 -0.8799 0.4751 -28.5258 -287.2686)" fill="#C52F38" width="90.996" height="1.578"/>
		<g>
			<circle fill="#FFFFFF" cx="248.049" cy="-127.656" r="2.964"/>
			<path fill="#C52F38" d="M251.005-129.251c-0.88-1.63-2.922-2.24-4.552-1.36c-1.63,0.879-2.24,2.921-1.36,4.551
				c0.88,1.629,2.922,2.24,4.552,1.36S251.885-127.622,251.005-129.251C250.125-130.881,251.885-127.622,251.005-129.251z
				 M245.787-126.435c-0.674-1.248-0.207-2.81,1.041-3.483c1.247-0.673,2.809-0.207,3.482,1.041s0.207,2.81-1.041,3.483
				C248.022-124.721,246.461-125.188,245.787-126.435C245.113-127.682,246.461-125.188,245.787-126.435z"/>
		</g>
		<g>
			<circle fill="#FFFFFF" cx="204.979" cy="-207.431" r="2.964"/>
			<path fill="#C52F38" d="M207.936-209.027c0.88,1.63,0.27,3.672-1.36,4.551c-1.63,0.88-3.672,0.27-4.552-1.36
				c-0.879-1.629-0.27-3.671,1.36-4.551S207.056-210.656,207.936-209.027C208.815-207.397,207.056-210.656,207.936-209.027z
				 M202.718-206.21c0.673,1.248,2.235,1.714,3.483,1.041c1.247-0.674,1.714-2.236,1.04-3.483c-0.673-1.247-2.235-1.714-3.482-1.041
				C202.511-209.02,202.044-207.458,202.718-206.21C203.391-204.962,202.044-207.458,202.718-206.21z"/>
		</g>
	</g>
	<g>
		<path fill="#222220" d="M187.398-219.613c0.693,0.478,1.333,0.827,1.918,1.047l-0.439,1.04c-0.811-0.292-1.619-0.755-2.425-1.386
			c-0.837,0.467-1.762,0.701-2.772,0.701c-1.021,0-1.948-0.246-2.78-0.739c-0.831-0.493-1.472-1.186-1.921-2.079
			c-0.449-0.893-0.674-1.899-0.674-3.019c0-1.114,0.226-2.128,0.678-3.042c0.451-0.914,1.095-1.609,1.929-2.087
			s1.768-0.716,2.799-0.716c1.042,0,1.981,0.248,2.818,0.743c0.837,0.496,1.475,1.188,1.914,2.079
			c0.438,0.891,0.658,1.896,0.658,3.015c0,0.929-0.142,1.765-0.424,2.507S187.969-220.163,187.398-219.613z M184.11-221.523
			c0.863,0.241,1.574,0.601,2.134,1.078c0.878-0.801,1.316-2.005,1.316-3.612c0-0.914-0.155-1.712-0.466-2.395
			s-0.765-1.213-1.363-1.59c-0.598-0.377-1.27-0.566-2.014-0.566c-1.114,0-2.038,0.381-2.771,1.144
			c-0.734,0.762-1.102,1.901-1.102,3.415c0,1.468,0.363,2.595,1.09,3.38c0.727,0.786,1.654,1.178,2.783,1.178
			c0.534,0,1.037-0.1,1.51-0.3c-0.468-0.303-0.96-0.519-1.479-0.646L184.11-221.523z"/>
		<path fill="#222220" d="M196.293-218.404v-1.201c-0.637,0.924-1.502,1.386-2.596,1.386c-0.482,0-0.933-0.092-1.352-0.277
			c-0.418-0.185-0.729-0.417-0.932-0.697c-0.202-0.28-0.345-0.623-0.427-1.028c-0.057-0.272-0.085-0.703-0.085-1.293v-5.067h1.386
			v4.536c0,0.724,0.028,1.211,0.085,1.463c0.087,0.365,0.272,0.651,0.555,0.858c0.282,0.208,0.631,0.312,1.047,0.312
			s0.806-0.106,1.171-0.319c0.364-0.213,0.622-0.503,0.773-0.871c0.151-0.367,0.228-0.899,0.228-1.598v-4.381h1.386v8.178H196.293z"
			/>
		<path fill="#222220" d="M205.041-219.413c-0.514,0.437-1.008,0.745-1.482,0.924c-0.475,0.179-0.984,0.269-1.528,0.269
			c-0.898,0-1.589-0.219-2.071-0.658s-0.724-1-0.724-1.683c0-0.4,0.091-0.766,0.272-1.097c0.183-0.331,0.421-0.597,0.717-0.797
			c0.295-0.2,0.627-0.352,0.997-0.455c0.271-0.072,0.683-0.141,1.232-0.208c1.119-0.133,1.942-0.292,2.472-0.477
			c0.005-0.19,0.008-0.311,0.008-0.362c0-0.564-0.131-0.962-0.394-1.193c-0.354-0.313-0.88-0.47-1.578-0.47
			c-0.652,0-1.133,0.114-1.443,0.343c-0.312,0.229-0.541,0.633-0.689,1.213l-1.355-0.185c0.123-0.58,0.326-1.048,0.608-1.405
			s0.69-0.631,1.225-0.824c0.533-0.193,1.152-0.289,1.855-0.289c0.698,0,1.266,0.082,1.702,0.247
			c0.436,0.164,0.757,0.371,0.962,0.62c0.206,0.249,0.35,0.563,0.432,0.943c0.046,0.236,0.069,0.662,0.069,1.278v1.848
			c0,1.289,0.029,2.104,0.089,2.445c0.059,0.342,0.176,0.669,0.35,0.982h-1.447C205.175-218.692,205.082-219.028,205.041-219.413z
			 M204.926-222.509c-0.504,0.206-1.258,0.38-2.265,0.524c-0.569,0.082-0.973,0.174-1.209,0.277
			c-0.235,0.103-0.418,0.253-0.546,0.451c-0.129,0.198-0.193,0.417-0.193,0.658c0,0.37,0.141,0.678,0.42,0.924
			c0.28,0.247,0.689,0.37,1.229,0.37c0.534,0,1.009-0.117,1.425-0.351c0.416-0.233,0.721-0.553,0.916-0.958
			c0.148-0.313,0.224-0.775,0.224-1.386V-222.509z"/>
		<path fill="#222220" d="M208.46-218.404v-8.178h1.247v1.24c0.318-0.58,0.612-0.963,0.882-1.147c0.27-0.185,0.566-0.277,0.89-0.277
			c0.467,0,0.941,0.149,1.425,0.447l-0.478,1.286c-0.339-0.201-0.678-0.301-1.017-0.301c-0.303,0-0.575,0.091-0.816,0.273
			c-0.241,0.183-0.413,0.435-0.516,0.759c-0.154,0.493-0.231,1.032-0.231,1.617v4.281H208.46z"/>
		<path fill="#222220" d="M216.753-219.644l0.2,1.224c-0.39,0.083-0.739,0.124-1.047,0.124c-0.503,0-0.894-0.08-1.171-0.239
			c-0.276-0.159-0.472-0.368-0.585-0.627c-0.112-0.259-0.169-0.805-0.169-1.637v-4.705h-1.017v-1.078h1.017v-2.025l1.378-0.832
			v2.857h1.394v1.078h-1.394v4.782c0,0.396,0.024,0.649,0.073,0.762c0.049,0.113,0.128,0.203,0.239,0.27
			c0.11,0.067,0.268,0.1,0.473,0.1C216.299-219.59,216.502-219.608,216.753-219.644z"/>
		<path fill="#222220" d="M223.706-221.038l1.433,0.177c-0.227,0.837-0.645,1.486-1.256,1.948c-0.61,0.462-1.391,0.693-2.341,0.693
			c-1.196,0-2.145-0.368-2.845-1.105c-0.701-0.736-1.052-1.77-1.052-3.099c0-1.376,0.354-2.444,1.063-3.204
			c0.708-0.76,1.627-1.14,2.757-1.14c1.093,0,1.986,0.373,2.68,1.117c0.692,0.744,1.039,1.792,1.039,3.142
			c0,0.083-0.003,0.206-0.008,0.37h-6.099c0.052,0.898,0.306,1.586,0.763,2.064s1.026,0.716,1.709,0.716
			c0.509,0,0.942-0.133,1.302-0.4C223.211-220.026,223.496-220.453,223.706-221.038z M219.155-223.279h4.566
			c-0.062-0.688-0.236-1.204-0.523-1.548c-0.441-0.534-1.015-0.801-1.718-0.801c-0.637,0-1.172,0.213-1.605,0.639
			C219.441-224.562,219.201-223.992,219.155-223.279z"/>
		<path fill="#222220" d="M226.864-218.404v-8.178h1.247v1.24c0.318-0.58,0.612-0.963,0.882-1.147
			c0.27-0.185,0.566-0.277,0.89-0.277c0.467,0,0.941,0.149,1.425,0.447l-0.478,1.286c-0.339-0.201-0.678-0.301-1.017-0.301
			c-0.303,0-0.575,0.091-0.816,0.273c-0.241,0.183-0.413,0.435-0.516,0.759c-0.154,0.493-0.231,1.032-0.231,1.617v4.281H226.864z"/>
	</g>
	<g>
		<path fill="#222220" d="M272.697-200.005v-11.289h4.235c0.862,0,1.554,0.114,2.075,0.343c0.521,0.229,0.929,0.58,1.225,1.055
			c0.295,0.475,0.442,0.971,0.442,1.49c0,0.483-0.131,0.937-0.393,1.363c-0.262,0.426-0.657,0.77-1.187,1.032
			c0.684,0.2,1.208,0.542,1.575,1.024c0.367,0.483,0.551,1.053,0.551,1.709c0,0.529-0.112,1.021-0.335,1.475
			c-0.224,0.454-0.5,0.805-0.828,1.051c-0.328,0.247-0.74,0.433-1.235,0.559c-0.496,0.125-1.103,0.188-1.821,0.188H272.697z
			 M274.191-206.55h2.44c0.662,0,1.137-0.043,1.425-0.131c0.38-0.113,0.666-0.3,0.858-0.562c0.192-0.262,0.289-0.59,0.289-0.986
			c0-0.375-0.09-0.705-0.27-0.99c-0.18-0.285-0.437-0.479-0.771-0.585c-0.333-0.105-0.906-0.158-1.717-0.158h-2.256V-206.55z
			 M274.191-201.337h2.811c0.482,0,0.821-0.018,1.017-0.054c0.344-0.062,0.631-0.164,0.862-0.308
			c0.23-0.144,0.421-0.353,0.569-0.627c0.149-0.274,0.224-0.591,0.224-0.951c0-0.42-0.108-0.787-0.323-1.097
			c-0.216-0.311-0.515-0.529-0.897-0.654c-0.383-0.126-0.933-0.189-1.651-0.189h-2.61V-201.337z"/>
		<path fill="#222220" d="M288.437-201.014c-0.514,0.437-1.008,0.745-1.482,0.924c-0.475,0.179-0.984,0.269-1.528,0.269
			c-0.898,0-1.589-0.219-2.071-0.658s-0.724-1-0.724-1.683c0-0.4,0.091-0.766,0.272-1.097c0.183-0.331,0.421-0.597,0.717-0.797
			c0.295-0.2,0.627-0.352,0.997-0.455c0.271-0.072,0.683-0.141,1.232-0.208c1.119-0.133,1.942-0.292,2.472-0.477
			c0.005-0.19,0.008-0.311,0.008-0.362c0-0.564-0.131-0.962-0.394-1.193c-0.354-0.313-0.88-0.47-1.578-0.47
			c-0.652,0-1.133,0.114-1.443,0.343c-0.312,0.229-0.541,0.633-0.689,1.213l-1.355-0.185c0.123-0.58,0.326-1.048,0.608-1.405
			s0.69-0.631,1.225-0.824c0.533-0.193,1.152-0.289,1.855-0.289c0.698,0,1.266,0.082,1.702,0.247
			c0.436,0.164,0.757,0.371,0.962,0.62c0.206,0.249,0.35,0.563,0.432,0.943c0.046,0.236,0.069,0.662,0.069,1.278v1.848
			c0,1.289,0.029,2.104,0.089,2.445c0.059,0.342,0.176,0.669,0.35,0.982h-1.447C288.57-200.292,288.478-200.628,288.437-201.014z
			 M288.321-204.109c-0.504,0.206-1.258,0.38-2.265,0.524c-0.569,0.082-0.973,0.174-1.209,0.277
			c-0.235,0.103-0.418,0.253-0.546,0.451c-0.129,0.198-0.193,0.417-0.193,0.658c0,0.37,0.141,0.678,0.42,0.924
			c0.28,0.247,0.689,0.37,1.229,0.37c0.534,0,1.009-0.117,1.425-0.351c0.416-0.233,0.721-0.553,0.916-0.958
			c0.148-0.313,0.224-0.775,0.224-1.386V-204.109z"/>
		<path fill="#222220" d="M297.208-203l1.363,0.177c-0.149,0.939-0.53,1.675-1.144,2.206s-1.367,0.797-2.261,0.797
			c-1.119,0-2.019-0.366-2.698-1.097c-0.681-0.731-1.021-1.78-1.021-3.146c0-0.883,0.146-1.656,0.438-2.318
			c0.293-0.662,0.738-1.159,1.336-1.49c0.599-0.331,1.249-0.497,1.952-0.497c0.889,0,1.615,0.225,2.18,0.674
			s0.927,1.087,1.086,1.914l-1.348,0.208c-0.129-0.549-0.355-0.962-0.682-1.24s-0.72-0.416-1.182-0.416
			c-0.698,0-1.266,0.25-1.702,0.751s-0.654,1.292-0.654,2.375c0,1.099,0.21,1.897,0.631,2.395s0.971,0.747,1.648,0.747
			c0.544,0,0.998-0.167,1.362-0.5C296.88-201.794,297.11-202.307,297.208-203z"/>
		<path fill="#222220" d="M299.764-200.005v-11.289h1.387v6.438l3.28-3.327h1.794l-3.126,3.034l3.441,5.144h-1.709l-2.703-4.181
			l-0.978,0.939v3.242H299.764z"/>
		<path fill="#222220" d="M264.216-181.08l-2.996-11.289h1.532l1.718,7.4c0.185,0.775,0.344,1.545,0.478,2.31
			c0.287-1.207,0.456-1.902,0.508-2.087l2.148-7.624h1.802l1.617,5.714c0.405,1.417,0.698,2.749,0.878,3.997
			c0.144-0.713,0.331-1.532,0.563-2.457l1.771-7.254h1.502l-3.096,11.289h-1.44l-2.379-8.602c-0.2-0.719-0.318-1.16-0.354-1.324
			c-0.118,0.519-0.229,0.96-0.331,1.324l-2.395,8.602H264.216z"/>
		<path fill="#222220" d="M276.959-190.775v-1.594h1.387v1.594H276.959z M276.959-181.08v-8.178h1.387v8.178H276.959z"/>
		<path fill="#222220" d="M280.456-181.08v-8.178h1.247v1.163c0.601-0.898,1.468-1.348,2.603-1.348c0.493,0,0.946,0.088,1.359,0.266
			s0.723,0.41,0.928,0.697c0.205,0.288,0.35,0.629,0.432,1.024c0.051,0.257,0.077,0.706,0.077,1.348v5.028h-1.387v-4.975
			c0-0.564-0.054-0.987-0.161-1.267c-0.108-0.28-0.3-0.503-0.574-0.67s-0.597-0.25-0.966-0.25c-0.591,0-1.101,0.188-1.529,0.563
			c-0.429,0.375-0.643,1.085-0.643,2.133v4.466H280.456z"/>
		<path fill="#222220" d="M294.531-181.08v-1.032c-0.519,0.811-1.28,1.216-2.286,1.216c-0.652,0-1.252-0.18-1.799-0.539
			c-0.547-0.359-0.97-0.861-1.271-1.506c-0.3-0.644-0.45-1.385-0.45-2.221c0-0.816,0.136-1.557,0.408-2.222
			c0.271-0.665,0.68-1.174,1.225-1.529c0.544-0.354,1.152-0.531,1.824-0.531c0.493,0,0.933,0.104,1.317,0.312
			s0.698,0.479,0.939,0.813v-4.051h1.378v11.289H294.531z M290.15-185.161c0,1.047,0.221,1.83,0.662,2.349s0.963,0.777,1.563,0.777
			c0.605,0,1.12-0.248,1.544-0.743c0.423-0.496,0.635-1.251,0.635-2.268c0-1.119-0.216-1.94-0.646-2.464
			c-0.432-0.524-0.963-0.786-1.594-0.786c-0.616,0-1.131,0.251-1.544,0.754C290.356-187.038,290.15-186.245,290.15-185.161z"/>
		<path fill="#222220" d="M297.481-185.169c0-1.515,0.421-2.636,1.263-3.365c0.704-0.605,1.561-0.909,2.572-0.909
			c1.124,0,2.043,0.369,2.757,1.105c0.714,0.737,1.07,1.754,1.07,3.053c0,1.053-0.158,1.88-0.474,2.483
			c-0.315,0.604-0.775,1.072-1.378,1.405c-0.604,0.334-1.262,0.5-1.976,0.5c-1.145,0-2.07-0.367-2.776-1.101
			C297.835-182.73,297.481-183.788,297.481-185.169z M298.906-185.169c0,1.047,0.229,1.832,0.686,2.353s1.031,0.781,1.725,0.781
			c0.688,0,1.261-0.262,1.717-0.785c0.457-0.524,0.686-1.322,0.686-2.395c0-1.011-0.229-1.777-0.688-2.298
			c-0.46-0.521-1.031-0.782-1.714-0.782c-0.693,0-1.268,0.259-1.725,0.778S298.906-186.216,298.906-185.169z"/>
		<path fill="#222220" d="M308.277-181.08l-2.503-8.178h1.433l1.302,4.72l0.484,1.756c0.021-0.087,0.162-0.649,0.424-1.687
			l1.302-4.79h1.424l1.225,4.743l0.408,1.563l0.47-1.579l1.401-4.728h1.348l-2.557,8.178h-1.439l-1.302-4.897l-0.315-1.394
			l-1.656,6.292H308.277z"/>
	</g>
	<path fill="#222220" d="M30.17-160.579H-9.257c-2.971,0-5.388-2.417-5.388-5.388s2.417-5.388,5.388-5.388H30.17
		c2.971,0,5.389,2.417,5.389,5.388S33.141-160.579,30.17-160.579z M-9.257-170.567c-2.537,0-4.6,2.063-4.6,4.6s2.063,4.6,4.6,4.6
		H30.17c2.536,0,4.6-2.063,4.6-4.6s-2.063-4.6-4.6-4.6H-9.257z"/>
</g>
</svg>
