<?xml version="1.0" encoding="utf-8"?>
<!-- Generator: Adobe Illustrator 16.0.0, SVG Export Plug-In . SVG Version: 6.00 Build 0)  -->
<!DOCTYPE svg PUBLIC "-//W3C//DTD SVG 1.1//EN" "http://www.w3.org/Graphics/SVG/1.1/DTD/svg11.dtd">
<svg version="1.1" id="Capa_1" xmlns="http://www.w3.org/2000/svg" xmlns:xlink="http://www.w3.org/1999/xlink" x="0px" y="0px"
	 width="200px" height="200px" viewBox="0 0 200 200" enable-background="new 0 0 200 200" xml:space="preserve">
<circle fill="#E50A2D" cx="100" cy="100" r="97.5"/>
<path fill="#FFFFFF" d="M30.53,77.132c0.86,0,1.38,0,1.9,0c16.276,0,32.552-0.01,48.828,0.023c1.081,0.002,1.524-0.311,1.89-1.367
	c3.579-10.345,7.227-20.666,10.876-30.986c1.944-5.498,3.931-10.981,6.018-16.806c1.459,4.166,2.806,8.013,4.158,11.856
	c4.098,11.662,8.196,23.323,12.3,34.984c0.188,0.534,0.336,1.107,0.647,1.565c0.224,0.328,0.662,0.561,1.051,0.708
	c0.297,0.111,0.668,0.022,1.004,0.022c16.083,0,32.167,0,48.25,0c0.528,0,1.057,0,2.019,0c-1.071,0.896-1.856,1.584-2.674,2.229
	c-3.835,3.023-7.676,6.035-11.518,9.047c-3.283,2.574-6.574,5.136-9.854,7.715c-3.467,2.724-6.916,5.47-10.387,8.186
	c-1.978,1.547-3.991,3.043-5.972,4.582c-0.736,0.572-1.226,1.108-0.817,2.286c1.207,3.474,2.177,7.027,3.291,10.533
	c3.302,10.384,6.634,20.759,9.94,31.142c0.729,2.283,1.407,4.583,2.193,7.147c-3.317-2.274-6.44-4.409-9.557-6.556
	c-8.335-5.741-16.673-11.476-24.993-17.235c-2.763-1.912-5.482-3.889-8.216-5.843c-0.685-0.489-1.241-0.324-1.903,0.139
	c-5.655,3.963-11.331,7.896-17.009,11.826c-8.089,5.597-16.185,11.185-24.28,16.772c-0.384,0.266-0.784,0.51-1.387,0.899
	c1.194-3.693,2.333-7.177,3.447-10.666c3.297-10.337,6.591-20.675,9.87-31.017c0.77-2.428,1.421-4.893,2.236-7.305
	c0.293-0.867,0.042-1.354-0.583-1.844c-4.885-3.832-9.759-7.678-14.649-11.504c-3.769-2.948-7.57-5.854-11.332-8.81
	c-4.326-3.401-8.623-6.838-12.932-10.259C31.85,78.174,31.309,77.748,30.53,77.132z"/>
</svg>
