<?xml version="1.0" encoding="utf-8"?>
<!-- Generator: Adobe Illustrator 16.0.0, SVG Export Plug-In . SVG Version: 6.00 Build 0)  -->
<!DOCTYPE svg PUBLIC "-//W3C//DTD SVG 1.1//EN" "http://www.w3.org/Graphics/SVG/1.1/DTD/svg11.dtd">
<svg version="1.1" id="Capa_1" xmlns="http://www.w3.org/2000/svg" xmlns:xlink="http://www.w3.org/1999/xlink" x="0px" y="0px"
	 width="60px" height="60px" viewBox="0 0 60 60" enable-background="new 0 0 60 60" xml:space="preserve">
<path fill="#FFFFFF" d="M41.329,59.416c0-7.632,0-15.104,0-22.723c2.465,0,4.929,0,7.47,0c0.394-2.995,0.771-5.854,1.167-8.864
	c-2.928,0-5.723,0-8.643,0c0-2.569-0.138-5.013,0.047-7.435c0.125-1.66,1.705-2.61,3.761-2.641c1.635-0.024,3.269-0.021,4.902-0.033
	c0.041,0,0.08-0.012,0.326-0.06c0-1.444,0.006-2.937-0.002-4.428c-0.006-1.062,0.349-2.405-0.164-3.093
	c-0.427-0.572-1.896-0.332-2.89-0.525c-2.676-0.517-5.354-0.367-7.92,0.382c-4.078,1.192-6.903,4.504-7.153,8.858
	c-0.167,2.91-0.031,5.838-0.031,8.899c-2.787,0-5.253,0-7.781,0c0,2.986,0,5.83,0,8.826c2.45,0,4.917,0,7.459,0
	c0,7.649,0,15.147,0,22.835c-0.413,0-0.841,0-1.272,0c-8.787,0-17.573,0.002-26.36,0c-2.35-0.002-3.665-1.302-3.667-3.628
	C0.577,38.584,0.577,21.378,0.581,4.174c0-2.284,1.305-3.587,3.593-3.587C21.38,0.583,38.584,0.583,55.79,0.584
	c2.345,0.002,3.632,1.307,3.632,3.675c0,17.163,0.002,34.328,0,51.491c0,2.355-1.297,3.663-3.63,3.665
	C51.015,59.418,46.238,59.416,41.329,59.416z"/>
</svg>
