<?xml version="1.0" encoding="utf-8"?>
<!-- Generator: Adobe Illustrator 16.0.0, SVG Export Plug-In . SVG Version: 6.00 Build 0)  -->
<!DOCTYPE svg PUBLIC "-//W3C//DTD SVG 1.1//EN" "http://www.w3.org/Graphics/SVG/1.1/DTD/svg11.dtd">
<svg version="1.1" id="Capa_1" xmlns="http://www.w3.org/2000/svg" xmlns:xlink="http://www.w3.org/1999/xlink" x="0px" y="0px"
	 width="150px" height="150px" viewBox="0 0 150 150" enable-background="new 0 0 150 150" xml:space="preserve">
<g>
	<circle fill="#E50A2D" cx="75" cy="75" r="73.715"/>
	<g>
		
			<rect x="62.572" y="61.666" fill="none" stroke="#FFFFFF" stroke-width="2.8889" stroke-linecap="round" stroke-miterlimit="10" width="26.221" height="26.227"/>
		
			<rect x="51.558" y="50.656" fill="none" stroke="#FFFFFF" stroke-width="2.8889" stroke-linecap="round" stroke-miterlimit="10" width="48.25" height="48.244"/>
		<g>
			
				<circle fill="none" stroke="#FFFFFF" stroke-width="2.7682" stroke-linecap="round" stroke-miterlimit="10" cx="75.683" cy="111.73" r="4.924"/>
			
				<line fill="none" stroke="#FFFFFF" stroke-width="2.8889" stroke-linecap="round" stroke-miterlimit="10" x1="75.684" y1="105.698" x2="75.684" y2="98.9"/>
		</g>
		<g>
			<g>
				<path fill="none" stroke="#FFFFFF" stroke-width="2.7682" stroke-linecap="round" stroke-miterlimit="10" d="M87.32,31.336
					c0,2.721-2.207,4.924-4.922,4.924c-2.722,0-4.927-2.203-4.927-4.924c0-2.717,2.205-4.923,4.927-4.923
					C85.113,26.413,87.32,28.619,87.32,31.336z"/>
				
					<line fill="none" stroke="#FFFFFF" stroke-width="2.8889" stroke-linecap="round" stroke-miterlimit="10" x1="82.398" y1="37.367" x2="82.398" y2="50.436"/>
			</g>
			
				<line fill="none" stroke="#FFFFFF" stroke-width="2.7682" stroke-linecap="round" stroke-miterlimit="10" x1="64.045" y1="38.424" x2="64.045" y2="50.656"/>
		</g>
		<g>
			<g>
				
					<circle fill="none" stroke="#FFFFFF" stroke-width="2.7682" stroke-linecap="round" stroke-miterlimit="10" cx="31.914" cy="68.065" r="4.924"/>
				
					<line fill="none" stroke="#FFFFFF" stroke-width="2.8889" stroke-linecap="round" stroke-miterlimit="10" x1="37.945" y1="68.065" x2="51.012" y2="68.065"/>
			</g>
			
				<line fill="none" stroke="#FFFFFF" stroke-width="2.7682" stroke-linecap="round" stroke-miterlimit="10" x1="39" y1="86.416" x2="51.229" y2="86.416"/>
		</g>
		<g>
			<g>
				
					<line fill="none" stroke="#FFFFFF" stroke-width="2.8889" stroke-linecap="round" stroke-miterlimit="10" x1="99.811" y1="68.065" x2="112.881" y2="68.065"/>
			</g>
			
				<line fill="none" stroke="#FFFFFF" stroke-width="2.7682" stroke-linecap="round" stroke-miterlimit="10" x1="99.811" y1="86.416" x2="112.043" y2="86.416"/>
		</g>
	</g>
</g>
</svg>
