<?xml version="1.0" encoding="utf-8"?>
<!-- Generator: Adobe Illustrator 16.0.0, SVG Export Plug-In . SVG Version: 6.00 Build 0)  -->
<!DOCTYPE svg PUBLIC "-//W3C//DTD SVG 1.1//EN" "http://www.w3.org/Graphics/SVG/1.1/DTD/svg11.dtd">
<svg version="1.1" id="Capa_1" xmlns="http://www.w3.org/2000/svg" xmlns:xlink="http://www.w3.org/1999/xlink" x="0px" y="0px"
	 width="150px" height="150px" viewBox="1025 -50 150 150" enable-background="new 1025 -50 150 150" xml:space="preserve">
<g>
	<path fill="#E50A2D" d="M1173.716,25c0,40.711-33.003,73.714-73.719,73.714c-40.71,0-73.713-33.003-73.713-73.714
		s33.003-73.714,73.713-73.714C1140.713-48.714,1173.716-15.711,1173.716,25z"/>
	<path fill="none" stroke="#FFFFFF" stroke-width="2.8889" stroke-linecap="round" stroke-miterlimit="10" d="M1126.143,55.015
		h-23.766c-0.946,0-1.895-0.09-2.816-0.259c-0.963-0.168-1.891-0.413-2.873-0.672c-2.6-0.675-5.549-1.447-10.95-1.447
		c-2.029,0-3.679-2.033-3.679-4.54V16.546c0-2.501,1.649-4.536,3.679-4.536c1.82,0,2.121-0.529,3.423-3.36
		c0.614-1.335,1.376-3.004,2.598-5.009c0.768-1.27,2.195-2.868,3.848-4.721c2.148-2.414,4.814-5.412,5.505-7.327l1.157-6.922
		c0.065-1.94,1.72-3.558,3.672-3.558c2.236,0,4.008,0.954,5.423,2.918c2.962,4.118,3.276,11.928,0.94,23.225h13.84
		c5.958,0,10.809,4.846,10.809,10.803v26.147C1136.951,50.165,1132.101,55.015,1126.143,55.015z M1076.231,55.015h-9.51
		c-2.026,0-3.673-1.65-3.673-3.674v-38.03c0-2.025,1.646-3.676,3.673-3.676h9.506c2.03,0,3.68,1.65,3.68,3.676v38.03
		C1079.907,53.364,1078.258,55.015,1076.231,55.015z"/>
</g>
</svg>
