<?xml version="1.0" encoding="utf-8"?>
<!-- Generator: Adobe Illustrator 16.0.0, SVG Export Plug-In . SVG Version: 6.00 Build 0)  -->
<!DOCTYPE svg PUBLIC "-//W3C//DTD SVG 1.1//EN" "http://www.w3.org/Graphics/SVG/1.1/DTD/svg11.dtd">
<svg version="1.1" id="Capa_1" xmlns="http://www.w3.org/2000/svg" xmlns:xlink="http://www.w3.org/1999/xlink" x="0px" y="0px"
	 width="150px" height="150px" viewBox="0 0 150 150" enable-background="new 0 0 150 150" xml:space="preserve">
<g>
	<circle fill="#E50A2D" cx="75" cy="75" r="73.714"/>
	<path fill="none" stroke="#FFFFFF" stroke-width="2.8889" stroke-linecap="round" stroke-miterlimit="10" d="M85.359,119
		l-8.327-7.744c-0.564-0.529-1.302-0.79-2.021-0.79c-0.724,0-1.314,0.261-1.885,0.79L64.956,119V95.689l10.045,3.455l10.357-3.455
		L85.359,119L85.359,119z M101.236,76.441l-6.581,3.099c-0.618,0.289-1.118,0.793-1.411,1.414l-2.032,4.325l-1.065,2.25
		l-1.884-0.151l-2.946-0.248l-2.413-0.202c-0.685-0.054-1.361,0.133-1.921,0.521l-5.983,4.139l-5.979-4.139
		c-0.49-0.347-1.083-0.525-1.678-0.525c-0.078,0-0.16,0.003-0.242,0.007l-2.415,0.204l-2.945,0.245l-1.889,0.15l-1.06-2.248
		l-2.038-4.326c-0.291-0.621-0.791-1.125-1.413-1.414l-6.578-3.098l0.601-7.25c0.055-0.679-0.128-1.359-0.516-1.92l-4.141-5.98
		l4.141-5.983c0.388-0.558,0.569-1.237,0.516-1.912l-0.601-7.25l6.578-3.105c0.625-0.291,1.122-0.786,1.413-1.406l2.075-4.398
		l0.814-1.732c0.159-0.164,0.342-0.298,0.536-0.424l6.921,0.569c0.684,0.059,1.36-0.121,1.92-0.515l0.742-0.506l5.237-3.632
		l5.242,3.632l0.741,0.506c0.56,0.394,1.236,0.574,1.92,0.515l6.922-0.569c0.193,0.126,0.377,0.267,0.543,0.429l0.807,1.728
		l2.077,4.398c0.29,0.62,0.79,1.115,1.408,1.41l6.581,3.101l-0.603,7.25c-0.054,0.674,0.124,1.354,0.515,1.912l4.142,5.983
		l-4.142,5.98c-0.385,0.561-0.567,1.241-0.515,1.92L101.236,76.441z"/>
</g>
</svg>
