<?xml version="1.0" encoding="utf-8"?>
<!-- Generator: Adobe Illustrator 16.0.0, SVG Export Plug-In . SVG Version: 6.00 Build 0)  -->
<!DOCTYPE svg PUBLIC "-//W3C//DTD SVG 1.1//EN" "http://www.w3.org/Graphics/SVG/1.1/DTD/svg11.dtd">
<svg version="1.1" id="Capa_1" xmlns="http://www.w3.org/2000/svg" xmlns:xlink="http://www.w3.org/1999/xlink" x="0px" y="0px"
	 width="68px" height="68px" viewBox="0 0 68 68" enable-background="new 0 0 68 68" xml:space="preserve">
<rect x="1066" y="-9" fill="#000F28" width="68" height="68"/>
<path fill="#FFFFFF" d="M1109.225,42.936c-1.972-0.149-3.762-0.797-5.5-1.506c-1.983-0.805-3.959-1.688-5.807-2.762
	c-1.53-0.893-2.997-1.977-4.262-3.21c-2.145-2.089-4.172-4.313-6.123-6.586c-1.686-1.964-2.877-4.255-3.676-6.729
	c-0.535-1.656-1.096-3.308-1.55-4.986c-0.489-1.805-0.099-3.56,0.649-5.216c0.668-1.479,1.346-3.004,2.814-3.899
	c1.261-0.77,2.693-0.975,4.139-0.977c0.279,0,0.65,0.357,0.819,0.645c1.002,1.695,1.95,3.423,2.933,5.131
	c0.356,0.622,0.794,1.199,1.132,1.828c0.524,0.974,0.464,1.429-0.354,2.201c-0.856,0.806-1.735,1.6-2.677,2.307
	c-1.331,1.003-1.523,1.796-0.617,3.154c0.992,1.481,1.832,3.071,2.914,4.476c1.781,2.308,3.939,4.236,6.452,5.744
	c0.8,0.482,1.583,0.984,2.394,1.448c1.065,0.608,1.967,0.332,2.771-0.713c0.729-0.953,1.495-1.886,2.31-2.767
	c0.819-0.886,1.298-0.963,2.34-0.366c2.289,1.305,4.541,2.671,6.828,3.976c0.573,0.324,0.864,0.754,0.716,1.366
	c-0.298,1.226-0.468,2.53-1.037,3.623c-0.862,1.637-2.603,2.319-4.229,2.969C1111.534,42.516,1110.355,42.662,1109.225,42.936z"/>
<path fill-rule="evenodd" clip-rule="evenodd" fill="#FFFFFF" d="M46.573,58.445c-2.688-0.205-5.128-1.086-7.497-2.054
	c-2.704-1.096-5.396-2.299-7.914-3.763c-2.085-1.215-4.085-2.692-5.809-4.375c-2.921-2.848-5.686-5.879-8.345-8.977
	c-2.296-2.677-3.921-5.799-5.009-9.171c-0.73-2.257-1.493-4.508-2.112-6.796c-0.667-2.46-0.134-4.852,0.885-7.109
	c0.91-2.015,1.834-4.094,3.837-5.314c1.717-1.049,3.67-1.328,5.639-1.332c0.381,0,0.887,0.487,1.118,0.878
	c1.365,2.311,2.658,4.666,3.996,6.993c0.486,0.848,1.082,1.634,1.543,2.492c0.715,1.328,0.633,1.948-0.48,3
	c-1.168,1.099-2.367,2.18-3.649,3.145c-1.814,1.368-2.076,2.448-0.84,4.299c1.352,2.018,2.497,4.185,3.971,6.1
	c2.428,3.146,5.369,5.774,8.794,7.829c1.09,0.658,2.157,1.342,3.263,1.975c1.452,0.83,2.679,0.452,3.774-0.972
	c0.995-1.3,2.038-2.57,3.147-3.771c1.117-1.207,1.768-1.313,3.188-0.499c3.12,1.778,6.188,3.641,9.306,5.419
	c0.783,0.441,1.18,1.027,0.977,1.862c-0.405,1.669-0.637,3.449-1.414,4.938c-1.175,2.231-3.546,3.161-5.764,4.047
	C49.721,57.872,48.114,58.072,46.573,58.445z"/>
<rect fill-rule="evenodd" clip-rule="evenodd" fill="none" width="68" height="68"/>
</svg>
