<?xml version="1.0" encoding="utf-8"?>
<!-- Generator: Adobe Illustrator 16.0.0, SVG Export Plug-In . SVG Version: 6.00 Build 0)  -->
<!DOCTYPE svg PUBLIC "-//W3C//DTD SVG 1.1//EN" "http://www.w3.org/Graphics/SVG/1.1/DTD/svg11.dtd">
<svg version="1.1" id="Capa_1" xmlns="http://www.w3.org/2000/svg" xmlns:xlink="http://www.w3.org/1999/xlink" x="0px" y="0px"
	 width="200px" height="200px" viewBox="-95 -95 200 200" enable-background="new -95 -95 200 200" xml:space="preserve">
<g>
	<circle fill="#5D5D5D" cx="5" cy="5" r="97.666"/>
	<g>
		<path fill="#FFFFFF" d="M0.891,10.278c1.906,0.561,4.144,0.874,6.039,0.452c11.356-2.533,18.449-9.827,21.55-20.818
			c2.137-7.583,1.516-15.383,0.103-23.055c-1.554-8.436-6.635-12.638-15.066-14.378c-1.432-0.297-2.861,0.021-4.291,0.021
			c-2.809,0-5.616,0-8.425,0c-0.704,0-1.4-0.518-2.112-0.444c-9.145,0.933-15.646,5.964-17.137,15.012
			c-0.932,5.652-1.124,11.26-1.02,17.004C-19.254-3.977-10.565,6.921,0.891,10.278z M13.079-38.249
			c-0.371,0.952-0.695,1.542-0.831,2.176c-0.41,1.915-1.326,2.313-3.328,1.929c-2.381-0.457-4.984-0.607-7.335-0.125
			c-2.358,0.483-3.549,0.12-4.009-2.249c-0.106-0.556-0.36-1.085-0.584-1.74C2.357-40.015,7.643-40.012,13.079-38.249z
			 M-16.065-22.788c0.212-0.188,0.424-0.379,0.638-0.568c0.155,0.424,0.225,0.912,0.481,1.262c1.394,1.891,2.829,1.837,4.505,0.222
			c5.932-5.723,13.089-7.604,20.936-5.534c3.208,0.845,6.21,2.882,8.991,4.83c3.507,2.456,3.368,2.654,6.492-0.452
			C26.792-13.82,24.876-5.7,18.246,0.746c-1.921,1.868-4.251,3.382-6.572,4.754C6.995,8.268,2.282,7.865-2.345,5.183
			C-11.2,0.049-15.743-7.643-16.059-17.847C-16.11-19.493-16.065-21.142-16.065-22.788z"/>
		<path fill="#FFFFFF" d="M50.72,41.132c-0.941-4.244-2-8.48-3.36-12.606c-1.406-4.268-4.048-7.606-8.195-9.769
			c-5.984-3.118-11.853-6.457-17.727-9.78c-1.335-0.759-2.318-0.579-3.607,0.153c-2.413,1.373-5.02,2.399-7.463,3.728
			c-0.916,0.497-1.899,1.286-2.33,2.19c-1.09,2.291-1.881,4.724-3.025,7.712c-1.098-2.88-1.87-5.317-2.972-7.595
			c-0.469-0.97-1.517-1.811-2.5-2.35c-2.361-1.301-4.922-2.247-7.239-3.61c-1.372-0.808-2.385-0.991-3.817-0.177
			c-6.15,3.504-12.348,6.921-18.563,10.306c-2.721,1.481-4.879,3.559-5.897,6.415c-1.783,5.014-3.338,10.117-4.728,15.253
			c-0.288,1.06,0.247,2.661,0.946,3.617c1.853,2.536,4.133,4.388,6.68,5.843c5.455,4.489,20.438,7.713,38.079,7.713
			c15.68,0,29.258-2.548,35.916-6.267c0.001,0.007,0.004,0.014,0.004,0.021c0.037-0.028,0.072-0.057,0.11-0.085
			c1.292-0.732,2.319-1.508,3.039-2.32c2.025-1.601,3.952-3.254,5.753-5.03C50.552,43.776,50.948,42.163,50.72,41.132z"/>
	</g>
	<path fill="#5D5D5D" d="M13.153,33.26c1.334,0,2.674,0,4.009,0c0.111,0,0.199,0.005,0.248-0.139
		c0.69-2.136,1.383-4.269,2.079-6.405c0.134-0.417,0.273-0.836,0.405-1.256c0.058-0.192,0.16-0.315,0.378-0.325
		c0.229-0.004,0.34,0.13,0.402,0.325c0.184,0.556,0.361,1.109,0.543,1.669c0.353,1.084,0.704,2.169,1.054,3.253
		c0.287,0.886,0.579,1.771,0.856,2.66c0.05,0.167,0.12,0.223,0.295,0.223c2.638-0.005,5.28-0.005,7.915,0
		c0.133,0,0.285,0.015,0.387,0.084c0.214,0.155,0.172,0.469-0.072,0.646c-0.424,0.313-0.85,0.619-1.278,0.93
		c-1.156,0.839-2.311,1.677-3.467,2.519c-0.577,0.42-1.155,0.841-1.736,1.254c-0.12,0.088-0.148,0.164-0.102,0.306
		c0.603,1.835,1.2,3.679,1.803,5.517c0.228,0.699,0.447,1.403,0.682,2.1c0.063,0.194,0.048,0.356-0.111,0.49
		c-0.176,0.144-0.348,0.089-0.518-0.032c-0.704-0.514-1.413-1.028-2.119-1.541c-1.166-0.849-2.334-1.694-3.505-2.539
		c-0.287-0.21-0.574-0.416-0.854-0.634c-0.115-0.088-0.208-0.088-0.328,0c-1.135,0.83-2.273,1.655-3.411,2.482
		c-1.024,0.744-2.044,1.485-3.063,2.228c-0.158,0.115-0.325,0.173-0.498,0.051c-0.189-0.135-0.189-0.32-0.119-0.524
		c0.566-1.742,1.134-3.49,1.696-5.232c0.256-0.783,0.505-1.565,0.766-2.344c0.051-0.15,0.029-0.238-0.107-0.34
		c-1.808-1.307-3.607-2.619-5.413-3.931c-0.351-0.256-0.7-0.505-1.053-0.763c-0.169-0.12-0.246-0.28-0.186-0.489
		c0.061-0.203,0.214-0.246,0.406-0.246C10.48,33.26,11.817,33.26,13.153,33.26z"/>
</g>
</svg>
