<?xml version="1.0" encoding="utf-8"?>
<!-- Generator: Adobe Illustrator 16.0.0, SVG Export Plug-In . SVG Version: 6.00 Build 0)  -->
<!DOCTYPE svg PUBLIC "-//W3C//DTD SVG 1.1//EN" "http://www.w3.org/Graphics/SVG/1.1/DTD/svg11.dtd">
<svg version="1.1" id="Capa_1" xmlns="http://www.w3.org/2000/svg" xmlns:xlink="http://www.w3.org/1999/xlink" x="0px" y="0px"
	 width="68px" height="68px" viewBox="0 0 68 68" enable-background="new 0 0 68 68" xml:space="preserve">
<rect x="1066" y="-9" fill="#000F28" width="68" height="68"/>
<path fill="#FFFFFF" d="M1109.225,42.936c-1.972-0.149-3.762-0.797-5.5-1.506c-1.983-0.805-3.959-1.688-5.807-2.762
	c-1.53-0.893-2.997-1.977-4.262-3.21c-2.145-2.089-4.172-4.313-6.123-6.586c-1.686-1.964-2.877-4.255-3.676-6.729
	c-0.535-1.656-1.096-3.308-1.55-4.986c-0.489-1.805-0.099-3.56,0.649-5.216c0.668-1.479,1.346-3.004,2.814-3.899
	c1.261-0.77,2.693-0.975,4.139-0.977c0.279,0,0.65,0.357,0.819,0.645c1.002,1.695,1.95,3.423,2.933,5.131
	c0.356,0.622,0.794,1.199,1.132,1.828c0.524,0.974,0.464,1.429-0.354,2.201c-0.856,0.806-1.735,1.6-2.677,2.307
	c-1.331,1.003-1.523,1.796-0.617,3.154c0.992,1.481,1.832,3.071,2.914,4.476c1.781,2.308,3.939,4.236,6.452,5.744
	c0.8,0.482,1.583,0.984,2.394,1.448c1.065,0.608,1.967,0.332,2.771-0.713c0.729-0.953,1.495-1.886,2.31-2.767
	c0.819-0.886,1.298-0.963,2.34-0.366c2.289,1.305,4.541,2.671,6.828,3.976c0.573,0.324,0.864,0.754,0.716,1.366
	c-0.298,1.226-0.468,2.53-1.037,3.623c-0.862,1.637-2.603,2.319-4.229,2.969C1111.534,42.516,1110.355,42.662,1109.225,42.936z"/>
<rect fill-rule="evenodd" clip-rule="evenodd" fill="none" width="68" height="68"/>
<path fill-rule="evenodd" clip-rule="evenodd" fill="#FFFFFF" d="M59.459,28.381c0,6.184,0.029,12.349-0.019,18.513
	c-0.015,1.902-2.041,3.512-4.507,3.512c-9.878-0.005-19.752-0.003-29.626-0.003c-3.971,0-7.938-0.059-11.904,0.021
	c-2.711,0.053-4.903-1.738-4.87-4.014c0.083-5.744,0.027-11.488,0.027-17.23c0-0.269,0-0.541,0-0.666
	c2.612,1.478,5.281,2.97,7.929,4.491c3.927,2.255,7.807,4.568,11.771,6.771c1.729,0.961,3.626,1.702,5.818,1.691
	c2.124-0.015,3.972-0.735,5.646-1.668c5.615-3.129,11.165-6.331,16.726-9.524C57.468,29.694,58.426,29.034,59.459,28.381z
	 M13.266,17.581c-3.122-0.016-4.475,1.773-4.692,3.838c-0.207,1.936,1.084,3.414,2.644,4.618c1.661,1.286,3.563,2.37,5.432,3.458
	c4.384,2.557,8.805,5.073,13.232,7.583c1.222,0.692,2.488,1.359,4.054,1.389c1.613,0.025,2.915-0.656,4.159-1.356
	c5.537-3.124,11.081-6.235,16.542-9.44c2.252-1.324,4.04-2.97,4.696-5.354c0.671-2.433-1.534-4.767-4.631-4.741
	c-6.935,0.062-13.873,0.018-20.807,0.018C27.016,17.592,20.141,17.617,13.266,17.581z"/>
</svg>
