<?xml version="1.0" encoding="utf-8"?>
<!-- Generator: Adobe Illustrator 16.0.0, SVG Export Plug-In . SVG Version: 6.00 Build 0)  -->
<!DOCTYPE svg PUBLIC "-//W3C//DTD SVG 1.1//EN" "http://www.w3.org/Graphics/SVG/1.1/DTD/svg11.dtd">
<svg version="1.1" id="Capa_1" xmlns="http://www.w3.org/2000/svg" xmlns:xlink="http://www.w3.org/1999/xlink" x="0px" y="0px"
	 width="60px" height="60px" viewBox="0 0 60 60" enable-background="new 0 0 60 60" xml:space="preserve">
<g>
	<path fill="#FFFFFF" d="M59.561,24.321c-0.02-2.569-0.129-5.141-0.294-7.704c-0.117-1.805-0.232-3.634-0.621-5.39
		c-1.143-5.171-4.192-8.759-9.504-9.688c-3.999-0.701-8.103-0.879-12.168-1.083c-2.41-0.121-4.838,0.23-7.258,0.236
		c-2.071,0.006-4.145-0.26-6.213-0.252c-1.872,0.008-3.741,0.228-5.612,0.353c-0.01-0.086-0.018-0.173-0.028-0.26
		c-2.19,0.262-4.417,0.365-6.566,0.822c-5.177,1.1-8.786,4.114-9.718,9.452C0.887,14.754,0.7,18.8,0.462,22.811
		c-0.115,1.96,0.242,3.944,0.24,5.917c-0.002,2.119-0.262,4.241-0.254,6.36c0.01,2.721,0.129,5.44,0.294,8.157
		c0.109,1.807,0.25,3.632,0.609,5.4c1.121,5.499,4.473,9.026,9.995,9.97c3.815,0.651,7.733,0.791,11.613,0.934
		c2.809,0.104,5.635-0.226,8.454-0.237c2.071-0.011,4.144,0.25,6.215,0.254c1.874,0.004,3.749-0.135,5.618-0.288
		c1.807-0.147,3.638-0.238,5.4-0.619c6.445-1.397,9.361-5.268,10.269-11.279c0.549-3.642,0.547-7.379,0.638-11.077
		c0.059-2.317-0.234-4.639-0.248-6.959C59.294,27.671,59.573,25.995,59.561,24.321z M29.949,48.399
		C18.837,48.314,11.473,39.982,11.6,29.901c0.139-11.1,8.377-17.997,18.458-18.402c10.801,0.537,18.379,8.136,18.351,18.511
		C48.378,40.801,40.354,48.479,29.949,48.399z M49.062,15.091c-2.5-0.18-4.124-1.714-4.116-4.299
		c0.006-2.511,1.603-4.074,4.158-4.074c2.63,0,4.192,1.563,4.19,4.19C53.624,13.002,51.436,15.261,49.062,15.091z"/>
	<path fill="#FFFFFF" d="M41.958,29.947c0.194,6.514-5.523,12.016-11.888,12.058c-6.431,0.042-12.253-5.562-12.058-12.372
		c0.175-6.07,5.503-11.785,12.299-11.626C36.468,18.152,42.087,23.479,41.958,29.947z"/>
</g>
</svg>
