<?xml version="1.0" encoding="utf-8"?>
<!-- Generator: Adobe Illustrator 16.0.0, SVG Export Plug-In . SVG Version: 6.00 Build 0)  -->
<!DOCTYPE svg PUBLIC "-//W3C//DTD SVG 1.1//EN" "http://www.w3.org/Graphics/SVG/1.1/DTD/svg11.dtd">
<svg version="1.1" id="Capa_1" xmlns="http://www.w3.org/2000/svg" xmlns:xlink="http://www.w3.org/1999/xlink" x="0px" y="0px"
	 width="10px" height="10px" viewBox="29 29 10 10" enable-background="new 29 29 10 10" xml:space="preserve">
<path fill-rule="evenodd" clip-rule="evenodd" fill="#5D5D5D" d="M30.992,32.775c0.563,0,1.127,0,1.69,0
	c0.047,0,0.084,0.003,0.104-0.058c0.291-0.9,0.583-1.799,0.876-2.699c0.057-0.176,0.116-0.353,0.171-0.53
	c0.025-0.081,0.068-0.133,0.159-0.136c0.097-0.003,0.144,0.054,0.17,0.136c0.077,0.234,0.153,0.468,0.229,0.703
	c0.148,0.458,0.296,0.915,0.444,1.372c0.121,0.373,0.244,0.745,0.361,1.12c0.021,0.071,0.05,0.094,0.125,0.094
	c1.111-0.002,2.224-0.002,3.334,0c0.056,0,0.121,0.006,0.163,0.036c0.09,0.065,0.072,0.197-0.03,0.272
	c-0.179,0.132-0.359,0.26-0.539,0.391c-0.487,0.354-0.974,0.708-1.461,1.062c-0.243,0.177-0.486,0.355-0.731,0.529
	c-0.051,0.037-0.063,0.069-0.044,0.128c0.254,0.774,0.507,1.55,0.76,2.325c0.096,0.295,0.189,0.591,0.287,0.885
	c0.027,0.081,0.021,0.15-0.047,0.206c-0.074,0.061-0.146,0.038-0.217-0.013c-0.297-0.217-0.596-0.434-0.893-0.65
	c-0.492-0.357-0.984-0.714-1.477-1.07c-0.121-0.088-0.242-0.175-0.36-0.266c-0.049-0.038-0.087-0.038-0.138-0.001
	c-0.479,0.35-0.958,0.697-1.438,1.046c-0.431,0.313-0.861,0.626-1.291,0.939c-0.066,0.049-0.136,0.073-0.21,0.021
	c-0.079-0.057-0.079-0.135-0.05-0.221c0.239-0.734,0.478-1.47,0.716-2.204c0.107-0.33,0.212-0.66,0.322-0.988
	c0.021-0.064,0.012-0.101-0.046-0.143c-0.761-0.551-1.52-1.104-2.28-1.657c-0.148-0.107-0.296-0.213-0.444-0.321
	c-0.071-0.051-0.104-0.118-0.078-0.206c0.025-0.086,0.09-0.104,0.171-0.104C29.866,32.775,30.429,32.775,30.992,32.775z"/>
</svg>
