<?xml version="1.0" encoding="utf-8"?>
<!-- Generator: Adobe Illustrator 16.0.0, SVG Export Plug-In . SVG Version: 6.00 Build 0)  -->
<!DOCTYPE svg PUBLIC "-//W3C//DTD SVG 1.1//EN" "http://www.w3.org/Graphics/SVG/1.1/DTD/svg11.dtd">
<svg version="1.1" id="Capa_1" xmlns="http://www.w3.org/2000/svg" xmlns:xlink="http://www.w3.org/1999/xlink" x="0px" y="0px"
	 width="299.5px" height="110.5px" viewBox="0 0 299.5 110.5" enable-background="new 0 0 299.5 110.5" xml:space="preserve">
<g>
	<path fill="#1D4991" d="M166.977,74.117h-34.455c-2.748,0-5.537-2.949-7.575-5.433C83.09,69.02,42.402,70.098,4.001,72.231
		l-2.723,0.064l0.548-2.716c1.848-9.017,5.933-20.312,11.5-31.769c6.104-12.555,13.447-24.129,20.145-31.735l0.224-0.224
		c1.62-1.363,4.409-3.017,8.506-3.139c34.18-0.924,70.363-1.394,107.549-1.394c37.09,0,73.189,0.466,107.292,1.384l0.123,0.006
		c5.551,0.166,8.695,3.197,9.529,4.125c6.622,7.737,13.527,18.718,19.479,30.955c5.577,11.475,9.661,22.732,11.501,31.7l0.549,2.672
		l-2.724-0.151c-37.232-2.069-79.029-2.99-120.946-3.325C172.513,71.168,169.725,74.117,166.977,74.117z"/>
	<path fill="#E50A2D" d="M284.281,38.708c-6.063-12.469-12.972-23.247-19.152-30.469c-0.632-0.704-3.288-3.307-8.082-3.431
		c-0.022,0-0.04-0.002-0.063-0.004C223.901,3.913,187.703,3.42,149.75,3.42c-38.05,0-74.335,0.495-107.486,1.392
		c-3.607,0.106-5.99,1.612-7.214,2.643c-6.352,7.213-13.545,18.323-19.833,31.254C9.523,50.422,5.628,61.457,3.885,69.957
		c36.216-2.013,77.691-3.176,122.07-3.516c1.447,1.886,4.3,5.309,6.567,5.309h15.453h3.551h15.451c2.267,0,5.119-3.423,6.566-5.309
		c44.378,0.34,85.855,1.566,122.07,3.579C293.87,61.52,289.976,50.422,284.281,38.708z"/>
	<path fill="#002B7E" d="M143.238,3.425C107.559,3.479,73.517,3.969,42.262,4.821c-3.606,0.107-5.989,1.623-7.214,2.66
		c-6.351,7.263-13.544,18.45-19.832,31.469C9.523,50.745,5.628,61.398,3.885,69.957c36.216-2.026,77.691-2.865,122.069-3.207
		c1.447,1.897,4.301,5.218,6.568,5.218h7.547L143.238,3.425z"/>
	<path fill="#5D5D5D" d="M42.006,93.878c2.183,0.608,3.276,1.739,3.276,3.4v7.467c0,2.954-1.508,4.437-4.521,4.437h-8.004V79.402
		h6.803c3.537,0,5.305,1.799,5.305,5.392v5.726c0,1.712-0.95,2.767-2.859,3.148V93.878z M36.737,91.97h1.87
		c1.52,0,2.278-0.717,2.278-2.157v-4.644c0-1.439-0.595-2.158-1.781-2.158h-2.366V91.97z M36.737,105.574h2.988
		c1.05,0,1.576-0.43,1.576-1.284v-6.597c0-1.411-0.789-2.116-2.366-2.116h-2.198V105.574z M74.271,109.182H70.29v-10.95
		l-4.892-18.829h3.937l2.99,12.939h0.124l2.694-12.939h3.942l-4.813,18.829V109.182z M123.533,109.182V79.402h6.928
		c3.731,0,5.598,1.91,5.598,5.725v19.74c0,2.877-1.59,4.314-4.77,4.314H123.533z M127.516,105.574h2.987
		c1.048,0,1.572-0.443,1.572-1.331V85.169c0-1.439-0.592-2.158-1.784-2.158h-2.776V105.574z M162.435,109.182h-3.983V84.504
		c0-3.398,1.594-5.102,4.771-5.102h2.985c3.18,0,4.771,1.703,4.771,5.102v24.678h-3.98V98.275h-4.563V109.182z M166.998,94.667
		v-9.915c0-1.16-0.58-1.741-1.745-1.741h-1.076c-1.158,0-1.742,0.581-1.742,1.741v9.915H166.998z M206.065,79.402l-4.813,29.779
		h-4.727l-4.812-29.779h3.942l3.235,22.729l3.233-22.729H206.065z M227.42,109.182V79.402h3.987v29.779H227.42z M254.219,109.182
		V79.402h6.924c3.731,0,5.6,1.91,5.6,5.725v19.74c0,2.877-1.59,4.314-4.772,4.314H254.219z M258.193,105.574h2.989
		c1.05,0,1.579-0.443,1.579-1.331V85.169c0-1.439-0.597-2.158-1.783-2.158h-2.785V105.574z"/>
	<g>
		<g>
			<path fill="#FFFFFF" d="M115.006,18.032c-1.679,0.063-3.357,0.143-5.034,0.107c-0.872-0.019-1.194,0.243-1.383,1.126
				c-2.286,10.62-4.616,21.226-6.947,31.836c-0.322,1.473-0.689,2.934-1.08,4.391c-0.063,0.232-0.353,0.582-0.544,0.583
				c-2.67,0.039-5.341,0.026-7.983,0.026c3.248-12.553,6.483-25.063,9.757-37.711c-2.472,0-4.652,0-6.952,0
				c0.385-1.413,0.728-2.78,1.159-4.119c0.061-0.187,0.552-0.324,0.848-0.335c3.358-0.113,6.712-0.2,10.069-0.287
				c2.844-0.074,5.688-0.14,8.532-0.206c0.279-0.007,0.56,0,1.013,0c-0.25,1.484-0.474,2.898-0.758,4.3
				C115.671,17.885,115.25,18.026,115.006,18.032z M93.765,14.105c-1.823,0-3.555,0.042-5.284-0.017
				c-0.747-0.026-1.015,0.254-1.227,0.933c-2.409,7.703-4.835,15.406-7.294,23.093c-1.029,3.221-2.149,6.416-3.242,9.618
				c-0.514,1.502-1.464,2.66-3.099,2.823c-1.577,0.16-3.185,0.126-4.77,0.024c-1.23-0.077-1.724-0.89-1.471-2.096
				c0.063-0.302,0.178-0.6,0.285-0.894c3.568-9.742,7.141-19.486,10.707-29.235c0.455-1.245,0.858-2.512,1.259-3.693
				c-1.797,0-3.523,0.032-5.247-0.011c-0.754-0.021-1.06,0.295-1.33,0.979c-4.18,10.577-8.4,21.141-12.597,31.711
				c-0.377,0.95-0.752,1.916-0.968,2.908c-0.716,3.291,0.624,5.428,3.966,5.693c3.501,0.275,7.041,0.106,10.563,0.091
				c0.644-0.007,1.294-0.18,1.927-0.338c4.449-1.128,6.997-4.137,8.237-8.396c3.149-10.808,6.277-21.62,9.411-32.434
				C93.668,14.606,93.714,14.337,93.765,14.105z M66.219,21.531c-4.65,11.281-9.324,22.55-14.01,33.813
				c-0.11,0.269-0.428,0.633-0.657,0.64c-2.383,0.046-4.768,0.026-7.355,0.026c2.5-5.398,4.922-10.623,7.388-15.949
				c-0.347-0.042-0.56-0.091-0.775-0.091c-2.248,0.01-4.495,0.05-6.742,0.028c-0.586-0.006-0.846,0.238-1.089,0.722
				c-2.41,4.841-4.854,9.66-7.251,14.504c-0.311,0.628-0.67,0.847-1.366,0.834c-2.211-0.049-4.425-0.018-6.775-0.018
				c0.154-0.343,0.237-0.569,0.351-0.781c5.366-10.16,10.733-20.315,16.097-30.475c0.45-0.856,0.854-1.737,1.294-2.599
				c2.17-4.237,5.742-6.324,10.395-6.678c2.012-0.155,4.033-0.242,6.052-0.251c0.979-0.002,1.995,0.137,2.934,0.415
				c1.64,0.487,2.396,1.708,2.17,3.398C66.77,19.907,66.541,20.751,66.219,21.531z M58.366,19.73
				c-1.017-0.053-2.051,0.007-3.064,0.118c-1.674,0.186-2.893,1.001-3.588,2.622c-0.851,1.986-1.816,3.92-2.74,5.876
				c-1.031,2.181-2.068,4.356-3.122,6.583c2.628,0,5.125,0.012,7.621-0.022c0.204-0.002,0.494-0.273,0.589-0.487
				c1.852-4.25,3.695-8.503,5.505-12.772C60.056,20.496,59.622,19.794,58.366,19.73z M134.595,13.619
				c-3.277-0.397-6.642-0.323-9.955-0.174c-4.384,0.2-6.742,2.457-7.453,6.783c-1.486,9.037-2.949,18.077-4.398,27.118
				c-0.192,1.176-0.372,2.369-0.375,3.553c-0.002,1.977,0.967,3.463,2.791,4.213c1.061,0.433,2.236,0.774,3.369,0.808
				c3.381,0.104,6.77,0.088,10.152,0c1.085-0.029,2.201-0.319,3.237-0.681c2.33-0.816,3.976-2.42,4.424-4.883
				c0.422-2.317,0.57-4.678,0.846-7.085c-0.25,0.021-0.316,0.006-0.359,0.032c-2.326,1.535-4.655,3.064-6.968,4.625
				c-0.204,0.138-0.354,0.428-0.427,0.679c-0.416,1.424-1.205,2.124-2.688,2.174c-1.562,0.049-3.13,0.06-4.691-0.011
				c-1.831-0.083-2.509-1.017-2.246-2.821c0.666-4.529,1.321-9.062,1.951-13.599c0.634-4.562,1.222-9.132,1.85-13.7
				c0.205-1.5,0.886-2.3,2.318-2.415c1.577-0.129,3.182-0.132,4.761-0.015c1.316,0.103,1.859,0.927,1.745,2.251
				c-0.111,1.275-0.249,2.55-0.369,3.822c-0.111,1.148-0.214,2.298-0.331,3.562c1.164,0,2.218-0.073,3.257,0.022
				c0.875,0.083,1.25-0.249,1.541-1.04c0.674-1.842,1.455-3.643,2.178-5.469C140.132,17.894,138.261,14.066,134.595,13.619z"/>
			<path fill="#FFFFFF" d="M145.883,18.127c-0.079-0.356-0.042-0.803,0.109-1.135c1.073-2.43,3.15-3.43,5.62-3.696
				c1.32-0.139,2.666-0.022,4.003-0.022c0.002-0.087,0.01-0.171,0.01-0.256c1.922,0.179,3.865,0.226,5.753,0.568
				c3.347,0.608,5.128,2.758,5.309,6.145c0.077,1.393,0.071,2.787,0.131,4.18c0.022,0.467-0.11,0.675-0.603,0.667
				c-1.936-0.015-3.866-0.023-5.803-0.006c-0.52,0.006-0.614-0.243-0.609-0.68c0.017-0.968,0.018-1.935,0-2.9
				c-0.039-2.157-0.874-3.002-3.007-3.038c-0.738-0.012-1.483-0.032-2.217,0.038c-1.447,0.135-2.297,0.965-2.392,2.418
				c-0.129,2.099-0.2,4.204-0.246,6.305c-0.015,0.704-0.251,0.953-0.953,0.905c-0.705-0.045-1.422-0.026-2.128,0.034
				c-0.584,0.051-0.785-0.202-0.907-0.733C147.277,23.986,146.554,21.063,145.883,18.127z M244.886,48.887
				c-1.252-3.388-2.583-6.747-3.856-10.128c-0.749-2.002-2.068-3.432-4.058-4.242c-1.314-0.536-2.624-1.087-3.946-1.613
				c-2.882-1.147-5.764-2.282-8.646-3.42c-0.86-0.341-1.371-0.977-1.612-1.856c-0.604-2.164-1.23-4.316-1.819-6.484
				c-0.322-1.184,0.155-1.956,1.374-2.012c1.1-0.051,2.219,0.044,3.303,0.232c1.149,0.192,1.896,0.977,2.266,2.087
				c0.297,0.893,0.604,1.777,0.86,2.678c0.135,0.49,0.374,0.679,0.892,0.688c1.934,0.016,3.869,0.083,5.803,0.125
				c0.126,0.002,0.254-0.04,0.436-0.07c-0.472-1.296-0.914-2.518-1.368-3.742c-1.125-3.038-3.287-4.968-6.399-5.73
				c-3.396-0.831-6.886-0.933-10.348-0.621c-3.186,0.29-4.513,2.236-3.831,5.339c0.672,3.082,1.461,6.138,2.225,9.199
				c0.453,1.826,1.556,3.148,3.271,3.915c1.48,0.662,2.975,1.291,4.479,1.895c2.798,1.121,5.606,2.21,8.408,3.318
				c0.813,0.32,1.384,0.884,1.669,1.719c0.915,2.66,1.858,5.312,2.743,7.985c0.452,1.375-0.136,2.231-1.598,2.329
				c-1.046,0.07-2.108,0.078-3.15-0.024c-1.674-0.165-2.866-1.019-3.362-2.7c-0.145-0.49-0.347-0.967-0.447-1.467
				c-0.129-0.642-0.441-0.862-1.111-0.848c-1.992,0.044-3.983,0.011-5.977,0.013c-0.273,0-0.546,0.031-1.049,0.058
				c0.581,1.676,1.021,3.26,1.676,4.755c0.948,2.172,2.594,3.76,4.802,4.618c1.362,0.528,2.829,0.984,4.273,1.072
				c2.977,0.182,5.97,0.146,8.953,0.082c1.004-0.02,2.038-0.278,2.994-0.61c1.95-0.678,2.813-1.997,2.682-4.051
				C245.36,50.539,245.179,49.675,244.886,48.887z M167.031,35.271c-0.006-0.409,0.03-0.792-0.59-0.789
				c-3.328,0.006-6.656-0.021-9.988-0.007c-0.177,0-0.515,0.233-0.516,0.365c-0.037,1.637-0.026,3.275-0.026,5.047
				c1.235,0,2.465,0,3.646,0c0,3.674,0,7.216,0,10.813c-2.059,0-4.017,0.084-5.966-0.025c-1.561-0.09-2.225-0.87-2.531-2.414
				c-0.008-0.047-0.024-0.096-0.042-0.141l-7.263-5.613c-0.162,2.536-0.377,4.91-0.417,7.286c-0.049,2.865,1.417,4.847,4.182,5.615
				c1.408,0.388,2.908,0.567,4.371,0.592c4.894,0.076,9.788,0.031,14.683,0.07c0.712,0.004,0.917-0.204,0.896-0.917
				c-0.113-3.726-0.189-7.452-0.268-11.177C167.137,41.073,167.086,38.171,167.031,35.271z M271.882,52.111
				c-0.133-1.082-0.405-2.202-0.88-3.169c-1.729-3.491-3.572-6.924-5.366-10.383c-0.918-1.777-2.321-3.003-4.179-3.705
				c-1.782-0.672-3.578-1.301-5.368-1.952c-2.697-0.978-5.399-1.957-8.093-2.943c-0.792-0.287-1.354-0.827-1.666-1.612
				c-0.864-2.134-1.742-4.262-2.576-6.406c-0.464-1.198-0.031-1.906,1.261-1.955c1.015-0.038,2.054,0.027,3.057,0.202
				c1.277,0.222,2.206,1.002,2.746,2.203c0.369,0.829,0.76,1.653,1.088,2.498c0.185,0.469,0.448,0.641,0.951,0.647
				c1.877,0.031,3.755,0.103,5.63,0.157c0.186,0.002,0.369-0.026,0.697-0.051c-0.665-1.316-1.275-2.524-1.884-3.739
				c-1.545-3.052-4.033-5.017-7.36-5.525c-3.129-0.482-6.333-0.538-9.507-0.678c-0.764-0.034-1.578,0.246-2.308,0.536
				c-1.313,0.523-1.948,1.653-1.825,3.062c0.039,0.451,0.093,0.918,0.241,1.338c1.118,3.161,2.229,6.328,3.412,9.464
				c0.621,1.642,1.824,2.805,3.451,3.48c1.287,0.532,2.583,1.047,3.891,1.528c3.146,1.159,6.307,2.291,9.461,3.435
				c0.901,0.327,1.734,0.763,2.169,1.679c1.266,2.673,2.55,5.34,3.766,8.036c0.579,1.282,0.027,2.108-1.387,2.212
				c-0.794,0.059-1.593,0.042-2.387,0.03c-2.245-0.032-3.878-0.975-4.679-3.155c-0.139-0.372-0.354-0.722-0.458-1.1
				c-0.179-0.643-0.573-0.794-1.202-0.782c-1.85,0.04-3.698,0.014-5.547,0.009c-0.415,0-0.832,0-1.432,0
				c0.487,1.185,0.869,2.221,1.328,3.22c1.828,3.946,4.869,6.401,9.165,7.132c3.751,0.638,7.543,0.447,11.315,0.181
				c0.908-0.065,1.839-0.402,2.675-0.79C271.357,54.624,272.059,53.518,271.882,52.111z M220.978,55
				c0.083,0.297,0.167,0.594,0.279,1.003c-0.632,0-1.166,0-1.697,0c-1.736-0.005-3.478-0.057-5.206,0.005
				c-0.815,0.027-1.174-0.195-1.369-1.033c-1.099-4.797-2.281-9.573-3.39-14.366c-0.154-0.676-0.428-0.86-1.08-0.854
				c-2.188,0.024-4.38-0.008-6.569-0.018c-0.279-0.002-0.553,0-1,0c1.061,5.465,2.094,10.804,3.143,16.194c-2.631,0-5.21,0-7.896,0
				c-0.264-1.523-0.562-3.051-0.789-4.59c-1.496-10.208-2.984-20.421-4.471-30.638c-0.595-4.107,0.964-6.228,5.084-6.41
				c3.001-0.132,6.039-0.01,9.021,0.333c3.754,0.43,6.066,2.699,6.999,6.389c2.122,8.379,4.259,16.754,6.431,25.12
				C219.238,49.106,220.139,52.045,220.978,55z M208.15,34.246c-0.951-4.453-1.886-8.905-2.859-13.352
				c-0.244-1.113-1.03-1.83-2.125-1.961c-1.318-0.157-2.668-0.198-3.994-0.121c-1.172,0.07-1.707,0.854-1.51,2.018
				c0.738,4.349,1.5,8.692,2.28,13.032c0.045,0.227,0.357,0.574,0.548,0.579c2.527,0.038,5.054,0.025,7.626,0.025
				C208.132,34.351,208.16,34.296,208.15,34.246z M192.389,50.151c-2.529,0.036-5.064,0.026-7.596,0.028c-2.129,0-4.256,0-6.433,0
				c-0.055-0.417-0.124-0.748-0.145-1.081c-0.523-7.747-1.041-15.498-1.563-23.246c-0.254-3.776-0.536-7.548-0.764-11.327
				c-0.045-0.739-0.291-0.98-1.028-0.932c-0.991,0.064-1.989,0.024-2.987,0.027c-1.271,0.002-2.539,0-3.851,0
				c-0.017,0.335-0.045,0.553-0.034,0.773c0.438,13.537,0.885,27.071,1.302,40.606c0.024,0.79,0.207,1.065,1.054,1.065
				c7.681-0.024,15.363,0,23.045,0.01c0.275,0,0.552,0,0.948,0c-0.378-1.813-0.757-3.496-1.064-5.195
				C193.17,50.316,192.955,50.146,192.389,50.151z"/>
			<g>
				<defs>
					<path id="SVGID_1_" d="M141.517,34.477c0,0,14.44,0.029,31.527,0c13.837-0.022,29.955-0.075,45.712,0.117
						c42.209,0.513,64.791,2.627,64.791,2.627c-5.886-11.836-12.485-22.05-18.418-28.982c-0.632-0.704-3.288-3.307-8.084-3.431
						c-0.021,0-0.039-0.002-0.061-0.004C223.901,3.913,187.703,3.42,149.75,3.42c-2.181,0-4.344,0.005-6.512,0.008L141.517,34.477z"
						/>
				</defs>
				<use xlink:href="#SVGID_1_"  overflow="visible" fill="#FFFFFF"/>
				<clipPath id="SVGID_2_">
					<use xlink:href="#SVGID_1_"  overflow="visible"/>
				</clipPath>
				<path clip-path="url(#SVGID_2_)" fill="#E50A2D" d="M145.883,18.127c-0.079-0.356-0.042-0.803,0.109-1.135
					c1.073-2.43,3.15-3.43,5.62-3.696c1.32-0.139,2.666-0.022,4.003-0.022c0.002-0.087,0.01-0.171,0.01-0.256
					c1.922,0.179,3.865,0.226,5.753,0.568c3.347,0.608,5.128,2.758,5.309,6.145c0.077,1.393,0.071,2.787,0.131,4.18
					c0.022,0.467-0.11,0.675-0.603,0.667c-1.936-0.015-3.866-0.023-5.803-0.006c-0.52,0.006-0.614-0.243-0.609-0.68
					c0.017-0.968,0.018-1.935,0-2.9c-0.039-2.157-0.874-3.002-3.007-3.038c-0.738-0.012-1.483-0.032-2.217,0.038
					c-1.447,0.135-2.297,0.965-2.392,2.418c-0.129,2.099-0.2,4.204-0.246,6.305c-0.015,0.704-0.251,0.953-0.953,0.905
					c-0.705-0.045-1.422-0.026-2.128,0.034c-0.584,0.051-0.785-0.202-0.907-0.733C147.277,23.986,146.554,21.063,145.883,18.127z
					 M244.886,48.887c-1.252-3.388-2.583-6.747-3.856-10.128c-0.749-2.002-2.068-3.432-4.058-4.242
					c-1.314-0.536-2.624-1.087-3.946-1.613c-2.882-1.147-5.764-2.282-8.646-3.42c-0.86-0.341-1.371-0.977-1.612-1.856
					c-0.604-2.164-1.23-4.316-1.819-6.484c-0.322-1.184,0.155-1.956,1.374-2.012c1.1-0.051,2.219,0.044,3.303,0.232
					c1.149,0.192,1.896,0.977,2.266,2.087c0.297,0.893,0.604,1.777,0.86,2.678c0.135,0.49,0.374,0.679,0.892,0.688
					c1.934,0.016,3.869,0.083,5.803,0.125c0.126,0.002,0.254-0.04,0.436-0.07c-0.472-1.296-0.914-2.518-1.368-3.742
					c-1.125-3.038-3.287-4.968-6.399-5.73c-3.396-0.831-6.886-0.933-10.348-0.621c-3.186,0.29-4.513,2.236-3.831,5.339
					c0.672,3.082,1.461,6.138,2.225,9.199c0.453,1.826,1.556,3.148,3.271,3.915c1.48,0.662,2.975,1.291,4.479,1.895
					c2.798,1.121,5.606,2.21,8.408,3.318c0.813,0.32,1.384,0.884,1.669,1.719c0.915,2.66,1.858,5.312,2.743,7.985
					c0.452,1.375-0.136,2.231-1.598,2.329c-1.046,0.07-2.108,0.078-3.15-0.024c-1.674-0.165-2.866-1.019-3.362-2.7
					c-0.145-0.49-0.347-0.967-0.447-1.467c-0.129-0.642-0.441-0.862-1.111-0.848c-1.992,0.044-3.983,0.011-5.977,0.013
					c-0.273,0-0.546,0.031-1.049,0.058c0.581,1.676,1.021,3.26,1.676,4.755c0.948,2.172,2.594,3.76,4.802,4.618
					c1.362,0.528,2.829,0.984,4.273,1.072c2.977,0.182,5.97,0.146,8.953,0.082c1.004-0.02,2.038-0.278,2.994-0.61
					c1.95-0.678,2.813-1.997,2.682-4.051C245.36,50.539,245.179,49.675,244.886,48.887z M167.031,35.271
					c-0.006-0.409,0.03-0.792-0.59-0.789c-3.328,0.006-6.656-0.021-9.988-0.007c-0.177,0-0.515,0.233-0.516,0.365
					c-0.037,1.637-0.026,3.275-0.026,5.047c1.235,0,2.465,0,3.646,0c0,3.674,0,7.216,0,10.813c-2.059,0-4.017,0.084-5.966-0.025
					c-1.561-0.09-2.225-0.87-2.531-2.414c-0.008-0.047-0.024-0.096-0.042-0.141l-7.263-5.613c-0.162,2.536-0.377,4.91-0.417,7.286
					c-0.049,2.865,1.417,4.847,4.182,5.615c1.408,0.388,2.908,0.567,4.371,0.592c4.894,0.076,9.788,0.031,14.683,0.07
					c0.712,0.004,0.917-0.204,0.896-0.917c-0.113-3.726-0.189-7.452-0.268-11.177C167.137,41.073,167.086,38.171,167.031,35.271z
					 M271.882,52.111c-0.133-1.082-0.405-2.202-0.88-3.169c-1.729-3.491-3.572-6.924-5.366-10.383
					c-0.918-1.777-2.321-3.003-4.179-3.705c-1.782-0.672-3.578-1.301-5.368-1.952c-2.697-0.978-5.399-1.957-8.093-2.943
					c-0.792-0.287-1.354-0.827-1.666-1.612c-0.864-2.134-1.742-4.262-2.576-6.406c-0.464-1.198-0.031-1.906,1.261-1.955
					c1.015-0.038,2.054,0.027,3.057,0.202c1.277,0.222,2.206,1.002,2.746,2.203c0.369,0.829,0.76,1.653,1.088,2.498
					c0.185,0.469,0.448,0.641,0.951,0.647c1.877,0.031,3.755,0.103,5.63,0.157c0.186,0.002,0.369-0.026,0.697-0.051
					c-0.665-1.316-1.275-2.524-1.884-3.739c-1.545-3.052-4.033-5.017-7.36-5.525c-3.129-0.482-6.333-0.538-9.507-0.678
					c-0.764-0.034-1.578,0.246-2.308,0.536c-1.313,0.523-1.948,1.653-1.825,3.062c0.039,0.451,0.093,0.918,0.241,1.338
					c1.118,3.161,2.229,6.328,3.412,9.464c0.621,1.642,1.824,2.805,3.451,3.48c1.287,0.532,2.583,1.047,3.891,1.528
					c3.146,1.159,6.307,2.291,9.461,3.435c0.901,0.327,1.734,0.763,2.169,1.679c1.266,2.673,2.55,5.34,3.766,8.036
					c0.579,1.282,0.027,2.108-1.387,2.212c-0.794,0.059-1.593,0.042-2.387,0.03c-2.245-0.032-3.878-0.975-4.679-3.155
					c-0.139-0.372-0.354-0.722-0.458-1.1c-0.179-0.643-0.573-0.794-1.202-0.782c-1.85,0.04-3.698,0.014-5.547,0.009
					c-0.415,0-0.832,0-1.432,0c0.487,1.185,0.869,2.221,1.328,3.22c1.828,3.946,4.869,6.401,9.165,7.132
					c3.751,0.638,7.543,0.447,11.315,0.181c0.908-0.065,1.839-0.402,2.675-0.79C271.357,54.624,272.059,53.518,271.882,52.111z
					 M220.978,55c0.083,0.297,0.167,0.594,0.279,1.003c-0.632,0-1.166,0-1.697,0c-1.736-0.005-3.478-0.057-5.206,0.005
					c-0.815,0.027-1.174-0.195-1.369-1.033c-1.099-4.797-2.281-9.573-3.39-14.366c-0.154-0.676-0.428-0.86-1.08-0.854
					c-2.188,0.024-4.38-0.008-6.569-0.018c-0.279-0.002-0.553,0-1,0c1.061,5.465,2.094,10.804,3.143,16.194c-2.631,0-5.21,0-7.896,0
					c-0.264-1.523-0.562-3.051-0.789-4.59c-1.496-10.208-2.984-20.421-4.471-30.638c-0.595-4.107,0.964-6.228,5.084-6.41
					c3.001-0.132,6.039-0.01,9.021,0.333c3.754,0.43,6.066,2.699,6.999,6.389c2.122,8.379,4.259,16.754,6.431,25.12
					C219.238,49.106,220.139,52.045,220.978,55z M208.15,34.246c-0.951-4.453-1.886-8.905-2.859-13.352
					c-0.244-1.113-1.03-1.83-2.125-1.961c-1.318-0.157-2.668-0.198-3.994-0.121c-1.172,0.07-1.707,0.854-1.51,2.018
					c0.738,4.349,1.5,8.692,2.28,13.032c0.045,0.227,0.357,0.574,0.548,0.579c2.527,0.038,5.054,0.025,7.626,0.025
					C208.132,34.351,208.16,34.296,208.15,34.246z M192.389,50.151c-2.529,0.036-5.064,0.026-7.596,0.028c-2.129,0-4.256,0-6.433,0
					c-0.055-0.417-0.124-0.748-0.145-1.081c-0.523-7.747-1.041-15.498-1.563-23.246c-0.254-3.776-0.536-7.548-0.764-11.327
					c-0.045-0.739-0.291-0.98-1.028-0.932c-0.991,0.064-1.989,0.024-2.987,0.027c-1.271,0.002-2.539,0-3.851,0
					c-0.017,0.335-0.045,0.553-0.034,0.773c0.438,13.537,0.885,27.071,1.302,40.606c0.024,0.79,0.207,1.065,1.054,1.065
					c7.681-0.024,15.363,0,23.045,0.01c0.275,0,0.552,0,0.948,0c-0.378-1.813-0.757-3.496-1.064-5.195
					C193.17,50.316,192.955,50.146,192.389,50.151z"/>
				<g clip-path="url(#SVGID_2_)">
					<polygon fill="#FFFFFF" points="141.303,38.685 131.937,44.539 136.378,35.075 129.003,29.55 138.762,29.404 142.267,20.608 
						144.873,29.263 154.931,29.476 146.59,35.07 149.26,44.736 					"/>
					<path fill="#E50A2D" d="M142.175,22.732l2.174,7.22l8.349,0.177l-6.918,4.64l2.252,8.153l-6.69-5.088l-7.761,4.851l3.674-7.829
						l-6.189-4.637l8.175-0.122L142.175,22.732 M142.359,18.485l-1.486,3.729l-2.588,6.497l-7.24,0.108l-4.104,0.061l3.286,2.461
						l5.276,3.953l-3.19,6.796l-2.019,4.303l4.03-2.52l6.94-4.338l5.92,4.502l3.304,2.513l-1.105-4.001L147.4,35.37l6.079-4.077
						l3.684-2.471l-4.435-0.094l-7.331-0.155l-1.88-6.245L142.359,18.485L142.359,18.485z"/>
				</g>
			</g>
			<polygon fill="#FFFFFF" points="142.175,22.732 139.24,30.098 131.065,30.22 137.255,34.856 133.581,42.685 141.342,37.834 
				148.032,42.922 145.78,34.77 152.698,30.129 144.349,29.953 			"/>
		</g>
		<g>
			<path opacity="0.1" fill="#7B7BFF" d="M266.855,6.313c0,0-2.721-3.464-8.336-3.606c-0.021-0.001-0.041-0.003-0.061-0.005
				c-33.492-0.892-70.135-1.383-108.555-1.383c-38.518,0-75.249,0.495-108.809,1.391c-3.651,0.107-6.063,1.612-7.302,2.644
				c-6.43,7.212-13.711,18.323-20.076,31.253C3.275,58.639,4.51,61.781,2.567,67.141C37.236,50.043,96.554,21.286,160.09,13.017
				c39.232-5.105,76.212-6.832,107.701-5.604C267.478,7.037,267.167,6.672,266.855,6.313L266.855,6.313z"/>
			<linearGradient id="SVGID_3_" gradientUnits="userSpaceOnUse" x1="149.9038" y1="51.77" x2="149.9038" y2="13.5529">
				<stop  offset="0" style="stop-color:#FFFFFF"/>
				<stop  offset="1" style="stop-color:#FFFFFF;stop-opacity:0"/>
			</linearGradient>
			<path fill="url(#SVGID_3_)" d="M286.091,36.606c-6.139-12.469-13.133-23.248-19.39-30.47c-0.64-0.704-3.328-3.306-8.182-3.43
				c-0.021-0.001-0.041-0.003-0.061-0.005c-33.492-0.892-70.135-1.383-108.555-1.383c-38.518,0-75.249,0.495-108.809,1.391
				c-3.651,0.107-6.063,1.612-7.302,2.644c-6.43,7.212-13.711,18.323-20.076,31.253c-1.831,3.722-3.476,7.373-4.928,10.896
				c34.029-13.349,84.618-21.815,141.115-21.815s107.087,8.466,141.114,21.817C289.563,43.979,287.92,40.329,286.091,36.606z"/>
		</g>
	</g>
</g>
</svg>
