<?xml version="1.0" encoding="utf-8"?>
<!-- Generator: Adobe Illustrator 16.0.0, SVG Export Plug-In . SVG Version: 6.00 Build 0)  -->
<!DOCTYPE svg PUBLIC "-//W3C//DTD SVG 1.1//EN" "http://www.w3.org/Graphics/SVG/1.1/DTD/svg11.dtd">
<svg version="1.1" id="Capa_1" xmlns="http://www.w3.org/2000/svg" xmlns:xlink="http://www.w3.org/1999/xlink" x="0px" y="0px"
	 width="300px" height="110px" viewBox="0 0 300 110" enable-background="new 0 0 300 110" xml:space="preserve">
<g>
	<path fill="#FFFFFF" d="M297.924,69.238c-1.84-8.969-5.924-20.225-11.501-31.7c-5.952-12.237-12.856-23.218-19.479-30.955
		c-0.834-0.928-3.978-3.959-9.528-4.125l-0.123-0.006C223.189,1.534,187.09,1.068,150,1.068c-37.186,0-73.369,0.47-107.549,1.394
		c-4.098,0.122-6.887,1.776-8.506,3.14l-0.225,0.224c-6.697,7.606-14.041,19.18-20.145,31.735
		c-5.567,11.457-9.652,22.752-11.5,31.769l-0.549,2.716l2.724-0.064c38.401-2.133,79.089-3.211,120.946-3.547
		c2.037,2.484,4.826,5.434,7.574,5.434h34.455c2.748,0,5.537-2.949,7.576-5.434c41.917,0.336,83.715,1.256,120.946,3.325
		l2.724,0.151L297.924,69.238z M173.793,66.191c-1.447,1.886-4.299,5.309-6.566,5.309h-15.451h-3.551h-15.453
		c-2.267,0-5.119-3.423-6.566-5.309c-44.379,0.34-85.854,1.502-122.07,3.516c1.743-8.5,5.639-19.535,11.332-31.248
		C21.755,25.528,28.948,14.418,35.3,7.205c1.224-1.031,3.607-2.537,7.214-2.643C75.665,3.665,111.95,3.17,150,3.17
		c37.953,0,74.15,0.493,107.234,1.385c0.022,0.002,0.041,0.004,0.063,0.004c4.794,0.124,7.45,2.727,8.082,3.431
		c6.18,7.222,13.089,18,19.152,30.469c5.695,11.714,9.589,22.812,11.332,31.312C259.648,67.757,218.171,66.531,173.793,66.191z"/>
	<path fill="none" stroke="#FFFFFF" stroke-miterlimit="10" d="M143.488,3.175c-35.68,0.055-69.721,0.544-100.977,1.396
		c-3.605,0.107-5.988,1.623-7.214,2.66c-6.351,7.263-13.544,18.45-19.832,31.469C9.773,50.495,5.878,61.148,4.135,69.707
		c36.217-2.025,77.691-2.865,122.069-3.207c1.446,1.896,4.301,5.218,6.567,5.218h7.547L143.488,3.175z"/>
	<path fill="#FFFFFF" d="M42.256,93.628c2.184,0.608,3.276,1.739,3.276,3.399v7.468c0,2.954-1.509,4.437-4.521,4.437h-8.004V79.152
		h6.804c3.537,0,5.305,1.799,5.305,5.392v5.726c0,1.713-0.95,2.768-2.859,3.148V93.628z M36.986,91.721h1.871
		c1.52,0,2.277-0.718,2.277-2.158v-4.644c0-1.438-0.595-2.157-1.781-2.157h-2.365v8.959H36.986z M36.986,105.324h2.988
		c1.051,0,1.576-0.43,1.576-1.284v-6.597c0-1.411-0.789-2.116-2.365-2.116h-2.199V105.324z M74.521,108.932H70.54V97.982
		l-4.892-18.83h3.937l2.99,12.939h0.124l2.693-12.939h3.942l-4.813,18.83V108.932L74.521,108.932z M123.783,108.932V79.152h6.928
		c3.73,0,5.598,1.91,5.598,5.725v19.74c0,2.877-1.59,4.314-4.77,4.314H123.783L123.783,108.932z M127.766,105.324h2.987
		c1.048,0,1.572-0.443,1.572-1.331V84.919c0-1.438-0.593-2.157-1.784-2.157h-2.775V105.324L127.766,105.324z M162.686,108.932
		h-3.983V84.254c0-3.398,1.594-5.102,4.771-5.102h2.985c3.181,0,4.771,1.703,4.771,5.102v24.678h-3.979V98.025h-4.563V108.932
		L162.686,108.932z M167.248,94.417v-9.915c0-1.16-0.58-1.74-1.745-1.74h-1.076c-1.157,0-1.741,0.58-2.241,0.74v9.915
		L167.248,94.417z M206.314,79.152l-4.813,29.779h-4.727l-4.813-29.779h3.942l3.235,22.729l3.232-22.729H206.314L206.314,79.152z
		 M227.67,108.932V79.152h3.987v29.779H227.67L227.67,108.932z M254.469,108.932V79.152h6.924c3.731,0,5.601,1.91,5.601,5.725v19.74
		c0,2.877-1.591,4.314-4.772,4.314H254.469L254.469,108.932z M258.443,105.324h2.988c1.051,0,1.579-0.443,1.579-1.331V84.919
		c0-1.438-0.597-2.157-1.782-2.157h-2.785V105.324z"/>
	<path fill="#FFFFFF" d="M115.256,17.782c-1.679,0.063-3.357,0.143-5.033,0.107c-0.873-0.02-1.195,0.242-1.384,1.126
		c-2.286,10.619-4.616,21.226-6.946,31.836c-0.322,1.473-0.689,2.934-1.08,4.391c-0.063,0.232-0.354,0.582-0.545,0.583
		c-2.67,0.039-5.341,0.026-7.982,0.026c3.248-12.554,6.482-25.063,9.757-37.711c-2.472,0-4.651,0-6.952,0
		c0.385-1.413,0.729-2.78,1.159-4.119c0.062-0.188,0.552-0.324,0.849-0.335c3.357-0.113,6.711-0.2,10.068-0.287
		c2.844-0.074,5.688-0.141,8.532-0.206c0.278-0.007,0.56,0,1.013,0c-0.25,1.483-0.475,2.897-0.758,4.3
		C115.921,17.635,115.5,17.776,115.256,17.782z M94.016,13.855c-1.824,0-3.556,0.042-5.285-0.018
		c-0.746-0.025-1.015,0.254-1.227,0.934c-2.408,7.703-4.835,15.405-7.294,23.093c-1.028,3.221-2.149,6.416-3.242,9.618
		c-0.514,1.502-1.464,2.66-3.099,2.823c-1.577,0.159-3.186,0.126-4.77,0.023c-1.23-0.077-1.725-0.89-1.472-2.096
		c0.063-0.302,0.179-0.601,0.285-0.895c3.567-9.741,7.142-19.485,10.707-29.234c0.455-1.245,0.858-2.513,1.259-3.693
		c-1.797,0-3.523,0.032-5.247-0.011c-0.754-0.021-1.06,0.295-1.33,0.979c-4.18,10.577-8.399,21.142-12.597,31.711
		c-0.377,0.95-0.752,1.916-0.969,2.908c-0.715,3.291,0.625,5.428,3.967,5.693c3.501,0.274,7.041,0.105,10.563,0.091
		c0.645-0.007,1.295-0.181,1.928-0.338c4.449-1.128,6.996-4.137,8.236-8.396c3.149-10.808,6.277-21.619,9.411-32.434
		C93.918,14.356,93.964,14.087,94.016,13.855z M66.469,21.281c-4.65,11.281-9.324,22.55-14.01,33.813
		c-0.109,0.27-0.428,0.633-0.657,0.641c-2.383,0.045-4.768,0.025-7.354,0.025c2.5-5.397,4.922-10.622,7.388-15.948
		c-0.347-0.042-0.56-0.091-0.774-0.091c-2.248,0.01-4.496,0.05-6.742,0.027c-0.586-0.006-0.846,0.238-1.09,0.723
		c-2.41,4.841-4.854,9.659-7.25,14.504c-0.312,0.627-0.67,0.846-1.367,0.834c-2.211-0.05-4.424-0.019-6.774-0.019
		c0.154-0.343,0.237-0.568,0.351-0.781c5.367-10.159,10.733-20.314,16.098-30.475c0.449-0.855,0.854-1.737,1.294-2.599
		c2.17-4.237,5.741-6.324,10.396-6.679c2.012-0.154,4.032-0.241,6.051-0.251c0.979-0.002,1.996,0.138,2.935,0.415
		c1.64,0.487,2.396,1.708,2.17,3.398C67.02,19.657,66.791,20.501,66.469,21.281z M58.616,19.48
		c-1.017-0.054-2.052,0.007-3.064,0.118c-1.674,0.186-2.893,1.001-3.588,2.622c-0.851,1.985-1.815,3.92-2.739,5.876
		c-1.031,2.181-2.068,4.355-3.123,6.583c2.629,0,5.125,0.012,7.621-0.022c0.204-0.002,0.494-0.273,0.59-0.487
		c1.852-4.25,3.694-8.503,5.504-12.771C60.307,20.246,59.872,19.544,58.616,19.48z M134.845,13.369
		c-3.276-0.396-6.642-0.323-9.954-0.174c-4.385,0.2-6.742,2.457-7.453,6.783c-1.486,9.037-2.949,18.077-4.398,27.118
		c-0.191,1.176-0.372,2.368-0.375,3.553c-0.002,1.977,0.967,3.463,2.791,4.213c1.061,0.433,2.236,0.773,3.369,0.808
		c3.381,0.104,6.77,0.088,10.152,0c1.084-0.029,2.2-0.318,3.236-0.681c2.33-0.816,3.977-2.42,4.424-4.883
		c0.422-2.317,0.57-4.678,0.846-7.085c-0.25,0.021-0.315,0.006-0.358,0.032c-2.326,1.534-4.655,3.063-6.968,4.625
		c-0.204,0.138-0.354,0.428-0.428,0.679c-0.416,1.424-1.205,2.124-2.688,2.174c-1.563,0.049-3.13,0.06-4.691-0.011
		c-1.83-0.083-2.509-1.018-2.246-2.821c0.666-4.529,1.321-9.062,1.951-13.599c0.635-4.563,1.223-9.133,1.85-13.7
		c0.205-1.5,0.887-2.3,2.318-2.415c1.577-0.129,3.182-0.132,4.762-0.015c1.315,0.103,1.858,0.927,1.744,2.251
		c-0.11,1.274-0.248,2.55-0.369,3.821c-0.11,1.148-0.213,2.298-0.33,3.563c1.164,0,2.218-0.073,3.257,0.021
		c0.875,0.083,1.25-0.249,1.541-1.04c0.674-1.842,1.455-3.643,2.178-5.469C140.382,17.645,138.511,13.816,134.845,13.369z"/>
	<g>
		<g>
			<path id="SVGID_1_" fill="none" stroke="#FFFFFF" stroke-miterlimit="10" d="M141.768,34.228c0,0,14.439,0.028,31.526,0
				c13.837-0.022,29.955-0.075,45.712,0.116c42.209,0.514,64.791,2.628,64.791,2.628c-5.886-11.837-12.484-22.051-18.418-28.982
				c-0.632-0.704-3.288-3.307-8.084-3.431c-0.021,0-0.039-0.002-0.061-0.004C224.15,3.663,187.953,3.17,150,3.17
				c-2.182,0-4.344,0.005-6.512,0.009L141.768,34.228z"/>
		</g>
		<g>
			<defs>
				<path id="SVGID_2_" d="M141.768,34.228c0,0,14.439,0.028,31.526,0c13.837-0.022,29.955-0.075,45.712,0.116
					c42.209,0.514,64.791,2.628,64.791,2.628c-5.886-11.837-12.484-22.051-18.418-28.982c-0.632-0.704-3.288-3.307-8.084-3.431
					c-0.021,0-0.039-0.002-0.061-0.004C224.15,3.663,187.953,3.17,150,3.17c-2.182,0-4.344,0.005-6.512,0.009L141.768,34.228z"/>
			</defs>
			<clipPath id="SVGID_3_">
				<use xlink:href="#SVGID_2_"  overflow="visible"/>
			</clipPath>
			<path clip-path="url(#SVGID_3_)" fill="none" stroke="#FFFFFF" stroke-miterlimit="10" d="M146.133,17.877
				c-0.078-0.355-0.042-0.803,0.109-1.135c1.072-2.43,3.15-3.43,5.619-3.696c1.32-0.139,2.666-0.021,4.004-0.021
				c0.002-0.087,0.01-0.171,0.01-0.256c1.922,0.179,3.865,0.226,5.753,0.567c3.347,0.608,5.128,2.758,5.31,6.146
				c0.076,1.393,0.07,2.787,0.131,4.18c0.021,0.467-0.11,0.675-0.604,0.667c-1.936-0.015-3.865-0.022-5.803-0.006
				c-0.52,0.006-0.614-0.243-0.609-0.68c0.018-0.969,0.019-1.936,0-2.9c-0.039-2.157-0.873-3.002-3.007-3.038
				c-0.737-0.012-1.483-0.032-2.217,0.038c-1.447,0.135-2.297,0.965-2.392,2.418c-0.129,2.099-0.201,4.204-0.246,6.305
				c-0.016,0.704-0.252,0.953-0.953,0.905c-0.705-0.045-1.422-0.026-2.129,0.034c-0.584,0.051-0.784-0.202-0.906-0.733
				C147.527,23.736,146.805,20.813,146.133,17.877z M245.136,48.638c-1.252-3.389-2.583-6.747-3.855-10.129
				c-0.749-2.002-2.068-3.432-4.058-4.241c-1.314-0.536-2.625-1.087-3.947-1.613c-2.881-1.147-5.764-2.282-8.646-3.42
				c-0.86-0.341-1.371-0.978-1.612-1.856c-0.604-2.164-1.229-4.315-1.818-6.483c-0.322-1.185,0.154-1.956,1.374-2.013
				c1.1-0.051,2.219,0.044,3.303,0.232c1.149,0.192,1.896,0.977,2.267,2.087c0.297,0.893,0.604,1.777,0.859,2.678
				c0.135,0.49,0.374,0.68,0.893,0.688c1.934,0.016,3.869,0.083,5.803,0.125c0.126,0.002,0.254-0.04,0.436-0.07
				c-0.472-1.296-0.914-2.518-1.367-3.742c-1.125-3.038-3.287-4.968-6.399-5.729c-3.396-0.831-6.886-0.934-10.349-0.621
				c-3.186,0.29-4.513,2.236-3.83,5.339c0.672,3.082,1.461,6.138,2.225,9.199c0.453,1.826,1.556,3.147,3.271,3.915
				c1.479,0.662,2.975,1.291,4.479,1.895c2.798,1.121,5.605,2.21,8.408,3.318c0.813,0.32,1.384,0.884,1.669,1.719
				c0.915,2.66,1.858,5.313,2.743,7.985c0.451,1.375-0.137,2.23-1.599,2.329c-1.046,0.069-2.108,0.078-3.149-0.024
				c-1.674-0.165-2.866-1.019-3.362-2.7c-0.146-0.489-0.347-0.967-0.447-1.467c-0.129-0.642-0.44-0.862-1.11-0.848
				c-1.992,0.044-3.983,0.011-5.978,0.013c-0.272,0-0.546,0.031-1.049,0.058c0.581,1.677,1.021,3.261,1.676,4.756
				c0.948,2.172,2.595,3.76,4.802,4.617c1.362,0.528,2.83,0.984,4.273,1.072c2.977,0.182,5.97,0.146,8.953,0.082
				c1.004-0.02,2.038-0.278,2.994-0.61c1.949-0.678,2.813-1.996,2.682-4.051C245.609,50.289,245.43,49.425,245.136,48.638z
				 M167.281,35.021c-0.006-0.409,0.029-0.792-0.59-0.789c-3.328,0.006-6.656-0.021-9.988-0.007c-0.178,0-0.516,0.232-0.516,0.364
				c-0.037,1.638-0.026,3.275-0.026,5.048c1.235,0,2.465,0,3.646,0c0,3.674,0,7.216,0,10.813c-2.059,0-4.017,0.084-5.966-0.025
				c-1.562-0.09-2.225-0.869-2.53-2.414c-0.009-0.047-0.024-0.096-0.043-0.141l-7.263-5.613c-0.162,2.536-0.377,4.91-0.417,7.286
				c-0.049,2.865,1.417,4.848,4.182,5.615c1.408,0.388,2.908,0.566,4.371,0.592c4.895,0.076,9.788,0.031,14.684,0.07
				c0.712,0.004,0.917-0.204,0.896-0.917c-0.112-3.727-0.188-7.452-0.268-11.177C167.387,40.823,167.336,37.921,167.281,35.021z
				 M272.132,51.861c-0.133-1.082-0.405-2.202-0.88-3.169c-1.729-3.491-3.572-6.924-5.366-10.383
				c-0.918-1.777-2.321-3.003-4.179-3.705c-1.782-0.672-3.578-1.301-5.368-1.952c-2.696-0.979-5.399-1.957-8.093-2.943
				c-0.792-0.287-1.354-0.827-1.666-1.611c-0.864-2.135-1.742-4.263-2.576-6.406c-0.464-1.198-0.031-1.906,1.262-1.955
				c1.014-0.038,2.053,0.027,3.057,0.202c1.277,0.222,2.205,1.002,2.746,2.203c0.369,0.829,0.76,1.652,1.088,2.498
				c0.185,0.469,0.447,0.641,0.951,0.646c1.877,0.031,3.754,0.104,5.629,0.157c0.187,0.002,0.369-0.026,0.697-0.051
				c-0.664-1.316-1.274-2.524-1.884-3.739c-1.545-3.052-4.032-5.018-7.36-5.525c-3.129-0.481-6.332-0.538-9.506-0.678
				c-0.765-0.034-1.578,0.246-2.309,0.536c-1.313,0.522-1.948,1.653-1.825,3.062c0.039,0.451,0.093,0.918,0.241,1.338
				c1.118,3.161,2.229,6.328,3.412,9.465c0.621,1.642,1.824,2.805,3.451,3.479c1.287,0.532,2.582,1.047,3.891,1.528
				c3.146,1.159,6.307,2.291,9.461,3.435c0.901,0.327,1.734,0.764,2.169,1.68c1.267,2.673,2.55,5.34,3.767,8.035
				c0.578,1.282,0.026,2.108-1.387,2.213c-0.795,0.059-1.594,0.042-2.388,0.029c-2.245-0.032-3.878-0.975-4.679-3.154
				c-0.139-0.372-0.354-0.723-0.458-1.101c-0.179-0.643-0.573-0.794-1.202-0.782c-1.85,0.04-3.698,0.015-5.547,0.01
				c-0.415,0-0.832,0-1.432,0c0.486,1.185,0.868,2.221,1.327,3.22c1.828,3.946,4.869,6.4,9.165,7.132
				c3.751,0.638,7.543,0.447,11.315,0.181c0.907-0.065,1.839-0.401,2.675-0.79C271.607,54.374,272.309,53.269,272.132,51.861z
				 M221.229,54.75c0.082,0.297,0.166,0.594,0.278,1.003c-0.632,0-1.166,0-1.696,0c-1.736-0.005-3.479-0.058-5.207,0.005
				c-0.814,0.027-1.174-0.195-1.369-1.032c-1.099-4.797-2.28-9.573-3.39-14.366c-0.153-0.676-0.428-0.86-1.079-0.854
				c-2.188,0.024-4.381-0.008-6.57-0.018c-0.278-0.002-0.553,0-1,0c1.062,5.465,2.095,10.804,3.144,16.194c-2.631,0-5.21,0-7.896,0
				c-0.264-1.523-0.563-3.052-0.789-4.591c-1.496-10.208-2.984-20.421-4.471-30.638c-0.596-4.106,0.963-6.228,5.084-6.41
				c3-0.132,6.039-0.01,9.021,0.333c3.754,0.431,6.065,2.699,6.999,6.39c2.122,8.379,4.259,16.754,6.431,25.119
				C219.488,48.856,220.389,51.795,221.229,54.75z M208.4,33.996c-0.951-4.453-1.887-8.905-2.859-13.352
				c-0.244-1.113-1.03-1.83-2.125-1.961c-1.318-0.157-2.668-0.198-3.994-0.121c-1.172,0.069-1.707,0.854-1.51,2.018
				c0.738,4.35,1.5,8.692,2.279,13.032c0.045,0.227,0.357,0.574,0.549,0.579c2.527,0.038,5.054,0.024,7.626,0.024
				C208.382,34.102,208.41,34.046,208.4,33.996z M192.639,49.901c-2.529,0.036-5.063,0.025-7.596,0.028c-2.129,0-4.256,0-6.434,0
				c-0.055-0.417-0.123-0.748-0.145-1.081c-0.523-7.747-1.041-15.498-1.563-23.246c-0.254-3.776-0.536-7.548-0.764-11.327
				c-0.046-0.739-0.291-0.98-1.029-0.933c-0.99,0.064-1.988,0.024-2.986,0.027c-1.271,0.002-2.539,0-3.852,0
				c-0.017,0.335-0.045,0.553-0.033,0.773c0.438,13.537,0.885,27.07,1.302,40.605c0.024,0.79,0.207,1.065,1.054,1.065
				c7.682-0.024,15.363,0,23.045,0.01c0.275,0,0.553,0,0.948,0c-0.378-1.813-0.757-3.496-1.063-5.195
				C193.42,50.066,193.205,49.896,192.639,49.901z"/>
		</g>
		<g>
			<defs>
				<path id="SVGID_4_" d="M141.768,34.228c0,0,14.439,0.028,31.526,0c13.837-0.022,29.955-0.075,45.712,0.116
					c42.209,0.514,64.791,2.628,64.791,2.628c-5.886-11.837-12.484-22.051-18.418-28.982c-0.632-0.704-3.288-3.307-8.084-3.431
					c-0.021,0-0.039-0.002-0.061-0.004C224.15,3.663,187.953,3.17,150,3.17c-2.182,0-4.344,0.005-6.512,0.009L141.768,34.228z"/>
			</defs>
			<clipPath id="SVGID_5_">
				<use xlink:href="#SVGID_4_"  overflow="visible"/>
			</clipPath>
		</g>
	</g>
	<g>
		<path opacity="0.1" fill="#FFFFFF" enable-background="new    " d="M267.105,6.063c0,0-2.722-3.464-8.336-3.606
			c-0.021-0.001-0.041-0.003-0.062-0.005c-33.492-0.892-70.135-1.383-108.556-1.383c-38.518,0-75.248,0.495-108.809,1.391
			c-3.65,0.107-6.063,1.612-7.302,2.645c-6.431,7.212-13.711,18.322-20.076,31.253C3.525,58.389,4.76,61.531,2.816,66.891
			c34.67-17.098,93.988-45.854,157.523-54.123c39.232-5.105,76.212-6.832,107.701-5.604C267.729,6.787,267.417,6.422,267.105,6.063
			L267.105,6.063z"/>
		
			<linearGradient id="SVGID_6_" gradientUnits="userSpaceOnUse" x1="-413.8472" y1="-221.52" x2="-413.8472" y2="-183.3033" gradientTransform="matrix(1 0 0 -1 564 -170)">
			<stop  offset="0" style="stop-color:#FFFFFF"/>
			<stop  offset="1" style="stop-color:#FFFFFF;stop-opacity:0"/>
		</linearGradient>
		<path fill="url(#SVGID_6_)" d="M286.341,36.356c-6.139-12.469-13.133-23.248-19.39-30.471c-0.641-0.703-3.328-3.306-8.182-3.43
			c-0.021-0.001-0.041-0.003-0.062-0.005c-33.492-0.892-70.135-1.383-108.556-1.383c-38.518,0-75.248,0.495-108.809,1.391
			c-3.65,0.107-6.063,1.612-7.302,2.645c-6.431,7.212-13.711,18.322-20.076,31.253c-1.831,3.722-3.476,7.373-4.928,10.896
			c34.028-13.349,84.618-21.814,141.114-21.814c56.498,0,107.088,8.466,141.115,21.816C289.813,43.729,288.17,40.079,286.341,36.356
			z"/>
	</g>
	<g>
		<defs>
			<path id="SVGID_7_" d="M142,61.5l1.75-27.25c0,0,107.5,0.25,124.75,1.25c6,8,5.75,23.25,5.75,23.25L142,61.5z"/>
		</defs>
		<clipPath id="SVGID_8_">
			<use xlink:href="#SVGID_7_"  overflow="visible"/>
		</clipPath>
		<path clip-path="url(#SVGID_8_)" fill="#FFFFFF" d="M146.133,17.877c-0.078-0.355-0.042-0.803,0.109-1.135
			c1.072-2.43,3.15-3.43,5.619-3.696c1.32-0.139,2.666-0.021,4.004-0.021c0.002-0.087,0.01-0.171,0.01-0.256
			c1.922,0.179,3.865,0.226,5.753,0.567c3.347,0.608,5.128,2.758,5.31,6.146c0.076,1.393,0.07,2.787,0.131,4.18
			c0.021,0.467-0.11,0.675-0.604,0.667c-1.936-0.015-3.865-0.022-5.803-0.006c-0.52,0.006-0.614-0.243-0.609-0.68
			c0.018-0.969,0.019-1.936,0-2.9c-0.039-2.157-0.873-3.002-3.007-3.038c-0.737-0.012-1.483-0.032-2.217,0.038
			c-1.447,0.135-2.297,0.965-2.392,2.418c-0.129,2.099-0.201,4.204-0.246,6.305c-0.016,0.704-0.252,0.953-0.953,0.905
			c-0.705-0.045-1.422-0.026-2.129,0.034c-0.584,0.051-0.784-0.202-0.906-0.733C147.527,23.736,146.805,20.813,146.133,17.877z
			 M245.136,48.638c-1.252-3.389-2.583-6.747-3.855-10.129c-0.749-2.002-2.068-3.432-4.058-4.241
			c-1.314-0.536-2.625-1.087-3.947-1.613c-2.881-1.147-5.764-2.282-8.646-3.42c-0.86-0.341-1.371-0.978-1.612-1.856
			c-0.604-2.164-1.229-4.315-1.818-6.483c-0.322-1.185,0.154-1.956,1.374-2.013c1.1-0.051,2.219,0.044,3.303,0.232
			c1.149,0.192,1.896,0.977,2.267,2.087c0.297,0.893,0.604,1.777,0.859,2.678c0.135,0.49,0.374,0.68,0.893,0.688
			c1.934,0.016,3.869,0.083,5.803,0.125c0.126,0.002,0.254-0.04,0.436-0.07c-0.472-1.296-0.914-2.518-1.367-3.742
			c-1.125-3.038-3.287-4.968-6.399-5.729c-3.396-0.831-6.886-0.934-10.349-0.621c-3.186,0.29-4.513,2.236-3.83,5.339
			c0.672,3.082,1.461,6.138,2.225,9.199c0.453,1.826,1.556,3.147,3.271,3.915c1.479,0.662,2.975,1.291,4.479,1.895
			c2.798,1.121,5.605,2.21,8.408,3.318c0.813,0.32,1.384,0.884,1.669,1.719c0.915,2.66,1.858,5.313,2.743,7.985
			c0.451,1.375-0.137,2.23-1.599,2.329c-1.046,0.069-2.108,0.078-3.149-0.024c-1.674-0.165-2.866-1.019-3.362-2.7
			c-0.146-0.489-0.347-0.967-0.447-1.467c-0.129-0.642-0.44-0.862-1.11-0.848c-1.992,0.044-3.983,0.011-5.978,0.013
			c-0.272,0-0.546,0.031-1.049,0.058c0.581,1.677,1.021,3.261,1.676,4.756c0.948,2.172,2.595,3.76,4.802,4.617
			c1.362,0.528,2.83,0.984,4.273,1.072c2.977,0.182,5.97,0.146,8.953,0.082c1.004-0.02,2.038-0.278,2.994-0.61
			c1.949-0.678,2.813-1.996,2.682-4.051C245.609,50.289,245.43,49.425,245.136,48.638z M167.281,35.021
			c-0.006-0.409,0.029-0.792-0.59-0.789c-3.328,0.006-6.656-0.021-9.988-0.007c-0.178,0-0.516,0.232-0.516,0.364
			c-0.037,1.638-0.026,3.275-0.026,5.048c1.235,0,2.465,0,3.646,0c0,3.674,0,7.216,0,10.813c-2.059,0-4.017,0.084-5.966-0.025
			c-1.562-0.09-2.225-0.869-2.53-2.414c-0.009-0.047-0.024-0.096-0.043-0.141l-7.263-5.613c-0.162,2.536-0.377,4.91-0.417,7.286
			c-0.049,2.865,1.417,4.848,4.182,5.615c1.408,0.388,2.908,0.566,4.371,0.592c4.895,0.076,9.788,0.031,14.684,0.07
			c0.712,0.004,0.917-0.204,0.896-0.917c-0.112-3.727-0.188-7.452-0.268-11.177C167.387,40.823,167.336,37.921,167.281,35.021z
			 M272.132,51.861c-0.133-1.082-0.405-2.202-0.88-3.169c-1.729-3.491-3.572-6.924-5.366-10.383
			c-0.918-1.777-2.321-3.003-4.179-3.705c-1.782-0.672-3.578-1.301-5.368-1.952c-2.696-0.979-5.399-1.957-8.093-2.943
			c-0.792-0.287-1.354-0.827-1.666-1.611c-0.864-2.135-1.742-4.263-2.576-6.406c-0.464-1.198-0.031-1.906,1.262-1.955
			c1.014-0.038,2.053,0.027,3.057,0.202c1.277,0.222,2.205,1.002,2.746,2.203c0.369,0.829,0.76,1.652,1.088,2.498
			c0.185,0.469,0.447,0.641,0.951,0.646c1.877,0.031,3.754,0.104,5.629,0.157c0.187,0.002,0.369-0.026,0.697-0.051
			c-0.664-1.316-1.274-2.524-1.884-3.739c-1.545-3.052-4.032-5.018-7.36-5.525c-3.129-0.481-6.332-0.538-9.506-0.678
			c-0.765-0.034-1.578,0.246-2.309,0.536c-1.313,0.522-1.948,1.653-1.825,3.062c0.039,0.451,0.093,0.918,0.241,1.338
			c1.118,3.161,2.229,6.328,3.412,9.465c0.621,1.642,1.824,2.805,3.451,3.479c1.287,0.532,2.582,1.047,3.891,1.528
			c3.146,1.159,6.307,2.291,9.461,3.435c0.901,0.327,1.734,0.764,2.169,1.68c1.267,2.673,2.55,5.34,3.767,8.035
			c0.578,1.282,0.026,2.108-1.387,2.213c-0.795,0.059-1.594,0.042-2.388,0.029c-2.245-0.032-3.878-0.975-4.679-3.154
			c-0.139-0.372-0.354-0.723-0.458-1.101c-0.179-0.643-0.573-0.794-1.202-0.782c-1.85,0.04-3.698,0.015-5.547,0.01
			c-0.415,0-0.832,0-1.432,0c0.486,1.185,0.868,2.221,1.327,3.22c1.828,3.946,4.869,6.4,9.165,7.132
			c3.751,0.638,7.543,0.447,11.315,0.181c0.907-0.065,1.839-0.401,2.675-0.79C271.607,54.374,272.309,53.269,272.132,51.861z
			 M221.229,54.75c0.082,0.297,0.166,0.594,0.278,1.003c-0.632,0-1.166,0-1.696,0c-1.736-0.005-3.479-0.058-5.207,0.005
			c-0.814,0.027-1.174-0.195-1.369-1.032c-1.099-4.797-2.28-9.573-3.39-14.366c-0.153-0.676-0.428-0.86-1.079-0.854
			c-2.188,0.024-4.381-0.008-6.57-0.018c-0.278-0.002-0.553,0-1,0c1.062,5.465,2.095,10.804,3.144,16.194c-2.631,0-5.21,0-7.896,0
			c-0.264-1.523-0.563-3.052-0.789-4.591c-1.496-10.208-2.984-20.421-4.471-30.638c-0.596-4.106,0.963-6.228,5.084-6.41
			c3-0.132,6.039-0.01,9.021,0.333c3.754,0.431,6.065,2.699,6.999,6.39c2.122,8.379,4.259,16.754,6.431,25.119
			C219.488,48.856,220.389,51.795,221.229,54.75z M208.4,33.996c-0.951-4.453-1.887-8.905-2.859-13.352
			c-0.244-1.113-1.03-1.83-2.125-1.961c-1.318-0.157-2.668-0.198-3.994-0.121c-1.172,0.069-1.707,0.854-1.51,2.018
			c0.738,4.35,1.5,8.692,2.279,13.032c0.045,0.227,0.357,0.574,0.549,0.579c2.527,0.038,5.054,0.024,7.626,0.024
			C208.382,34.102,208.41,34.046,208.4,33.996z M192.639,49.901c-2.529,0.036-5.063,0.025-7.596,0.028c-2.129,0-4.256,0-6.434,0
			c-0.055-0.417-0.123-0.748-0.145-1.081c-0.523-7.747-1.041-15.498-1.563-23.246c-0.254-3.776-0.536-7.548-0.764-11.327
			c-0.046-0.739-0.291-0.98-1.029-0.933c-0.99,0.064-1.988,0.024-2.986,0.027c-1.271,0.002-2.539,0-3.852,0
			c-0.017,0.335-0.045,0.553-0.033,0.773c0.438,13.537,0.885,27.07,1.302,40.605c0.024,0.79,0.207,1.065,1.054,1.065
			c7.682-0.024,15.363,0,23.045,0.01c0.275,0,0.553,0,0.948,0c-0.378-1.813-0.757-3.496-1.063-5.195
			C193.42,50.066,193.205,49.896,192.639,49.901z"/>
	</g>
	<polygon fill="#FFFFFF" points="142.425,22.482 139.49,29.849 131.314,29.971 137.505,34.606 133.831,42.436 141.592,37.584 
		148.282,42.672 146.03,34.521 152.948,29.879 144.6,29.703 	"/>
</g>
</svg>
