<?xml version="1.0" encoding="utf-8"?>
<!-- Generator: Adobe Illustrator 16.0.0, SVG Export Plug-In . SVG Version: 6.00 Build 0)  -->
<!DOCTYPE svg PUBLIC "-//W3C//DTD SVG 1.1//EN" "http://www.w3.org/Graphics/SVG/1.1/DTD/svg11.dtd">
<svg version="1.1" id="Capa_1" xmlns="http://www.w3.org/2000/svg" xmlns:xlink="http://www.w3.org/1999/xlink" x="0px" y="0px"
	 width="200px" height="200px" viewBox="0 0 200 200" enable-background="new 0 0 200 200" xml:space="preserve">
<path fill-rule="evenodd" clip-rule="evenodd" fill="#FFFFFF" d="M196.753,78.646c0,23.48,0.115,46.931-0.054,70.354
	c-0.06,7.228-7.771,13.341-17.14,13.341c-37.535,0-75.06,0-112.594,0c-15.082,0-30.171-0.229-45.239,0.085
	c-10.304,0.2-18.63-6.627-18.516-15.254c0.314-21.823,0.107-43.675,0.107-65.497c0-1.028,0-2.057,0-2.514
	C13.25,84.76,23.39,90.444,33.445,96.214c14.933,8.568,29.679,17.366,44.747,25.736c6.569,3.656,13.782,6.483,22.109,6.426
	c8.078-0.057,15.102-2.799,21.458-6.341c21.339-11.883,42.433-24.05,63.57-36.19C189.2,83.617,192.841,81.132,196.753,78.646z
	 M21.206,37.571C9.33,37.542,4.188,44.313,3.36,52.167c-0.786,7.37,4.12,12.968,10.055,17.567
	c6.312,4.885,13.539,8.998,20.637,13.14c16.674,9.712,33.47,19.28,50.294,28.821c4.642,2.628,9.455,5.17,15.411,5.285
	c6.134,0.084,11.074-2.515,15.817-5.171c21.036-11.883,42.103-23.708,62.869-35.876c8.542-5.027,15.338-11.283,17.853-20.338
	c2.543-9.254-5.84-18.138-17.609-18.024c-26.351,0.229-52.729,0.057-79.087,0.057C73.463,37.628,47.328,37.714,21.206,37.571z"/>
<rect fill-rule="evenodd" clip-rule="evenodd" fill="none" width="200" height="200"/>
</svg>
