<?xml version="1.0" encoding="utf-8"?>
<!-- Generator: Adobe Illustrator 16.0.0, SVG Export Plug-In . SVG Version: 6.00 Build 0)  -->
<!DOCTYPE svg PUBLIC "-//W3C//DTD SVG 1.1//EN" "http://www.w3.org/Graphics/SVG/1.1/DTD/svg11.dtd">
<svg version="1.1" id="Capa_1" xmlns="http://www.w3.org/2000/svg" xmlns:xlink="http://www.w3.org/1999/xlink" x="0px" y="0px"
	 width="200px" height="200px" viewBox="0 0 200 200" enable-background="new 0 0 200 200" xml:space="preserve">
<g>
	<path fill-rule="evenodd" clip-rule="evenodd" fill="#FFFFFF" d="M151.081,199.306c-10.933-0.846-20.824-4.426-30.455-8.33
		c-10.997-4.458-21.93-9.338-32.155-15.294c-8.468-4.912-16.594-10.933-23.598-17.765c-11.868-11.583-23.101-23.883-33.896-36.475
		c-9.33-10.867-15.927-23.558-20.352-37.256c-2.96-9.175-6.068-18.319-8.574-27.624c-2.716-9.957-0.552-19.686,3.596-28.861
		c3.693-8.2,7.443-16.627,15.577-21.573c6.979-4.295,14.911-5.401,22.915-5.434c1.546,0,3.596,1.985,4.54,3.579
		c5.548,9.371,10.794,18.97,16.228,28.405c1.978,3.45,4.401,6.638,6.272,10.12c2.904,5.401,2.57,7.907-1.953,12.202
		c-4.743,4.458-9.615,8.851-14.821,12.755c-7.37,5.563-8.444,9.956-3.417,17.473c5.483,8.199,10.144,17.017,16.13,24.76
		c9.859,12.788,21.809,23.493,35.727,31.823c4.425,2.667,8.769,5.434,13.259,8.004c5.89,3.384,10.868,1.854,15.326-3.937
		c4.051-5.271,8.297-10.445,12.786-15.326c4.54-4.913,7.191-5.304,12.95-2.017c12.674,7.223,25.151,14.771,37.809,22.028
		c3.189,1.789,4.783,4.165,3.971,7.549c-1.659,6.768-2.604,14.023-5.76,20.043c-4.75,9.078-14.398,12.853-23.395,16.464
		C163.869,196.963,157.328,197.808,151.081,199.306z"/>
</g>
</svg>
