<?xml version="1.0" encoding="utf-8"?>
<!-- Generator: Adobe Illustrator 16.0.0, SVG Export Plug-In . SVG Version: 6.00 Build 0)  -->
<!DOCTYPE svg PUBLIC "-//W3C//DTD SVG 1.1//EN" "http://www.w3.org/Graphics/SVG/1.1/DTD/svg11.dtd">
<svg version="1.1" id="Capa_1" xmlns="http://www.w3.org/2000/svg" xmlns:xlink="http://www.w3.org/1999/xlink" x="0px" y="0px"
	 width="200px" height="200px" viewBox="0 0 200 200" enable-background="new 0 0 200 200" xml:space="preserve">
<path fill-rule="evenodd" clip-rule="evenodd" fill="#FFFFFF" d="M180.178,84.038c0-44.213-35.84-80.053-80.053-80.053
	s-80.053,35.84-80.053,80.053c0,19.197,6.765,36.797,18.028,50.594l-0.057,0.052l0.639,0.639c3.075,3.676,6.477,7.083,10.159,10.159
	l51.285,51.284l51.284-51.284c3.677-3.076,7.084-6.483,10.159-10.159l0.639-0.639l-0.052-0.052
	C173.413,120.835,180.178,103.234,180.178,84.038z M100.125,123.247c-21.66,0-39.21-17.551-39.21-39.209
	c0-21.66,17.55-39.21,39.21-39.21c21.646,0,39.21,17.55,39.21,39.21C139.335,105.696,121.771,123.247,100.125,123.247z"/>
<rect fill-rule="evenodd" clip-rule="evenodd" fill="none" width="200" height="200"/>
</svg>
