<?xml version="1.0" encoding="utf-8"?>
<!-- Generator: Adobe Illustrator 16.0.0, SVG Export Plug-In . SVG Version: 6.00 Build 0)  -->
<!DOCTYPE svg PUBLIC "-//W3C//DTD SVG 1.1//EN" "http://www.w3.org/Graphics/SVG/1.1/DTD/svg11.dtd">
<svg version="1.1" id="Capa_1" xmlns="http://www.w3.org/2000/svg" xmlns:xlink="http://www.w3.org/1999/xlink" x="0px" y="0px"
	 width="60px" height="60px" viewBox="0 0 60 60" enable-background="new 0 0 60 60" xml:space="preserve">
<g>
	<path fill="#FFFFFF" d="M59.019,17.93c-0.317-2.233-1.052-4.276-2.663-5.979c-1.628-1.72-3.752-2.055-5.882-2.238
		c-3.07-0.264-6.157-0.435-9.236-0.435c-8.385,0.004-16.771,0.093-25.154,0.206c-2.517,0.035-5.031,0.248-7.544,0.41
		c-3.523,0.225-5.762,2.114-6.896,5.402C0.63,18.233,0.665,21.322,0.4,24.358c-0.15,1.716-0.028,3.455-0.028,5.185
		c-0.031,0.002-0.064,0.003-0.098,0.003c0.103,2.351,0.162,4.701,0.323,7.047c0.153,2.254,0.253,4.531,0.67,6.744
		c0.433,2.286,1.473,4.366,3.596,5.617c1.647,0.972,3.536,1.209,5.394,1.344c3.038,0.22,6.084,0.424,9.128,0.424
		c7.998-0.004,15.995-0.089,23.99-0.204c2.832-0.042,5.676-0.133,8.489-0.447c2.809-0.315,4.942-1.719,6.147-4.47
		c1.41-3.218,1.48-6.644,1.591-10.006C59.801,29.705,59.854,23.795,59.019,17.93z M23.938,37.66c0-5.561,0-11.024,0-16.622
		c5.341,2.795,10.597,5.545,15.986,8.365C34.492,32.209,29.26,34.91,23.938,37.66z"/>
</g>
<rect fill="none" width="60" height="60"/>
</svg>
